<svg width="1920" height="714" viewBox="0 0 1920 714" fill="none" xmlns="http://www.w3.org/2000/svg">
<g clip-path="url(#clip0_1_2)">
<mask id="mask0_1_2" style="mask-type:luminance" maskUnits="userSpaceOnUse" x="0" y="-343" width="1920" height="1060">
<path d="M1920 -343H0V717H1920V-343Z" fill="white"/>
</mask>
<g mask="url(#mask0_1_2)">
<path d="M718.638 555.343C699.796 532.888 681.828 511.472 651.558 497.468C606.178 476.47 572.485 474.436 541.789 472.584C509.983 470.662 481.392 468.937 446.348 446.509C407.615 421.72 391.975 398.237 375.9 374.1C363.398 355.327 350.631 336.157 326.529 315.671C281.947 277.776 235.631 264.714 180.541 264.714H-2.63202V716.448H1920V264.714H1736.82C1681.73 264.714 1635.43 277.776 1590.84 315.671C1566.73 336.157 1553.97 355.327 1541.47 374.1C1525.39 398.236 1509.75 421.72 1471.01 446.509C1435.97 468.937 1407.39 470.662 1375.57 472.584C1344.88 474.436 1311.19 476.47 1265.81 497.468C1235.54 511.472 1217.57 532.888 1198.73 555.343C1160.13 601.346 1117.86 651.718 958.683 651.718C799.503 651.718 757.238 601.346 718.638 555.343Z" fill="#58CC02"/>
<g opacity="0.641637">
<path d="M344.076 450.479L398.537 469.919C401.017 470.805 403.7 470.957 406.263 470.356L418.214 467.558C421.326 466.829 422.744 463.213 420.958 460.562L412.611 448.179C411.884 447.1 410.831 446.283 409.604 445.847L356.029 426.787C355.245 426.507 354.413 426.393 353.582 426.448L336.84 427.571C333.84 427.771 331.848 430.764 332.828 433.608L335.734 442.043C337.088 445.977 340.158 449.081 344.076 450.479Z" fill="#50A463"/>
</g>
<path d="M809.44 487.659L823.795 515.129C830.003 527.009 842.298 534.455 855.702 534.455H1064.34C1077.74 534.455 1090.04 527.009 1096.25 515.129L1110.6 487.659L965.159 483.542V483.251L960.02 483.397L954.881 483.251V483.542L809.44 487.659Z" fill="#5DAD00"/>
<path d="M852.336 514.168H1067.66C1096.9 514.168 1119.34 488.256 1115.17 459.321L1073.99 173.542C1071.44 155.827 1056.25 142.678 1038.36 142.678H881.644C863.746 142.678 848.564 155.827 846.012 173.542L804.827 459.321C800.658 488.256 823.103 514.168 852.336 514.168Z" fill="#78C800"/>
<path d="M1109.23 460.176C1112.88 485.495 1093.24 508.168 1067.66 508.168H852.336C826.756 508.168 807.118 485.495 810.766 460.176L851.951 174.398C854.078 159.635 866.728 148.678 881.644 148.678H1038.36C1053.27 148.678 1065.92 159.635 1068.05 174.398L1109.23 460.176Z" fill="white"/>
<path d="M1068.13 174.927H851.874L851.951 174.398C854.078 159.635 866.728 148.677 881.644 148.677H1038.36C1053.27 148.677 1065.92 159.635 1068.05 174.398L1068.13 174.927Z" fill="#A4F34F"/>
<path d="M1247.8 116.235L1272.38 90.2823C1276.78 87.0423 1283.02 89.8597 1283.5 95.2983L1286.37 102.087L1309.69 93.59C1313.75 91.0287 1319.12 93.226 1320.23 97.898C1320.23 97.898 1330.43 142.624 1330.73 145.815C1333.25 157.485 1331.59 170.456 1325.98 182.002C1313.27 208.171 1281.75 219.082 1255.58 206.371C1229.41 193.659 1218.5 162.14 1231.22 135.971C1235.17 127.833 1240.94 121.171 1247.8 116.235Z" fill="#FF9600"/>
<path d="M1298.86 143.13C1300.78 141.274 1303.98 142.17 1304.67 144.751L1310.64 165.247C1311.58 169.834 1311.71 175.208 1309.62 180.323C1304.75 192.204 1293.79 197.462 1284.74 193.758C1275.7 190.055 1271.9 178.97 1276.77 167.088C1278.79 162.147 1281.49 158.857 1284.63 155.779C1287.3 152.759 1298.86 143.13 1298.86 143.13Z" fill="#FFC700"/>
<path d="M1454.08 387.901C1520.19 393.88 1562.63 385.83 1574.63 361.334C1574.63 361.269 1574.64 361.206 1574.65 361.143C1574.65 361.143 1581.58 346.97 1579.82 336.056C1579.78 336.256 1550.16 333.33 1550.16 333.33C1529.08 323.996 1497.99 316.604 1462.83 313.584C1427.67 310.564 1395.49 312.523 1372.65 318.086C1372.65 318.086 1340.41 320.887 1340.31 320.794C1338.55 328.32 1342.44 343.67 1342.44 343.67C1351.41 363.806 1375.98 380.854 1454.08 387.901Z" fill="#01A98A"/>
<path d="M1580.47 341.466C1577.96 362.496 1522.13 375.063 1455.77 369.536C1389.4 364.008 1337.63 342.475 1340.15 321.444C1342.66 300.414 1398.49 287.85 1464.86 293.379C1531.22 298.907 1582.98 320.437 1580.47 341.466Z" fill="#00D3AC"/>
<path d="M1427.35 315.111L1452.87 340.753L1509.22 316.537" stroke="white" stroke-width="8.53331" stroke-linecap="round" stroke-linejoin="round"/>
<path d="M1225.64 341.759C1283.8 334.197 1329.4 315.908 1327.75 300.85C1327.74 300.803 1327.73 300.755 1327.73 300.709L1325.34 282.307L1297.76 285.893C1277.73 282.929 1249.46 283.112 1218.54 287.133C1187.61 291.155 1160.24 298.208 1141.63 306.197L1114.06 309.782L1116.47 328.325C1118.72 343.307 1167.48 349.322 1225.64 341.759Z" fill="#E49E00"/>
<path d="M1325.33 282.264C1327.29 297.349 1281.59 315.729 1223.24 323.316C1164.9 330.904 1116.02 324.825 1114.05 309.74C1112.09 294.655 1157.8 276.275 1216.14 268.689C1274.48 261.101 1323.37 267.179 1325.33 282.264Z" fill="#FFC700"/>
<path d="M1053.1 294.316C1050.48 307.353 1007.46 310.516 956.801 301.365C906.138 292.214 866.949 274.203 869.056 261.074L871.973 244.922L895.99 249.26C913.681 247.529 938.457 248.913 965.396 253.779C992.336 258.645 1016.03 266.016 1032 273.826L1056.01 278.164L1053.12 294.193C1053.11 294.234 1053.11 294.276 1053.1 294.316Z" fill="#E49E00"/>
<path d="M968.297 237.713C1019.08 246.886 1058.39 264.995 1056.02 278.126C1053.65 291.257 1010.49 294.471 959.703 285.298C908.916 276.125 869.608 258.015 871.979 244.884C874.351 231.753 917.511 228.54 968.297 237.713Z" fill="#FFC700"/>
<path d="M922.421 268.449C915.903 266.415 909.907 264.263 904.553 262.057L964.301 243.029C965.279 243.197 966.259 243.369 967.243 243.546C973.958 244.759 980.45 246.128 986.651 247.617L922.421 268.449ZM902.623 238.852C914.752 237.949 930.136 238.45 947.225 240.52L892.329 256.324C887.946 253.95 884.557 251.658 882.195 249.555C879.316 246.991 879.104 245.92 879.21 245.329C879.36 244.498 879.891 243.807 883.485 242.413C887.766 240.752 894.216 239.479 902.623 238.852Z" fill="#FFE700"/>
<path d="M1189.87 281.927C1190.83 281.283 1190.22 279.796 1189.08 280.03C1171.96 283.532 1156.93 287.906 1145.24 292.609C1136.33 296.192 1129.76 299.802 1125.69 303.083C1122.27 305.837 1121.93 306.772 1122.06 307.724C1122.15 308.404 1122.75 309.494 1126.76 311.283C1129.79 312.635 1133.83 313.86 1138.81 314.876C1139.63 315.045 1140.49 314.87 1141.18 314.404L1189.87 281.927Z" fill="#FFE700"/>
<path d="M1157.74 315.441C1156.92 316.016 1157.27 317.285 1158.27 317.353C1163.75 317.729 1169.67 317.916 1175.93 317.904C1176.6 317.903 1177.24 317.693 1177.78 317.308L1236.41 275.308C1237.29 274.681 1236.79 273.306 1235.71 273.395C1229.64 273.895 1223.39 274.557 1217.01 275.386C1216.14 275.5 1215.27 275.615 1214.41 275.733C1213.9 275.802 1213.42 275.995 1213 276.291L1157.74 315.441Z" fill="#FFE700"/>
<path d="M614.057 113.8C638.535 119.171 659.517 118.414 661.027 112.119C661.032 112.099 661.036 112.079 661.04 112.059L662.739 104.315L651.134 101.769C643.51 97.6794 632.117 93.6645 619.101 90.809C606.086 87.9534 594.058 86.8304 585.423 87.3508L573.818 84.8048L572.105 92.609C570.842 98.958 589.579 108.43 614.057 113.8Z" fill="#E49E00"/>
<path d="M662.744 104.296C661.35 110.646 640.315 111.424 615.761 106.037C591.205 100.65 572.43 91.1357 573.822 84.786C575.216 78.4377 596.25 77.6583 620.805 83.0462C645.36 88.4341 664.136 97.948 662.744 104.296Z" fill="#FFC700"/>
<path d="M605.917 85.1664C606.932 84.9142 606.864 83.4898 605.826 83.357C599.412 82.5391 593.617 82.2315 588.838 82.409C584.737 82.5611 581.577 83.0635 579.463 83.7933C577.69 84.407 577.419 84.7327 577.331 85.1341C577.269 85.4205 577.352 85.9459 578.706 87.2445C579.632 88.1325 580.901 89.0964 582.507 90.1069C583.146 90.5101 583.924 90.619 584.657 90.4366L605.917 85.1664Z" fill="#FFE700"/>
<path d="M591.893 93.027C591.03 93.2661 590.942 94.441 591.766 94.7879C593.43 95.4895 595.2 96.1814 597.067 96.8557C597.627 97.0588 598.24 97.077 598.813 96.9145L626.274 89.1265C627.206 88.8622 627.201 87.5555 626.262 87.3131C624.288 86.8045 622.259 86.3208 620.186 85.8658C619.941 85.811 619.697 85.7589 619.452 85.7055C619.001 85.6086 618.532 85.6241 618.087 85.7472L591.893 93.027Z" fill="#FFE700"/>
<path d="M584.754 209.287C620.213 212.192 649.586 207.141 650.515 197.999C650.518 197.97 650.52 197.941 650.523 197.913L651.442 186.694L634.632 185.316C623.128 181.012 606.338 177.528 587.483 175.983C568.629 174.438 551.496 175.142 539.444 177.516L522.635 176.139L521.708 187.444C521.137 196.616 549.297 206.382 584.754 209.287Z" fill="#E49E00"/>
<path d="M651.444 186.667C650.69 195.863 621.246 200.957 585.677 198.042C550.107 195.127 521.883 185.309 522.637 176.113C523.391 166.916 552.836 161.823 588.405 164.738C623.975 167.653 652.198 177.471 651.444 186.667Z" fill="#FFC700"/>
<path d="M569.217 170.012C570.298 169.584 570.011 168.016 568.848 168.017C559.081 168.019 550.352 168.696 543.311 169.915C537.57 170.907 533.219 172.216 530.385 173.644C528.007 174.844 527.688 175.354 527.64 175.935C527.606 176.349 527.823 177.073 529.975 178.642C531.512 179.764 533.592 180.931 536.197 182.098C536.963 182.441 537.835 182.447 538.617 182.138L569.217 170.012Z" fill="#FFE700"/>
<path d="M548.878 184.592C547.964 184.985 548.041 186.295 549 186.561C551.781 187.333 554.76 188.062 557.91 188.738C558.559 188.877 559.234 188.807 559.84 188.541L598.22 171.834C599.208 171.404 599.007 169.962 597.937 169.83C594.734 169.437 591.438 169.099 588.07 168.822C587.643 168.787 587.217 168.754 586.791 168.721C586.279 168.681 585.766 168.769 585.294 168.971L548.878 184.592Z" fill="#FFE700"/>
<path d="M702.349 305.769C748.095 292.59 782.454 272.341 779.283 260.46C779.273 260.422 779.262 260.385 779.251 260.348L775.081 245.874L753.393 252.122C736.958 252.192 714.295 255.794 689.97 262.801C665.645 269.808 644.54 278.815 630.585 287.5L608.898 293.748L613.099 308.332C616.735 320.079 656.602 318.947 702.349 305.769Z" fill="#E49E00"/>
<path d="M775.071 245.84C778.49 257.705 744.06 278.04 698.169 291.261C652.279 304.48 612.306 305.579 608.889 293.714C605.47 281.848 639.901 261.512 685.791 248.293C731.681 235.074 771.654 233.975 775.071 245.84Z" fill="#FFC700"/>
<path d="M665.983 262.441C666.756 261.736 666.009 260.498 665.028 260.862C651.898 265.722 640.533 271.007 631.819 276.154C625.107 280.118 620.281 283.819 617.413 286.95C615.005 289.579 614.848 290.369 615.065 291.119C615.218 291.653 615.834 292.454 619.27 293.399C621.846 294.107 625.198 294.594 629.267 294.805C630.022 294.843 630.758 294.571 631.317 294.063L665.983 262.441Z" fill="#FFE700"/>
<path d="M644.824 292.77C644.179 293.392 644.661 294.473 645.555 294.398C649.902 294.031 654.555 293.47 659.453 292.715C660.042 292.624 660.589 292.35 661.016 291.934L702.624 251.36C703.318 250.683 702.688 249.529 701.745 249.754C697.037 250.88 692.213 252.149 687.309 253.561C686.647 253.752 685.987 253.944 685.329 254.138C684.887 254.268 684.483 254.505 684.151 254.826L644.824 292.77Z" fill="#FFE700"/>
<path d="M734.387 138.761C729.515 138.815 727.027 138.828 721.428 140.783C708.898 145.15 702.945 161.498 708.329 175.699C711.417 183.842 720.171 191.583 727.372 195.466C727.372 195.466 749.677 206.023 759.662 208.746C762.484 209.543 765.918 208.396 767.463 205.022C767.463 205.022 776.02 189.538 778.795 171.797C780.29 164.13 781.686 154.807 778.903 143.835C775.109 129.123 756.852 122.453 744.879 128.162C739.096 130.919 737.048 133.59 734.387 138.761Z" fill="#FF4B4B"/>
<path d="M745.082 160.195C747.083 165.392 744.491 171.228 739.293 173.229C734.095 175.231 728.259 172.638 726.258 167.44C724.257 162.242 726.85 156.407 732.047 154.406C737.246 152.405 743.081 154.996 745.082 160.195Z" fill="#FFB2B2"/>
<path d="M440.494 211.297C440.686 209.55 439.681 207.891 438.044 207.251L334.47 166.803C332.087 165.873 329.47 167.458 329.191 170L322.783 228.395C322.591 230.143 323.595 231.801 325.233 232.441L428.805 272.889C431.189 273.819 433.806 272.236 434.086 269.693L440.494 211.297Z" fill="#8E5501"/>
<path d="M435.886 211.734L385.71 238.434L330.245 216.972L328.971 228.583L429.928 266.012L435.886 211.734Z" fill="#724400"/>
<path d="M295.656 184.648L329.403 168.084L322.457 231.357L288.654 248.438L295.656 184.648Z" fill="#CE7D03"/>
<path d="M396.809 290.536L288.646 248.446L322.457 231.357L430.62 273.448L396.809 290.536Z" fill="#CE7D03"/>
<path d="M412.848 281.683L305.56 239.841L311.958 181.572" stroke="#B46C00" stroke-width="3.88799"/>
<path d="M397.93 291.386C396.929 291.925 395.743 291.999 394.684 291.59L375.089 284.008C373.521 283.402 373.41 281.224 374.91 280.462L406.627 264.334L432.372 269.391L432.417 272.816L397.93 291.386Z" fill="#EEAB00"/>
<path d="M294.289 202.91C292.912 203.597 291.321 202.488 291.487 200.958L292.923 187.879C293.068 186.567 293.866 185.418 295.047 184.828L331.362 166.625L334.319 169.392L327.594 186.279L294.289 202.91Z" fill="#EEAB00"/>
<path d="M430.169 268.043L436.29 211.156L333.884 171.792L327.695 228.184L430.169 268.043Z" stroke="#FEC700" stroke-width="9.71998" stroke-linejoin="round"/>
<path d="M358.553 117.776C358.509 118.9 479.599 170.201 479.272 169.831C467.443 156.877 443.901 144.575 429.133 138.024C374.725 113.648 358.586 116.957 358.553 117.776Z" fill="#CE7D03"/>
<path d="M288.233 233.251C288.361 232.089 289.066 231.071 290.108 230.542L324.501 212.983L322.894 227.623C322.653 229.823 323.929 231.909 325.999 232.696L347.829 240.994L313.13 258.707C312.261 259.148 311.246 259.202 310.334 258.856L289.936 251.103C287.866 250.316 286.59 248.23 286.831 246.03L288.233 233.251Z" fill="#EEAB00"/>
<path d="M369.979 121.601C352.951 114.905 332.554 118.701 328.574 138.023C323.897 160.521 336.601 176.571 359.457 179.079C382.312 181.588 395 178.297 397.509 155.442C400.017 132.586 387.154 128.363 369.979 121.601Z" fill="#B46C00"/>
<path d="M329.988 143.705C329.665 166.76 339.374 175.13 360.095 177.405C380.816 179.678 405.413 156.314 393.536 140.72C382.376 125.818 363.145 116.598 350.567 119.766C336.616 123.49 330.386 136.96 329.988 143.705Z" stroke="#FCC90E" stroke-width="7.77598"/>
<path d="M442.124 201.469L331.05 158.092L372.767 127.455L483.841 170.833L442.124 201.469Z" fill="#8E5501"/>
<path d="M432.244 203.505C427.581 194.858 435.852 176.757 445.168 172.193C460.077 164.543 468.445 169.773 478.22 173.379C481.29 174.624 481.154 176.38 484.122 177.514L432.244 203.505Z" fill="#724400"/>
<path d="M443.937 197.801C443.552 198.374 433.107 201.358 432.455 201.259L340.03 165.164C334.153 162.868 333.501 157.807 337.135 152.649L369.586 127.76C372.976 124.918 378.141 126.027 382.308 127.654L475.255 165.443C481.132 167.738 481.648 174.666 477.584 177.105L443.937 197.801Z" stroke="#FCC90E" stroke-width="9.71998" stroke-linejoin="round"/>
<mask id="mask1_1_2" style="mask-type:alpha" maskUnits="userSpaceOnUse" x="330" y="121" width="156" height="86">
<path d="M443.937 197.801C443.552 198.374 433.107 201.358 432.455 201.259L340.03 165.164C334.153 162.868 333.501 157.807 337.135 152.649L369.586 127.76C372.976 124.918 378.141 126.027 382.308 127.654L475.255 165.443C481.132 167.738 481.648 174.666 477.584 177.105L443.937 197.801Z" stroke="#FCC90E" stroke-width="9.71998" stroke-linejoin="round"/>
</mask>
<g mask="url(#mask1_1_2)">
<path d="M425.195 115.078L434.005 167.176L469.194 209.148L528.549 151.05L425.195 115.078Z" fill="#FFE700"/>
</g>
<path d="M439.444 194.468L445.286 202.048L441.179 204.172L435.011 196.043L439.444 194.468Z" fill="#FEF400"/>
<path d="M420.691 148.004L417.659 136.599L407.082 131.813L410.178 143.981L420.691 148.004Z" fill="#FEF400"/>
<path d="M447.015 238.848C444.9 237.233 442.092 236.85 439.62 237.839L420.833 245.355C418.401 246.327 416.646 248.491 416.194 251.07L413.607 265.835C413.112 268.658 414.257 271.52 416.561 273.223L428.621 282.129C430.728 283.686 433.491 284.039 435.922 283.066L454.709 275.549C457.18 274.562 458.95 272.345 459.368 269.716L461.7 255.051C462.136 252.306 461.029 249.544 458.819 247.856L447.015 238.848Z" fill="#1CB0F6"/>
<path d="M454.725 249.93L444.664 242.668C443.478 241.81 441.801 242.356 441.347 243.748L439.402 249.703C439.102 250.624 439.45 251.633 440.258 252.17L445.988 255.99C446.579 256.385 447.328 256.464 447.989 256.199L454.263 253.688C455.843 253.055 456.105 250.928 454.725 249.93Z" fill="#DDF4FF"/>
<path d="M472.719 295.438C470.094 295.876 467.892 297.661 466.922 300.139L456.172 327.606C455.216 330.045 455.592 332.802 457.164 334.897L470.777 353.045C472.497 355.337 475.365 356.46 478.185 355.944L500.5 351.861C503.077 351.39 505.225 349.619 506.179 347.181L516.93 319.715C517.9 317.238 517.495 314.43 515.864 312.327L502.099 294.568C500.396 292.371 497.625 291.286 494.881 291.743L472.719 295.438Z" fill="#1CB0F6"/>
<path d="M492.986 297.568L474.701 301.116C473.264 301.395 472.515 302.994 473.219 304.277L477.914 312.838C478.38 313.688 479.355 314.125 480.299 313.904L490.036 311.631C490.729 311.47 491.298 310.978 491.556 310.315L495.407 300.476C496.028 298.891 494.657 297.244 492.986 297.568Z" fill="#DDF4FF"/>
<path d="M347.623 326.603C345.793 328.533 345.111 331.284 345.831 333.847L356.841 373.084C357.549 375.606 359.51 377.583 362.027 378.307L392.817 387.175C395.57 387.969 398.537 387.138 400.476 385.027L422.154 361.434C423.926 359.505 424.575 356.796 423.867 354.274L412.855 315.037C412.136 312.476 410.123 310.481 407.553 309.785L376.924 301.482C374.241 300.755 371.374 301.558 369.461 303.576L347.623 326.603Z" fill="#1CB0F6"/>
<path d="M371.905 311.189L354.397 330.657C353.418 331.745 353.782 333.472 355.117 334.072L367.904 339.822C368.788 340.22 369.829 339.979 370.449 339.235L379.276 328.647C379.732 328.101 379.888 327.365 379.697 326.68L375.591 312.05C375.13 310.411 373.044 309.923 371.905 311.189Z" fill="#DDF4FF"/>
<path d="M1474.81 73.4271C1464.7 84.6143 1452.53 90.5242 1445.86 87.9549C1440.96 86.0939 1435.34 81.5038 1433.39 76.6258C1430.27 70.215 1434.93 57.595 1444.99 46.4666C1455.18 35.1952 1467.44 29.2831 1474.09 31.9926C1478.83 33.476 1483.6 38.1238 1486.01 42.5619C1489.88 48.7135 1485.26 61.8738 1474.81 73.4271Z" fill="#1CB0F6"/>
<path d="M1482.79 82.9967C1470.27 96.8443 1456.08 104.939 1448.97 102.792C1443.73 101.245 1438.03 96.6834 1436.42 91.3754C1433.68 84.4639 1440.31 69.6198 1452.76 55.846C1465.37 41.8992 1479.67 33.7881 1486.73 36.0993C1491.83 37.2373 1496.59 41.9609 1498.77 46.7148C1502.36 53.2475 1495.72 68.6988 1482.79 82.9967Z" fill="#1CB0F6"/>
<path d="M1489.66 90.7347L1470.77 72.3287" stroke="#C9C7C7" stroke-width="9.08798" stroke-linecap="round"/>
<path d="M1512.24 114.805C1499.72 128.653 1485.53 136.747 1478.42 134.599C1473.18 133.054 1467.48 128.49 1465.87 123.183C1463.14 116.272 1469.75 101.429 1482.21 87.6562C1494.81 73.7081 1509.13 65.5952 1516.18 67.9096C1521.27 69.0463 1526.03 73.7698 1528.23 78.5219C1531.81 85.0547 1525.16 100.508 1512.24 114.805Z" fill="#1CB0F6"/>
<path d="M1521.7 124.503C1511.58 135.693 1499.42 141.601 1492.75 139.032C1487.84 137.173 1482.24 132.581 1480.28 127.703C1477.16 121.292 1481.82 108.672 1491.88 97.5436C1502.07 86.2722 1514.33 80.3601 1520.97 83.0714C1525.71 84.5548 1530.49 89.2008 1532.91 93.6389C1536.77 99.7891 1532.15 112.951 1521.7 124.503Z" fill="#1CB0F6"/>
<path d="M1499.44 117.518C1496.36 120.75 1494.09 126.318 1493.8 128.668M1478.91 109.028C1475.84 112.258 1473.56 117.827 1473.26 120.179M1449.61 77.7155C1446.55 80.9441 1444.26 86.5141 1443.97 88.8659" stroke="#60C8F9" stroke-width="9.08798" stroke-linecap="round"/>
<g opacity="0.641637">
<path d="M1403.01 471.008C1412.6 473.366 1446.71 476.201 1457.12 476.355C1542.95 477.621 1592.03 463.48 1592.29 445.307C1592.48 432.906 1560.25 421.628 1512.47 415.314C1501 425.595 1487.5 435.967 1471.01 446.509C1447.8 461.368 1423.74 468.62 1403.01 471.008Z" fill="#50A463"/>
</g>
<path d="M603.047 402.033L596.738 383.87C595.964 381.644 597.142 379.214 599.368 378.44L617.531 372.131C619.757 371.357 622.188 372.535 622.961 374.762L629.271 392.923C630.044 395.15 628.865 397.581 626.64 398.355L608.477 404.664C606.251 405.437 603.82 404.259 603.047 402.033Z" fill="#BFFF79"/>
<path d="M1489.74 192.11L1507.68 213.133C1509.21 214.925 1509 217.618 1507.21 219.149L1486.18 237.095C1484.39 238.625 1481.7 238.412 1480.17 236.62L1462.22 215.597C1460.69 213.805 1460.91 211.112 1462.7 209.581L1483.72 191.636C1485.51 190.105 1488.21 190.318 1489.74 192.11Z" fill="#BFFF79"/>
</g>
<g clip-path="url(#clip1_1_2)">
<mask id="mask2_1_2" style="mask-type:luminance" maskUnits="userSpaceOnUse" x="0" y="-343" width="1920" height="1060">
<path d="M1920 -343H0V717H1920V-343Z" fill="white"/>
</mask>
<g mask="url(#mask2_1_2)">
<mask id="mask3_1_2" style="mask-type:alpha" maskUnits="userSpaceOnUse" x="611" y="104" width="712" height="405">
<path d="M1322.28 104.791V509H612V104.791H1322.28Z" fill="#81EA5F"/>
</mask>
<g mask="url(#mask3_1_2)">
<mask id="mask4_1_2" style="mask-type:luminance" maskUnits="userSpaceOnUse" x="0" y="-445" width="1920" height="1060">
<path d="M0 -445H1920V615H0V-445Z" fill="white"/>
</mask>
<g mask="url(#mask4_1_2)">
<path d="M877.838 409.328L834.562 558.999C832.242 567.021 838.406 574.935 846.734 574.629C886.748 573.16 922.015 545.738 933.449 506.195C944.883 466.652 929.639 424.824 896.507 402.493C889.611 397.844 880.158 401.306 877.838 409.328Z" fill="#58CC02"/>
<path d="M846.734 574.63C866.269 573.912 884.674 567.009 899.725 555.529C915.503 543.495 927.597 526.432 933.449 506.195C934.597 502.224 934.556 499.743 933.561 498.494C929.38 493.247 908.359 509.745 887.995 528.709C864.956 550.164 842.757 574.775 846.734 574.63Z" fill="#81EA5F"/>
<path d="M1042.16 409.328L1085.44 558.999C1087.76 567.021 1081.59 574.935 1073.27 574.629C1033.25 573.16 997.985 545.738 986.551 506.195C975.117 466.652 990.361 424.824 1023.49 402.493C1030.39 397.844 1039.84 401.306 1042.16 409.328Z" fill="#58CC02"/>
<path d="M1073.27 574.63C1033.25 573.16 997.985 545.738 986.551 506.195C986.066 504.517 985.793 503.105 985.715 501.94C985.639 500.812 985.746 499.915 986.018 499.231C989.479 490.562 1019.68 516.219 1043.69 539.918C1061.91 557.898 1076.56 574.75 1073.27 574.63Z" fill="#81EA5F"/>
<path d="M855.176 383.469C855.176 359.083 881.003 343.088 903.485 352.536C924.45 361.346 946.891 369.413 958.785 369.413C970.678 369.413 993.12 361.346 1014.08 352.536C1036.57 343.088 1062.39 359.083 1062.39 383.469V492.297C1062.39 549.519 1016.01 595.906 958.785 595.906C901.563 595.906 855.176 549.519 855.176 492.297V383.469Z" fill="#58CC02"/>
<path d="M936.404 398.345C947.781 409.911 967.842 409.911 980.514 398.345C993.186 386.78 978.61 465.703 978.61 465.5C978.61 465.402 971.836 465.375 958.29 465.416C954.659 465.427 948.116 465.455 938.664 465.5C929.572 413.02 928.819 390.635 936.404 398.345Z" fill="#89E219"/>
<path d="M1007.46 368.552L976.765 402.729C975.12 404.561 975.733 407.466 977.975 408.466C988.752 413.272 1001.61 410.561 1009.72 401.531C1017.83 392.502 1019.18 379.4 1013.28 369.159C1012.06 367.027 1009.11 366.72 1007.46 368.552Z" fill="#8EE000"/>
<path d="M1025.34 376.703L994.643 410.881C992.997 412.712 993.61 415.617 995.854 416.618C1006.63 421.424 1019.49 418.712 1027.6 409.683C1035.71 400.653 1037.06 387.551 1031.16 377.31C1029.93 375.179 1026.99 374.871 1025.34 376.703Z" fill="#8EE000"/>
<path d="M909.898 368.459L939.651 401.91C941.246 403.703 940.628 406.519 938.431 407.47C927.873 412.044 915.333 409.3 907.472 400.462C899.611 391.624 898.385 378.891 904.211 368.998C905.424 366.939 908.303 366.666 909.898 368.459Z" fill="#89E219"/>
<path d="M891.688 376.735L919.677 408.203C921.177 409.89 920.596 412.538 918.529 413.434C908.597 417.736 896.8 415.154 889.405 406.84C882.011 398.527 880.857 386.548 886.338 377.241C887.479 375.304 890.187 375.048 891.688 376.735Z" fill="#89E219"/>
<path d="M865.416 427.843C865.416 404.888 884.025 386.279 906.98 386.279C929.935 386.279 948.543 404.888 948.543 427.843V448.324C948.543 471.279 929.935 489.888 906.98 489.888C884.025 489.888 865.416 471.279 865.416 448.324V427.843Z" fill="#89E219"/>
<path d="M968.422 427.843C968.422 404.888 987.031 386.279 1009.99 386.279C1032.94 386.279 1051.55 404.888 1051.55 427.843V448.324C1051.55 471.279 1032.94 489.888 1009.99 489.888C987.031 489.888 968.422 471.279 968.422 448.324V427.843Z" fill="#89E219"/>
<path d="M908.185 400.736C924.153 400.736 937.099 413.681 937.099 429.65V445.914C937.099 461.883 924.154 474.828 908.185 474.828C892.216 474.828 879.271 461.883 879.271 445.914V429.65C879.271 413.681 892.216 400.736 908.185 400.736Z" fill="white"/>
<path d="M1008.78 400.736C1024.75 400.736 1037.7 413.681 1037.7 429.65V445.914C1037.7 461.883 1024.75 474.828 1008.78 474.828C992.812 474.828 979.867 461.883 979.867 445.914V429.65C979.867 413.681 992.812 400.736 1008.78 400.736Z" fill="white"/>
<path d="M986.493 433.867C992.481 433.867 997.336 429.013 997.336 423.025C997.336 421.067 996.817 419.229 995.909 417.644C997.213 417.226 998.603 417 1000.05 417C1007.53 417 1013.6 423.068 1013.6 430.554V445.011C1013.6 452.496 1007.53 458.564 1000.05 458.564C992.561 458.564 986.493 452.496 986.493 445.011V433.867Z" fill="#4B4B4B"/>
<path d="M903.243 433.867C909.231 433.867 914.086 429.013 914.086 423.025C914.086 421.067 913.567 419.229 912.659 417.644C913.963 417.226 915.353 417 916.796 417C924.282 417 930.35 423.068 930.35 430.554V445.011C930.35 452.496 924.282 458.564 916.796 458.564C909.311 458.564 903.243 452.496 903.243 445.011V433.867Z" fill="#4B4B4B"/>
<path d="M958.482 448.926C966.75 448.926 972.638 455.264 972.638 463.082L972.59 466.838C972.59 474.656 966.042 480.994 958.435 480.994C950.827 480.994 944.279 474.656 944.279 466.838L944.327 463.082C944.327 455.264 950.215 448.926 958.482 448.926Z" fill="#F49000"/>
<path d="M958.482 452.75C964.375 452.75 969.37 457.625 969.37 463.638L969.382 456.282C969.382 462.295 964.507 467.17 958.494 467.17C952.481 467.17 947.606 462.295 947.606 456.282L947.595 463.638C947.595 457.625 952.59 452.75 958.482 452.75Z" fill="#B06800"/>
<path d="M958.417 458.688C968.327 458.688 969.382 456.282 969.382 456.282C969.382 462.295 964.507 467.17 958.494 467.17C952.481 467.17 947.606 462.295 947.606 456.282C947.606 456.282 948.506 458.688 958.417 458.688Z" fill="#FFB8D1"/>
<path d="M978.866 464.6C979.031 465.251 978.59 465.888 977.929 466.005L958.717 469.407L939.505 466.005C938.844 465.888 938.403 465.251 938.567 464.6C940.843 455.592 949.002 448.926 958.717 448.926C968.432 448.926 976.59 455.592 978.866 464.6Z" fill="#FFC200"/>
<path d="M954.525 454.597C955.873 454.015 959.577 453.599 962.356 454.597" stroke="#FFDE00" stroke-width="6.02376" stroke-linecap="round" stroke-linejoin="round"/>
<path d="M958.75 442.25C975.5 442.25 985 483.75 1010 483.75C1035 483.75 1044 442.25 1044 442.25C1044 442.25 1004 436 981 460.25C972.25 454.75 971.5 446 959 446C946.5 446 945.75 449.75 937 458.25C916.5 442.38 873.5 440.5 873.5 440.5C873.5 440.5 876 481.75 909.5 481.75C943 481.75 942 442.25 958.75 442.25Z" fill="#89E219"/>
</g>
</g>
</g>
</g>
</g>
<defs>
<clipPath id="clip0_1_2">
<rect width="1920" height="714" fill="white"/>
</clipPath>
<clipPath id="clip1_1_2">
<rect width="1920" height="1060" fill="white" transform="translate(0 -343)"/>
</clipPath>
</defs>
</svg>
