<svg width="1080" height="1080" viewBox="0 0 1080 1080" fill="none" xmlns="http://www.w3.org/2000/svg">
<g clip-path="url(#clip0_1_10014)">
<mask id="mask0_1_10014" style="mask-type:luminance" maskUnits="userSpaceOnUse" x="0" y="0" width="1080" height="1080">
<path d="M1080 0H0V1080H1080V0Z" fill="white"/>
</mask>
<g mask="url(#mask0_1_10014)">
<mask id="mask1_1_10014" style="mask-type:luminance" maskUnits="userSpaceOnUse" x="-4" y="-24" width="1920" height="1080">
<path d="M1916 -23.5H-4V1055.5H1916V-23.5Z" fill="white"/>
</mask>
<g mask="url(#mask1_1_10014)">
<path d="M685.515 780.243C636.25 745.875 553.5 688 480.872 637.04C478.869 635.635 476.966 634.332 475.113 633.163C470.311 630.134 465.845 628.012 460.869 627.393C454.151 626.557 446.503 628.46 435.842 634.569C398.875 655.75 364.937 676.063 327.674 700.141C323.016 703.151 321.5 707.313 320.917 710.83C319.934 716.757 321.813 722.266 324.863 728.107C327.875 733.875 331.095 739.665 334.859 746.484C365.5 802 414 887.75 443.43 938.325C448.127 946.396 454 953.5 460.177 960.054C465.064 965.238 474.445 974.71 480.728 978.712C492.324 986.098 505.5 982.93 514.817 976.701C556.999 948.5 654.5 883 696.753 851.88C705.401 845.512 708.728 832.169 707.249 826.15C705 817 702.339 808.774 699.169 801.887C696 795 691.841 784.656 685.515 780.243Z" fill="#58CC02"/>
<path d="M685.515 780.243C636.25 745.875 553.5 688 480.872 637.04C478.869 635.635 476.966 634.332 475.113 633.163C470.311 630.134 465.845 628.012 460.869 627.393C454.151 626.557 446.503 628.46 435.842 634.569C398.875 655.75 364.937 676.063 327.674 700.141C323.016 703.151 321.5 707.313 320.917 710.83C319.934 716.757 321.813 722.266 324.863 728.107C327.875 733.875 331.095 739.665 334.859 746.484C365.5 802 414 887.75 443.43 938.325C448.127 946.396 454 953.5 460.177 960.054C465.064 965.238 474.445 974.71 480.728 978.712C492.324 986.098 505.5 982.93 514.817 976.701C556.999 948.5 654.5 883 696.753 851.88C705.401 845.512 708.728 832.169 707.249 826.15C705 817 702.339 808.774 699.169 801.887C696 795 691.841 784.656 685.515 780.243Z" stroke="#58CC02" stroke-width="6.5"/>
<path d="M685.416 780.17C636.25 745.875 553.5 688 480.779 636.975C466.587 627.017 457.334 622.173 435.74 634.58C398.82 655.792 365 676 327.753 700.068C321.064 704.39 317.416 714.271 324.859 728.108C354.25 782.75 398.75 861.25 443.68 938.825C451.942 953.088 473.091 960.742 492.817 947.201C539 915.5 640 853 682.254 820.88C695.879 810.522 697.837 788.835 685.416 780.17Z" fill="white"/>
<path d="M685.416 780.17C636.25 745.875 553.5 688 480.779 636.975C466.587 627.017 457.334 622.173 435.74 634.58C398.82 655.792 365 676 327.753 700.068C321.064 704.39 317.416 714.271 324.859 728.108C354.25 782.75 398.75 861.25 443.68 938.825C451.942 953.088 473.091 960.742 492.817 947.201C539 915.5 640 853 682.254 820.88C695.879 810.522 697.837 788.835 685.416 780.17Z" stroke="#9DEEC7" stroke-width="6.5"/>
<mask id="mask2_1_10014" style="mask-type:alpha" maskUnits="userSpaceOnUse" x="320" y="472" width="431" height="483">
<path d="M456 472.5C456 472.5 458.97 560.933 444.779 550.975C430.587 541.017 457.334 622.173 435.74 634.58C398.82 655.792 365 676.001 327.753 700.068C321.064 704.39 317.416 714.272 324.859 728.109C354.25 782.75 398.75 861.25 443.68 938.825C451.942 953.089 473.091 960.742 492.817 947.202C539 915.5 640 853 682.254 820.88C695.879 810.522 697.837 788.835 685.416 780.17C636.25 745.875 750.779 624.975 750.779 624.975C750.779 624.975 733.915 528.225 733.084 527.642C732.684 527.362 456 472.5 456 472.5Z" fill="white"/>
</mask>
<g mask="url(#mask2_1_10014)">
<mask id="mask3_1_10014" style="mask-type:luminance" maskUnits="userSpaceOnUse" x="-4" y="-24" width="1920" height="1080">
<path d="M1916 -23.5H-4V1055.5H1916V-23.5Z" fill="white"/>
</mask>
<g mask="url(#mask3_1_10014)">
<path d="M624.54 708.558C627.185 707.818 628.734 705.088 628.016 702.438L605.343 618.63C597.17 590.194 573.518 570.012 544.566 571.271C516.094 572.509 494.25 593.843 489.212 622.885L473.418 705.735C472.92 708.349 474.555 710.889 477.139 711.527C487.119 713.991 512.516 719.394 544.955 719.893C578.648 720.411 612.365 711.967 624.54 708.558Z" fill="#A175F9"/>
<path d="M579.716 741.513C576.756 734.629 566.401 731.473 559.516 734.433C552.632 737.394 546.424 748.305 549.384 755.189C549.384 755.189 555.889 773.915 561.805 785.205C567.009 795.134 574.632 806.483 574.632 806.483C580.688 813.892 585.575 816.548 592.459 813.588C599.343 810.627 602.525 802.646 599.564 795.761C599.564 795.761 593.602 782.289 589.655 771.502C585.708 760.715 579.716 741.513 579.716 741.513Z" fill="#A570FF"/>
<path d="M579.716 741.513C579.716 741.513 571.836 710.999 569.657 684.577L533.199 690.254C533.543 715.974 548.72 753.61 548.72 753.61C551.731 755.163 562.121 757.921 569.087 754.926C575.482 752.175 578.828 744.552 579.716 741.513Z" fill="#593F86"/>
<path d="M528.303 733.817C528.377 739.362 532.934 743.797 538.48 743.723C544.025 743.649 548.461 739.093 548.387 733.547C548.313 728.002 543.757 723.565 538.211 723.639C532.666 723.713 528.229 728.271 528.303 733.817Z" fill="#FFC6B7"/>
<path d="M555.663 680.174L603.216 709.713C614.435 716.682 609.717 733.976 596.513 734.28L516.759 736.118C503.515 736.423 498.031 719.281 508.993 711.843L555.663 680.174Z" fill="#593F86"/>
<path d="M557.125 711.558C564.187 706.999 567.469 703.602 572.23 703.538C576.905 703.475 580.866 706.621 582.042 710.93C576.928 711.068 564.475 711.373 557.125 711.558Z" fill="#FFC6B7"/>
<path d="M497.284 633.24L492.933 633.742C486.767 634.453 482.362 639.869 483.09 645.838C483.819 651.807 489.408 656.07 495.574 655.358L499.925 654.857C506.091 654.145 510.497 648.73 509.768 642.76C509.038 636.791 503.45 632.529 497.284 633.24ZM538.058 577.37C513.453 580.295 494.965 601.265 495.107 626.089L496.724 666.303C498.09 679.654 507.665 688.787 519.96 689.301C532.028 689.805 539.554 689.705 555.075 689.739C570.596 689.773 582.33 682.958 582.33 682.958C595.515 681.39 604.935 669.41 603.37 656.201C603.235 655.064 603.02 653.936 602.725 652.83L592.474 614.346C586.037 590.178 562.85 574.423 538.058 577.37Z" fill="#FFC6B7"/>
<path d="M528.012 625.249C533.855 628.812 534.447 634.958 534.559 635.896L535.761 645.994C536.226 649.902 533.425 653.445 529.504 653.909L522.051 654.791C514.014 655.742 506.726 650.02 505.772 642.01C505.486 639.605 503.908 625.361 503.908 625.361C503.908 625.361 520.57 620.712 528.012 625.249ZM542.983 622.811C538.58 628.363 538.596 631.73 538.692 634.241C538.817 637.526 539.716 645.026 539.716 645.026C540.217 649.21 544.047 652.198 548.269 651.701L555.644 650.833C563.94 649.856 569.867 642.402 568.883 634.183C568.5 630.98 566.412 617.716 566.412 617.716C566.412 617.716 547.169 617.53 542.983 622.811Z" fill="white"/>
<mask id="mask4_1_10014" style="mask-type:alpha" maskUnits="userSpaceOnUse" x="503" y="617" width="66" height="38">
<path d="M528.012 625.249C533.855 628.812 534.447 634.958 534.559 635.896L535.761 645.994C536.226 649.902 533.425 653.445 529.504 653.909L522.051 654.791C514.014 655.742 506.726 650.02 505.772 642.01C505.486 639.605 503.908 625.361 503.908 625.361C503.908 625.361 520.57 620.712 528.012 625.249ZM542.983 622.81C538.58 628.363 538.596 631.73 538.692 634.241C538.817 637.526 539.716 645.026 539.716 645.026C540.217 649.21 544.047 652.198 548.269 651.701L555.644 650.833C563.94 649.856 569.867 642.402 568.883 634.183C568.5 630.98 566.412 617.716 566.412 617.716C566.412 617.716 547.169 617.53 542.983 622.81Z" fill="white"/>
</mask>
<g mask="url(#mask4_1_10014)">
<path d="M513.49 637.474C513.993 641.303 517.147 643.779 520.71 643.343C524.272 642.908 526.77 639.565 526.392 635.899C526.014 632.233 525.351 626 525.351 626L512.271 626.938C512.271 626.938 512.987 633.644 513.49 637.474ZM542.683 635.372C543.05 639.701 546.341 641.677 549.903 641.242C553.466 640.807 555.924 637.232 555.585 633.798C555.238 630.278 554.905 625.394 554.905 625.394L542.262 626.438C542.262 626.438 542.316 631.044 542.683 635.372Z" fill="#3D3D3D"/>
</g>
<mask id="mask5_1_10014" style="mask-type:alpha" maskUnits="userSpaceOnUse" x="503" y="617" width="66" height="38">
<path d="M528.012 625.249C533.855 628.812 534.447 634.958 534.559 635.896L535.761 645.994C536.226 649.902 533.425 653.445 529.504 653.909L522.051 654.791C514.014 655.742 506.726 650.02 505.772 642.01C505.486 639.605 503.908 625.361 503.908 625.361C503.908 625.361 520.57 620.712 528.012 625.249ZM542.983 622.81C538.58 628.363 538.596 631.73 538.692 634.241C538.817 637.526 539.716 645.026 539.716 645.026C540.217 649.21 544.047 652.198 548.269 651.701L555.644 650.833C563.94 649.856 569.867 642.402 568.883 634.183C568.5 630.98 566.412 617.716 566.412 617.716C566.412 617.716 547.169 617.53 542.983 622.81Z" fill="white"/>
</mask>
<g mask="url(#mask5_1_10014)">
<path d="M500.253 622.222L501.373 638.726L572.624 631.974L570.465 614.165L500.253 622.222Z" fill="#A570FF"/>
</g>
<path d="M543.382 683.179C543.71 680.848 543.745 678.437 543.452 675.99C541.613 660.616 527.552 649.633 512.045 651.459C507.906 651.946 504.79 653.372 502.456 655.124C497.047 659.183 543.13 684.971 543.382 683.179Z" fill="#FFC6B7"/>
<path d="M532.07 666.72C526.792 658.816 521.503 655.983 516.54 659.299C515.634 659.904 515.382 661.143 515.978 662.064C516.574 662.986 517.791 663.242 518.696 662.636C521.328 660.878 524.591 662.627 528.823 668.963C529.432 669.876 530.653 670.113 531.549 669.494C532.445 668.874 532.679 667.633 532.07 666.72ZM539.886 662.931C536.582 663.315 533.589 661.026 533.2 657.818C532.811 654.61 537.873 646.329 537.873 646.329L538.706 647.189C540.555 649.137 544.86 653.913 545.165 656.428C545.554 659.636 543.19 662.547 539.886 662.931Z" fill="#EE9583"/>
<path d="M626.539 704.583C615.146 663.401 604.733 574.721 547.672 574.697C546.893 574.697 546.248 575.07 545.725 575.775C537.889 586.327 557.147 671.251 559.796 692.959C560.116 695.58 562.423 697.065 565.048 697.345C583.045 699.262 612.33 703.653 626.539 704.583ZM526.184 578.076C508.403 583.272 495.054 598.775 493.233 622.554L520.179 619.335C539.785 617.013 545.513 600.904 547.123 580.905L552.385 575.332C544.119 574.243 533.78 575.856 526.184 578.076Z" fill="#A570FF"/>
</g>
</g>
<mask id="mask6_1_10014" style="mask-type:alpha" maskUnits="userSpaceOnUse" x="320" y="627" width="374" height="328">
<path d="M685.416 780.17C636.25 745.875 553.5 688 480.779 636.975C466.587 627.017 457.335 622.173 435.74 634.58C398.82 655.792 365 676.001 327.753 700.068C321.064 704.39 317.416 714.272 324.859 728.109C354.25 782.75 398.75 861.25 443.68 938.825C451.942 953.089 473.091 960.742 492.817 947.202C539 915.5 640 853 682.254 820.88C695.879 810.522 697.837 788.835 685.416 780.17Z" fill="white"/>
</mask>
<g mask="url(#mask6_1_10014)">
<mask id="mask7_1_10014" style="mask-type:luminance" maskUnits="userSpaceOnUse" x="-4" y="-24" width="1920" height="1080">
<path d="M1916 -23.5H-4V1055.5H1916V-23.5Z" fill="white"/>
</mask>
<g mask="url(#mask7_1_10014)">
<path d="M419.111 650.481C406.358 654.625 397.645 663.043 399.667 669.267C401.69 675.492 413.686 677.181 426.44 673.037C439.193 668.893 447.906 660.475 445.883 654.251C443.861 648.027 431.864 646.337 419.111 650.481Z" fill="#E6A000"/>
<path d="M436.946 645.814C427.193 643.708 412.415 647.822 403.939 655.002C395.464 662.182 396.5 669.71 406.254 671.816C416.007 673.922 430.785 669.809 439.261 662.628C447.736 655.448 446.7 647.92 436.946 645.814Z" fill="#FFC700"/>
<path d="M409.96 653.133C408.835 653.844 407.783 654.608 406.827 655.419C405.006 656.961 403.706 658.523 402.915 660.023C402.75 660.336 403.113 660.379 403.567 660.479C408.168 661.487 426.353 665.412 428.835 665.936C429.174 666.008 429.763 666.149 430.638 665.748C432.929 664.696 434.886 663.313 436.613 661.85C437.617 661 438.462 660.144 439.151 659.296C439.293 659.121 439.567 658.845 438.541 658.624C434.111 657.667 417.814 654.186 411.631 652.851C410.814 652.674 410.335 652.896 409.96 653.133ZM434.661 647.671C429.277 646.508 422.077 647.593 415.741 650.18C415.291 650.364 414.159 650.949 415.491 651.262C416.823 651.575 436.984 655.836 439.378 656.353C440.781 656.656 441.103 655.915 441.173 655.682C442.284 651.961 440.05 648.835 434.661 647.671Z" fill="#FFE700"/>
<path d="M394.169 695.811C378.419 703.836 369.129 717.217 373.437 725.672C377.746 734.128 394.031 734.477 409.781 726.452C425.531 718.427 434.821 705.047 430.512 696.591C426.204 688.136 409.918 687.786 394.169 695.811Z" fill="#E6A000"/>
<path d="M416.883 686.267C403.449 684.948 385.018 693.274 375.716 704.864C366.414 716.455 369.763 726.921 383.196 728.241C396.63 729.56 415.061 721.234 424.363 709.644C433.665 698.053 430.316 687.587 416.883 686.267Z" fill="#FFC700"/>
<path d="M383.174 701.199C381.877 702.396 380.689 703.655 379.639 704.963C377.641 707.453 376.334 709.882 375.685 712.136C375.549 712.607 376.039 712.607 376.666 712.67C383.006 713.313 408.052 715.772 411.466 716.092C411.933 716.135 412.748 716.235 413.798 715.519C416.546 713.643 418.767 711.355 420.662 708.994C421.763 707.621 422.654 706.267 423.341 704.951C423.483 704.68 423.771 704.244 422.359 704.105C416.258 703.506 393.822 701.353 385.307 700.517C384.181 700.406 383.607 700.8 383.174 701.199ZM414.354 689.281C406.938 688.552 397.717 691.309 390.031 696.042C389.485 696.379 388.145 697.398 389.986 697.614C391.826 697.831 419.569 700.429 422.867 700.753C424.799 700.943 425.029 699.84 425.06 699.499C425.548 694.05 421.776 690.01 414.354 689.281Z" fill="#FFE700"/>
<path d="M402.539 749.219C381.315 761.972 370.054 782.264 377.409 794.505C384.764 806.745 407.967 806.329 429.191 793.576C450.415 780.824 461.676 760.531 454.321 748.291C446.967 736.05 423.763 736.466 402.539 749.219Z" fill="#E6A000"/>
<path d="M433.525 734.003C414.235 732.823 389.243 746.174 377.704 763.824C366.165 781.473 372.448 796.737 391.738 797.918C411.029 799.098 436.021 785.747 447.56 768.098C459.099 750.448 452.815 735.184 433.525 734.003Z" fill="#FFC700"/>
<path d="M387.773 757.984C386.103 759.826 384.597 761.753 383.295 763.745C380.816 767.536 379.312 771.198 378.717 774.565C378.593 775.268 379.289 775.239 380.189 775.297C389.296 775.884 425.261 778.082 430.162 778.358C430.832 778.396 432.005 778.497 433.393 777.379C437.028 774.452 439.852 770.945 442.203 767.35C443.569 765.259 444.639 763.209 445.424 761.226C445.586 760.817 445.933 760.157 443.905 760.033C435.143 759.497 402.933 757.602 390.706 756.854C389.09 756.755 388.33 757.37 387.773 757.984ZM430.368 738.598C419.719 737.947 407.01 742.546 396.771 749.976C396.044 750.504 394.287 752.086 396.936 752.3C399.584 752.514 439.403 754.764 444.139 755.054C446.914 755.224 447.081 753.581 447.075 753.075C446.975 745.001 441.025 739.251 430.368 738.598Z" fill="#FFE700"/>
<path d="M476.352 780.641C453.925 796.345 444.248 821.281 454.758 836.29C465.267 851.299 492.009 850.735 514.436 835.031C536.863 819.327 546.54 794.391 536.03 779.382C525.521 764.374 498.779 764.938 476.352 780.641Z" fill="#E6A000"/>
<path d="M509.546 761.374C487.064 759.97 460.382 776.416 449.949 798.109C439.517 819.801 449.286 838.524 471.768 839.929C494.25 841.333 520.932 824.886 531.365 803.194C541.797 781.502 532.028 762.778 509.546 761.374Z" fill="#FFC700"/>
<path d="M460.624 790.918C458.997 793.182 457.574 795.551 456.396 798C454.155 802.659 453.019 807.157 452.885 811.292C452.856 812.155 453.657 812.118 454.706 812.187C465.325 812.886 507.241 815.502 512.949 815.83C513.729 815.874 515.101 815.995 516.521 814.62C520.241 811.018 522.927 806.706 525.052 802.288C526.288 799.719 527.186 797.2 527.768 794.763C527.888 794.261 528.18 793.45 525.816 793.303C515.605 792.665 478.078 790.413 463.827 789.523C461.944 789.405 461.167 790.162 460.624 790.918ZM506.653 767.022C494.242 766.246 480.314 771.921 469.705 781.066C468.951 781.716 467.181 783.662 470.276 783.918C473.372 784.175 519.75 786.845 525.269 787.19C528.503 787.392 528.426 785.375 528.335 784.754C526.894 774.843 519.074 767.798 506.653 767.022Z" fill="#FFE700"/>
<path d="M586.924 783.535C560.118 802.304 549.784 833.866 563.861 853.97C577.938 874.074 611.131 875.158 637.936 856.389C664.742 837.619 675.076 806.057 660.999 785.953C646.922 765.849 613.729 764.766 586.924 783.535Z" fill="#E6A000"/>
<path d="M626.811 761.283C598.778 757.945 566.735 777.386 555.242 804.705C543.748 832.025 557.156 856.878 585.189 860.216C613.223 863.555 645.266 844.114 656.759 816.794C668.253 789.474 654.845 764.621 626.811 761.283Z" fill="#FFC700"/>
<path d="M568.019 796.138C566.151 798.953 564.543 801.918 563.246 805.001C560.777 810.87 559.67 816.604 559.783 821.937C559.807 823.05 560.799 823.057 562.108 823.217C575.351 824.841 627.616 831.061 634.731 831.871C635.704 831.982 637.417 832.231 639.088 830.55C643.466 826.149 646.513 820.76 648.854 815.195C650.215 811.96 651.161 808.766 651.718 805.658C651.833 805.017 652.142 803.989 649.194 803.638C636.462 802.122 589.675 796.669 571.905 794.553C569.557 794.273 568.643 795.198 568.019 796.138ZM623.599 768.384C608.124 766.541 591.2 772.929 578.637 784.025C577.744 784.813 575.676 787.208 579.54 787.749C583.405 788.291 641.218 794.883 648.1 795.703C652.133 796.183 651.9 793.573 651.745 792.764C649.283 779.861 639.088 770.228 623.599 768.384Z" fill="#FFE700"/>
</g>
</g>
<path d="M435.74 634.58C398.82 655.792 365 676 327.753 700.068C321.064 704.39 317.416 714.271 324.859 728.108C354.25 782.75 398.75 861.25 443.68 938.825C451.942 953.088 473.091 960.742 492.817 947.201C539 915.5 640 853 682.254 820.88" stroke="#9DEEC7" stroke-width="6.5"/>
</g>
<mask id="mask8_1_10014" style="mask-type:luminance" maskUnits="userSpaceOnUse" x="56" y="-44" width="1920" height="1080">
<path d="M1976 -43.5H56V1035.5H1976V-43.5Z" fill="white"/>
</mask>
<g mask="url(#mask8_1_10014)">
<path d="M225.091 342.564C225.777 327.418 194.618 328.211 177.527 346.202" stroke="#CC348D" stroke-width="23" stroke-miterlimit="10" stroke-linecap="round"/>
<path d="M209.944 341.878C209.565 350.244 216.04 357.332 224.405 357.711C232.77 358.09 239.859 351.616 240.238 343.25C240.616 334.885 234.143 327.796 225.777 327.417C217.412 327.038 210.323 333.513 209.944 341.878Z" fill="#C6775C"/>
<path d="M191.34 373.853C194.739 383.145 210.04 386.087 225.515 380.425C240.99 374.764 250.778 362.641 247.379 353.35C243.98 344.059 227.832 328.367 208.99 335.26C190.012 342.204 187.941 364.562 191.34 373.853Z" fill="#5EC6FF"/>
<path d="M191.34 373.853C194.739 383.145 210.039 386.087 225.515 380.425C240.99 374.764 250.778 362.641 247.379 353.35C243.98 344.059 228.679 341.116 213.204 346.778C197.729 352.439 187.941 364.562 191.34 373.853Z" fill="#0084C2"/>
<path d="M213.204 346.778C221.983 343.566 230.702 343.126 237.228 345.04C237.366 350.78 239.997 355.872 240.717 357.357C240.77 357.47 240.832 357.577 240.882 357.692C243.471 363.682 240.715 370.638 234.724 373.227C230.385 375.103 225.547 374.163 222.221 371.23C220.849 373.324 218.875 375.056 216.405 376.124C209.684 379.029 201.88 375.936 198.974 369.215C197.562 365.949 195.458 362.345 194.09 360.432C197.914 354.957 204.696 349.891 213.204 346.778Z" fill="#FFCC76"/>
<mask id="mask9_1_10014" style="mask-type:alpha" maskUnits="userSpaceOnUse" x="130" y="343" width="208" height="302">
<path d="M191.34 373.853C193.884 380.808 24.3928 677.528 239.276 640.91C454.159 604.292 250.778 362.641 247.379 353.35C243.98 344.059 228.679 341.116 213.204 346.778C197.729 352.439 187.941 364.562 191.34 373.853Z" fill="#AFD5E0"/>
</mask>
<g mask="url(#mask9_1_10014)">
<path d="M167.026 269.528C182.358 274.562 204.329 295.921 195.571 301.318C186.813 306.715 174.792 277.392 151.217 285.73M170.768 293.043C182.711 298.342 191.846 311.785 204.812 331.236M169.252 299.023C174.726 303.73 177.575 306.109 184.405 315.192C191.235 324.276 199.635 332.942 204.025 344.944" stroke="#FFCC76" stroke-width="4.148" stroke-miterlimit="10" stroke-linecap="round"/>
</g>
<path d="M210.656 419.625C205.322 394.267 180.441 378.034 155.082 383.369C129.724 388.703 113.49 413.583 118.825 438.941C124.159 464.3 149.039 480.533 174.398 475.199C199.757 469.865 215.99 444.984 210.656 419.625Z" fill="#0084C2"/>
<mask id="mask10_1_10014" style="mask-type:alpha" maskUnits="userSpaceOnUse" x="117" y="382" width="95" height="95">
<path d="M210.656 419.625C205.322 394.267 180.441 378.034 155.083 383.369C129.724 388.703 113.491 413.583 118.825 438.941C124.159 464.3 149.04 480.533 174.398 475.199C199.757 469.865 215.99 444.984 210.656 419.625Z" fill="#0084C2"/>
</mask>
<g mask="url(#mask10_1_10014)">
<path d="M119.521 463.801C136.753 463.308 153.901 461.728 170.056 446.135L176.988 446.979C157.549 466.992 136.75 468.82 125.246 468.579C123.219 467.141 121.303 465.546 119.521 463.801Z" fill="#006AAD"/>
<path d="M185.741 375.712C182.215 359.469 166.237 349.119 149.973 352.54C133.633 355.978 123.172 372.01 126.609 388.35L134.11 424.007C134.964 428.063 137.642 431.506 141.385 433.289C156.8 440.635 168.913 445.788 173.489 447.695C174.698 448.199 176.084 447.94 177.009 447.012C185.675 438.321 191.125 428.104 193.604 422.788C194.697 420.446 194.881 417.813 194.333 415.287L185.741 375.712Z" fill="#C6775C"/>
<path d="M184.309 417.536L182.19 408.982M161.143 422.938L159.834 416.705" stroke="white" stroke-width="20.813" stroke-linecap="round"/>
<path d="M162.945 420.403C162.945 420.403 163.911 422.957 163.968 425.488M183.29 414.328C183.29 414.328 183.618 417.634 184.874 419.97" stroke="#3D3D3D" stroke-width="9.4" stroke-linecap="round"/>
<path d="M188.557 418.044C186.794 418.82 185.804 421.383 186.708 423.112C190.432 430.597 196.27 415.837 188.557 418.044ZM168.702 424.606C166.629 425.077 165.184 426.983 165.88 429.204C168.271 434.023 172.432 425.414 168.702 424.606Z" fill="white"/>
<path d="M181.621 406.415C180.854 403.024 177.485 400.897 174.094 401.664C170.704 402.431 168.576 405.801 169.343 409.192C170.109 412.582 173.479 414.709 176.87 413.942C180.26 413.176 182.388 409.806 181.621 406.415Z" fill="#C6775C"/>
</g>
<path d="M136.872 384.867C154.628 389.898 174.652 385.118 177.515 377.008" stroke="#3D3D3D" stroke-width="46.998" stroke-linecap="round"/>
<path d="M187.104 385.485L186.312 383.683C185.022 380.748 181.596 379.415 178.661 380.705C175.726 381.995 174.392 385.42 175.682 388.355L176.474 390.157C177.764 393.092 181.19 394.425 184.125 393.135C187.06 391.845 188.394 388.42 187.104 385.485Z" fill="white"/>
<path d="M199.038 322.816C199.986 294.39 177.71 270.579 149.284 269.631C120.858 268.684 97.0471 290.961 96.0997 319.387C95.1522 347.812 117.428 371.623 145.854 372.57C174.28 373.517 198.091 351.242 199.038 322.816Z" fill="#CC348D"/>
<path d="M117.959 345.737C117.959 345.737 109.399 352.124 110.901 357.19C114.518 369.4 145.214 373.471 145.214 373.471" stroke="#CC348D" stroke-width="23" stroke-linecap="round" stroke-linejoin="round"/>
<mask id="mask11_1_10014" style="mask-type:alpha" maskUnits="userSpaceOnUse" x="96" y="269" width="104" height="104">
<path d="M199.038 322.816C199.986 294.39 177.71 270.579 149.284 269.631C120.858 268.684 97.0471 290.961 96.0997 319.387C95.1522 347.812 117.428 371.623 145.854 372.57C174.28 373.517 198.091 351.242 199.038 322.816Z" fill="#CC348D"/>
</mask>
<g mask="url(#mask11_1_10014)">
<path d="M212.46 306.233C209.447 281.468 193.336 259.944 151.532 258.679C109.728 257.415 70.9565 273.352 78.8088 298.439C84.9233 317.974 106.415 336.2 152.911 333.362C197.263 330.655 212.778 308.846 212.46 306.233Z" fill="#0084C2"/>
<path d="M212.46 306.233C209.447 281.468 193.336 259.944 151.532 258.679C109.728 257.415 70.9565 273.352 78.8088 298.439C84.9233 317.974 106.415 336.2 152.911 333.362C197.263 330.655 212.778 308.846 212.46 306.233Z" stroke="#00448E" stroke-width="11"/>
</g>
<path d="M152.673 282.394C152.673 282.394 182.699 261.635 190.477 250.576C184.997 239.686 168.087 224.298 158.313 214.569" stroke="#0084C2" stroke-width="20" stroke-linecap="round" stroke-linejoin="round"/>
<path d="M136.694 208.81C137.096 202.819 139.534 195.378 142.384 191.449" stroke="#CC348D" stroke-width="14" stroke-linecap="round" stroke-linejoin="round"/>
<path d="M152.423 282.388C152.423 282.388 208.198 282.455 252.564 266.011" stroke="#0084C2" stroke-width="20" stroke-linecap="round" stroke-linejoin="round"/>
<path d="M271.246 250.889C273.347 253.594 278.323 261.229 280.877 267.155" stroke="#CC348D" stroke-width="14" stroke-linecap="round" stroke-linejoin="round"/>
<path d="M115.921 391.113L173.402 374.378M122.653 400.298L173.537 374.835" stroke="#DAAF83" stroke-width="5" stroke-linecap="round" stroke-linejoin="round"/>
<path d="M147.299 382.072L158.3 386.344" stroke="#C6775C" stroke-width="9" stroke-linecap="round" stroke-linejoin="round"/>
<path d="M146.7 386.725L141.18 384.499C136.808 382.737 134.692 377.763 136.455 373.392L138.425 368.508C140.188 364.136 145.16 362.021 149.532 363.784L155.052 366.011C159.424 367.774 161.539 372.746 159.776 377.118L157.807 382C156.044 386.372 151.071 388.487 146.7 386.725Z" fill="#C6775C"/>
</g>
<mask id="mask12_1_10014" style="mask-type:luminance" maskUnits="userSpaceOnUse" x="-4" y="-24" width="1920" height="1080">
<path d="M1916 -23.5H-4V1055.5H1916V-23.5Z" fill="white"/>
</mask>
<g mask="url(#mask12_1_10014)">
<path d="M461.536 553.182C458.21 546.953 460.441 540.529 463.363 534.409M475.38 539.762C469.008 542.901 464.209 548.153 462.423 553.712M480.476 551.633C470.694 553.663 466.208 560.81 464.026 564.282M470.573 571.944C470.573 571.944 462.071 566.374 451.974 564.932" stroke="#FFC6B7" stroke-width="12" stroke-linecap="round" stroke-linejoin="round"/>
<path d="M430.524 555.411C440.823 554.295 445.683 553.96 454.712 554.188" stroke="#FFC6B7" stroke-width="36" stroke-linecap="round" stroke-linejoin="round"/>
<path d="M412.54 557.991C421.253 555.815 432.667 554.991 441.688 554.577" stroke="#33E3FF" stroke-width="36" stroke-linecap="round" stroke-linejoin="round"/>
<path d="M303.54 430.09C296.844 399.445 339.175 367.695 365.702 385.336C369.097 386.586 404.457 411.733 404.457 411.733C417.114 420.605 319.507 506.974 314.341 481.423C314.341 481.423 304.758 432.918 303.54 430.09Z" fill="#33E3FF"/>
<path d="M263.663 551.936L259.285 555.275" stroke="#393939" stroke-width="27" stroke-linecap="round"/>
<path d="M333.168 611.917L341.393 615.721" stroke="#393939" stroke-width="23" stroke-linecap="round" stroke-linejoin="round"/>
<path d="M379.894 393.008C394.776 384.041 414.867 381.807 432.075 391.17L460.315 406.538C473.458 413.689 482.807 426.239 485.897 440.88L493.838 478.518C498.028 498.371 492.578 518.079 473.58 530.632C454.581 543.185 422.036 560.008 404.002 591.842C397.093 604.039 361.017 603.401 349.061 598.936L310.38 589.521C294.498 586.005 282.566 572.851 280.609 556.704L274.342 504.977C274.917 498.66 281.335 485.688 285.888 478.887C311.657 440.396 342.682 415.427 379.894 393.008Z" fill="#FFC7B8"/>
<path d="M409.549 541.457C407.309 544.6 403.846 544.961 401.223 543.093C398.6 541.224 397.81 537.834 400.049 534.691C402.289 531.548 409.537 529.902 410.256 530.414C410.973 530.925 411.788 538.314 409.549 541.457Z" fill="#EE9583"/>
<path d="M428.149 518.495C435.503 513.031 447.761 513.242 454.18 518.942C459.483 523.651 458.906 530.528 452.831 535.041L443.727 541.805C436.373 547.268 424.115 547.057 417.696 541.356C412.393 536.648 412.969 529.771 419.044 525.258L428.149 518.495ZM395.305 498.478C402.631 493.035 413.996 493.905 420.46 500.401C426.699 506.672 426.038 515.863 418.966 521.116L410.638 527.302C403.312 532.745 391.945 531.874 385.482 525.379C379.242 519.107 379.906 509.917 386.977 504.664L395.305 498.478Z" fill="white"/>
<path d="M381.217 509.365C386.962 513.251 394.296 525.491 396.757 534.599L378.802 522.454C377.213 516.472 375.472 505.48 381.217 509.365Z" fill="#FFC7B8"/>
<path d="M387.008 527.68C388.231 527.772 389.149 528.838 389.059 530.06C388.891 532.318 389.118 534.492 389.961 536.494C390.795 538.474 392.291 540.422 394.875 542.16C395.892 542.845 396.162 544.224 395.477 545.241C394.793 546.259 393.412 546.53 392.395 545.845C389.152 543.663 387.066 541.059 385.868 538.219C384.681 535.401 384.426 532.483 384.629 529.731C384.721 528.508 385.786 527.589 387.008 527.68Z" fill="#EE9583"/>
<path d="M410.698 509.667C410.695 510.95 410.096 512.228 408.97 513.064C407.1 514.454 404.483 514.099 403.127 512.274C402.989 512.088 402.871 511.895 402.769 511.695L398.153 514.974C394.845 517.322 394.487 521.55 397.35 524.428C400.226 527.318 405.265 527.75 408.588 525.389L414.202 521.403C417.509 519.054 417.869 514.827 415.007 511.95C413.84 510.777 412.318 510.009 410.698 509.667ZM427.759 523.691C427.599 523.792 427.443 523.901 427.291 524.014L422.47 527.594C418.911 530.238 418.532 534.258 421.578 537.05C424.229 539.479 429.401 539.596 432.499 537.296L439.425 532.15C442.379 529.957 442.695 526.622 440.166 524.304C439.04 523.272 437.53 522.594 435.887 522.275C435.711 523.365 435.1 524.416 434.105 525.155C432.18 526.585 429.547 526.303 428.227 524.526C428.032 524.264 427.876 523.983 427.759 523.691Z" fill="#4B4B4B"/>
<mask id="mask13_1_10014" style="mask-type:alpha" maskUnits="userSpaceOnUse" x="274" y="385" width="222" height="217">
<path d="M379.894 393.008C394.776 384.041 414.867 381.807 432.075 391.17L460.315 406.538C473.458 413.689 482.807 426.239 485.897 440.88L493.838 478.518C498.028 498.371 492.578 518.079 473.58 530.632C454.581 543.185 422.036 560.008 404.002 591.842C397.093 604.039 361.017 603.401 349.061 598.936L310.38 589.521C294.498 586.005 282.566 572.851 280.609 556.704L274.342 504.977C274.917 498.66 281.335 485.688 285.888 478.887C311.657 440.396 342.682 415.427 379.894 393.008Z" fill="#FFC7B8"/>
</mask>
<g mask="url(#mask13_1_10014)">
<mask id="mask14_1_10014" style="mask-type:luminance" maskUnits="userSpaceOnUse" x="-77" y="-184" width="2039" height="1285">
<path d="M1847.61 -183.376L-76.3536 18.9729L37.3623 1100.2L1961.32 897.85L1847.61 -183.376Z" fill="white"/>
</mask>
<g mask="url(#mask14_1_10014)">
<path d="M363.221 451.91C357.825 454.035 352.22 450.599 350.705 444.237C349.189 437.876 352.336 430.996 357.732 428.87C363.129 426.745 368.733 430.181 370.249 436.543C371.764 442.904 368.617 449.784 363.221 451.91Z" fill="#FFC7B8"/>
<path d="M432.4 584.071C432.4 584.071 381.872 649.196 362.017 644.449L271.372 599.983C255.491 596.467 242.588 488.578 250.388 477.851L293.141 439.725L293.319 439.565L298.922 434.57L317.807 545.738L432.4 584.071Z" fill="#0084C2"/>
<path d="M293.352 444.123C298.935 437.557 323.208 417.242 323.208 417.242C322.949 418.045 322.7 418.855 322.462 419.67C322.17 420.675 321.894 421.689 321.633 422.712C310.186 467.606 328.633 529.513 330.67 532.359C348.566 557.356 433.52 575.481 438.814 573.638L423.206 590.898C395.999 595.982 330.265 575.942 315.934 560.89C303.435 547.766 292.628 467.876 293.352 444.123Z" fill="#33E3FF"/>
<path d="M390.441 474.962C396.815 470.233 405.339 469.586 412.353 473.3L479.143 508.658C483.865 511.158 484.673 517.568 480.654 521.087C475.993 525.167 461.683 536.256 459.537 537.618C456.976 539.244 455.861 542.138 456.171 544.831L477.246 557.091C493.877 545.201 521.585 502.969 517.378 482.963C517.378 482.963 514.225 412.97 501.302 405.927C501.302 405.927 409.169 359.052 393.11 370.53L363.182 387.524L362.025 388.181L362.329 481.32C362.403 485.467 365.467 488.954 369.571 489.562C370.206 489.656 390.441 474.962 390.441 474.962Z" fill="url(#paint0_linear_1_10014)"/>
</g>
</g>
<path d="M466.041 457.003C455.173 464.337 442.897 459.742 435.531 448.826C428.164 437.91 428.497 424.808 439.366 417.474C450.234 410.141 463.512 414.059 470.878 424.975C478.244 435.891 476.91 449.67 466.041 457.003ZM491.039 482.208C478.623 490.387 461.875 486.856 453.633 474.323C445.391 461.788 448.774 444.996 461.19 436.818C473.606 428.64 490.354 432.169 498.596 444.703C506.838 457.237 503.455 474.029 491.039 482.208Z" fill="#FF9500"/>
<path d="M294.84 484.468C298.974 493.571 305.904 494.915 309.938 493.5C315.393 492.306 319.505 485.693 318.826 477.171C317.453 459.921 310.576 444.226 305.209 433.744C300.36 424.271 289.395 421.896 282.599 425.132C275.846 428.348 269.869 436.335 275.068 445.819C281.178 456.964 290.707 475.365 294.84 484.468Z" fill="#33E3FF"/>
<path d="M270.5 430.509C275.17 421.577 284.995 418.112 295.402 423.264C304.574 427.805 309.028 438.114 303.898 447.509C299.219 456.081 289.348 459.82 279.287 454.482C268.738 448.888 265.83 439.441 270.5 430.509Z" fill="#FFC6B7"/>
<path d="M289.237 433.204C286.018 435.008 283.206 439.08 283.642 441.704" stroke="#EE9583" stroke-width="3.796" stroke-linecap="round"/>
<path d="M294.196 427.911C293.613 423.608 294.674 419.982 295.637 415.797M277.857 409.825C282.706 414.108 285.278 421.079 285.602 424.769M265.971 417.099C269.843 419.423 277.41 426.457 278.242 432.604M261.279 430.619C266.134 431.082 271.79 436.749 274.392 441.486" stroke="#FFC6B7" stroke-width="12" stroke-linecap="round" stroke-linejoin="round"/>
</g>
<mask id="mask15_1_10014" style="mask-type:luminance" maskUnits="userSpaceOnUse" x="56" y="-44" width="1920" height="1080">
<path d="M1976 -43.5H56V1035.5H1976V-43.5Z" fill="white"/>
</mask>
<g mask="url(#mask15_1_10014)">
<path d="M637.97 510.986C622.355 605.926 654.008 651.083 718.031 666.829C802.4 687.579 862.319 632.289 886.407 581.76C904.651 543.491 910.212 480.08 910.233 472.362C912.401 429.687 901.377 383.969 862.869 366.501C845.334 358.547 827.252 355.691 813.217 360.887C791.467 368.94 782.922 374.715 774.995 378.322C770.649 380.299 647.003 456.057 637.97 510.986ZM622.985 506.928C607.371 601.868 654.008 651.083 718.031 666.829C802.4 687.579 852.988 624.197 869.449 570.696C925.642 388.045 782.922 374.715 774.995 378.322C770.649 380.299 765.76 380.802 761.113 379.712C747.37 376.492 731.574 366.373 708.703 355.545C679.763 341.855 636.608 357.508 637.12 396.778C637.12 396.778 632.018 451.999 622.985 506.928Z" fill="#58CC02"/>
<path d="M746.743 540.051C705.616 573.393 646.708 576.519 601.023 546.722C555.338 516.926 534.239 461.617 547.867 410.339C550.701 399.666 563.117 394.919 572.386 400.964L745.307 513.748C754.576 519.793 755.302 533.111 746.743 540.051Z" fill="#58CC02"/>
<path d="M742.014 551.336C767.935 597.499 821.534 622.141 874.99 611.303C928.446 600.465 968.465 556.844 974.719 504.155C976.02 493.19 966.234 484.198 955.387 486.397L753.053 527.416C742.208 529.615 736.619 541.728 742.014 551.336Z" fill="#58CC02"/>
<path d="M683.452 653.929L679.304 626.235" stroke="#F49000" stroke-width="35" stroke-linecap="round" stroke-linejoin="round"/>
<path d="M804.059 698.683L830.792 690.059" stroke="#F49000" stroke-width="35" stroke-linecap="round" stroke-linejoin="round"/>
<mask id="mask16_1_10014" style="mask-type:alpha" maskUnits="userSpaceOnUse" x="619" y="349" width="292" height="323">
<path d="M622.985 506.928C607.371 601.869 654.008 651.083 718.031 666.829C802.401 687.579 852.989 624.197 869.449 570.696C925.643 388.045 783.06 375.069 775.088 378.581C770.717 380.507 765.821 380.951 761.185 379.805C747.478 376.419 731.872 366.232 709.217 354.897C680.638 340.598 636.666 356.027 637.74 395.304C637.74 395.304 632.019 451.999 622.985 506.928ZM637.97 510.986C622.356 605.926 654.008 651.083 718.031 666.829C802.401 687.579 862.319 632.289 886.407 581.76C904.651 543.491 910.105 474.179 910.105 474.179C912.71 431.78 901.872 385.702 863.36 367.778C845.823 359.616 827.744 356.275 813.569 361.308C791.6 369.108 783.06 375.069 775.088 378.581C770.717 380.507 647.003 456.057 637.97 510.986Z" fill="#58CC02"/>
</mask>
<g mask="url(#mask16_1_10014)">
<path d="M742.135 574.725C742.861 583.243 749.276 590.603 758.134 592.815C766.992 595.027 776.088 591.541 780.694 584.354C781.652 582.858 780.793 580.864 778.996 580.415L745.296 572.403C743.499 571.956 741.984 572.952 742.135 574.725ZM800.292 588.239C802.61 596.467 810.297 602.47 819.414 602.951C828.531 603.432 836.808 598.272 839.977 590.334C840.638 588.682 839.417 586.887 837.567 586.79L803.06 584.968C801.21 584.87 799.809 586.527 800.292 588.239ZM765.476 607.614C767 615.965 774.082 622.632 783.11 623.982C792.139 625.33 800.869 621.026 804.781 613.486C805.594 611.919 804.55 610.028 802.719 609.754L768.719 604.515C766.887 604.239 765.158 605.876 765.476 607.614ZM742.081 539.391C764.367 540.551 784.252 528.306 793.882 509.696C802.064 510.092 807.995 510.37 811.666 510.551C818.188 510.875 823.53 511.147 827.681 511.364C833.426 530.821 846.31 544.552 863.777 545.765C884.355 547.195 904.769 523.17 907.003 492.99C908.691 470.204 908.88 458.955 907.185 446.716C905.365 433.581 900.403 424.145 892.896 417.346C892.392 405.441 883.39 395.449 878.998 395.245C876.527 395.131 876.571 395.917 876.843 409.254C872.407 391.46 863.62 385.858 859.596 382.712C854.555 378.776 848.54 376.759 848.15 384.982C847.951 388.894 844.614 432.286 819.831 433.267C817.491 433.36 815.992 433.368 813.04 433.084C797.654 431.603 768.412 399.222 757.025 385.896C749.941 377.606 745.42 379.181 743.673 381.829C739.696 387.84 738.269 394.131 739.184 400.516L729.67 388.618C727.797 386.289 724.198 386.438 722.551 388.927C718.266 395.399 716.507 403.047 717.277 410.532C702.516 419.72 692.342 435.742 691.363 454.425L689.949 481.519C688.362 511.894 711.702 537.805 742.081 539.391Z" fill="#89E219"/>
</g>
<path d="M786.98 508.238C787.534 497.63 796.581 489.482 807.188 490.036C817.198 490.558 825.127 498.68 825.409 508.7L826.123 538.008C826.46 549.942 816.54 559.625 804.618 559.002C793.341 558.414 784.677 548.794 785.265 537.517L786.98 508.238Z" fill="#F49000"/>
<path d="M793.801 510.19C793.537 501.986 800.346 495.313 808.542 495.74C815.817 496.12 821.587 502.008 821.822 509.288L822.621 537.478C822.885 545.682 816.076 552.355 807.88 551.927C800.605 551.547 794.835 545.66 794.601 538.38L793.801 510.19Z" fill="#B16900"/>
<path d="M794.051 521.427C794.219 521.432 794.388 521.438 794.556 521.448C807.191 522.108 816.901 532.886 816.241 545.521C816.158 547.105 815.915 548.642 815.531 550.119C813.289 551.397 810.662 552.073 807.875 551.927C800.601 551.548 794.83 545.66 794.596 538.379L794.051 521.427Z" fill="#FFB8D1"/>
<path d="M838.394 511.13C838.531 511.871 838.097 512.59 837.39 512.852L827.194 515.924L785.903 509.845C784.978 509.692 784.375 508.783 784.656 507.888C788.35 496.097 799.656 487.699 812.566 488.373C825.632 489.054 836.113 498.806 838.394 511.13Z" fill="#FFC200"/>
<path d="M808.821 499.921C806.728 500.74 804.426 499.634 803.653 497.553C802.88 495.472 803.893 493.013 806.021 492.385C810.177 491.159 815.302 491.193 819.411 492.991C821.445 493.881 822.422 496.204 821.564 498.251C820.706 500.298 818.365 501.229 816.304 500.405C814.536 499.698 810.914 499.102 808.821 499.921Z" fill="#FFDE00"/>
<path d="M708.453 479.308C707.35 500.44 723.586 518.464 744.717 519.567C765.849 520.67 783.873 504.435 784.976 483.304L786.1 461.782C787.204 440.65 770.967 422.626 749.836 421.523C728.705 420.42 710.681 436.655 709.578 457.786L708.453 479.308ZM838 486.072C836.896 507.203 849.137 525.02 865.342 525.865C881.544 526.711 895.576 510.268 896.679 489.136L897.803 467.614C898.907 446.483 886.664 428.667 870.462 427.822C854.257 426.976 840.227 443.419 839.124 464.551L838 486.072Z" fill="white"/>
<path d="M872.405 485.924C871.798 495.817 864.959 503.454 857.127 502.976C849.304 502.488 843.449 494.07 844.065 484.176L845.243 465.06C857.847 471.342 865.416 454.371 856.832 448.227C857.491 447.954 859.4 447.793 860.521 448.007C870.181 449.785 874.262 459.334 873.316 471.179C872.557 480.673 872.405 485.924 872.405 485.924ZM777.514 480.444C777.338 490.365 769.15 498.259 759.229 498.083C749.318 497.906 741.424 489.718 741.6 479.807L741.938 460.655C755.525 465.812 760.925 450.803 756.654 443.306C757.813 443.099 759.003 442.993 760.223 443.017C762.133 443.046 763.965 443.386 765.688 443.967C775.559 447.894 777.868 458.852 777.775 465.682C777.682 472.513 777.514 480.444 777.514 480.444Z" fill="#4B4B4B"/>
<path d="M870.198 420.473C896.189 422.214 900.505 435.672 901.576 443.769C903.833 460.832 899.296 442.792 899.296 442.792C882.406 417.269 851.342 418.515 834.241 455.365C829.883 434.997 834.617 456.535 836.759 441.887C838.901 427.239 851.679 419.232 870.198 420.473ZM890.6 528.03C884.518 531.009 882.291 535.271 867.735 538.198C853.18 541.124 856.822 541.158 854.574 541.524C858.312 539.4 884.269 531.261 890.6 528.03ZM749.341 416.983C780.289 416.513 790.608 437.246 790.164 454.478C789.719 471.709 789.8 455.733 789.8 455.733C781.848 406.81 729.352 407.592 708.395 438.799C708.476 430.751 705.748 460.424 707.27 445.629C708.792 430.835 727.289 417.317 749.341 416.983ZM754.888 532.082C767.511 530.139 771.507 529.367 747.601 533.976C728.351 537.686 715.754 528.917 706.626 517.815C712.229 524.186 732.529 533.577 754.888 532.082Z" fill="#8EDF00"/>
</g>
<mask id="mask17_1_10014" style="mask-type:luminance" maskUnits="userSpaceOnUse" x="56" y="-44" width="1920" height="1080">
<path d="M1976 -43.5H56V1035.5H1976V-43.5Z" fill="white"/>
</mask>
<g mask="url(#mask17_1_10014)">
<path d="M751.225 108.315C744.94 108.526 740.017 113.845 740.23 120.198C740.442 126.551 745.709 131.531 751.994 131.321C758.279 131.111 763.202 125.791 762.99 119.438C762.778 113.085 757.51 108.105 751.225 108.315Z" fill="#FFCBA3"/>
<path d="M737.394 116.516C744.483 112.307 749.778 114.951 752.494 118.846C755.209 122.742 755.578 129.687 748.979 133.94C742.38 138.192 728.224 150.549 719.073 160.324C715.562 164.075 707.992 165.368 702.834 159.96C697.676 154.552 700.249 147.214 703.463 143.305C709.961 135.4 730.304 120.725 737.394 116.516Z" fill="#FFB100"/>
<path d="M763.717 234.819C764.036 244.376 772.043 251.865 781.6 251.546C791.156 251.226 798.645 243.22 798.326 233.663C798.007 224.106 790 216.616 780.443 216.936C770.887 217.255 763.397 225.263 763.717 234.819ZM785.849 220.912C798.953 208.531 799.54 187.868 787.158 174.763L763.627 148.841C751.246 135.735 730.584 135.149 717.479 147.531C703.583 160.66 703.891 182.865 718.146 195.603L719.162 196.166C723.142 199.723 726.815 203.61 730.14 207.786L737.892 217.52C749.801 232.474 771.953 234.041 785.849 220.912Z" fill="#3D3D3D"/>
<path d="M770.109 139.938C768.036 140.913 767.155 143.4 768.14 145.495C769.125 147.589 775.205 150.777 775.205 150.777C775.205 150.777 776.628 144.06 775.643 141.965C774.658 139.871 772.181 138.964 770.109 139.938Z" fill="#E89665"/>
<path d="M719.26 143.273C740.377 130.122 768.157 136.58 781.309 157.697C794.46 178.815 788.002 206.594 766.886 219.745L738.273 237.565L690.647 161.093L719.26 143.273Z" fill="#FFCBA3"/>
<path d="M751.12 161.658C772.167 188.435 775.074 252.145 706.926 277.383L669.819 221.094L634.174 160.326C686.035 129.503 724.403 127.667 751.12 161.658Z" fill="#FFB100"/>
<path d="M714.292 157.507C712.266 159.643 712.618 163.266 715.079 165.598C717.539 167.93 721.174 168.088 723.2 165.951C725.226 163.814 724.874 160.192 722.413 157.86C719.953 155.528 716.318 155.37 714.292 157.507ZM746.371 148.456C722.047 162.308 699.845 141.321 708.673 136.736C712.641 136.845 718.274 138.628 723.067 140.04C732.742 138.698 741.192 143.363 746.371 148.456ZM762.576 178.735C744.232 188.487 718.939 158.865 738.612 146.818C743.741 149.712 757.639 161.379 762.576 178.735Z" fill="white"/>
<path d="M685.283 210.479C705.438 242.842 716.578 271.422 707.347 277.17C698.117 282.919 676.302 260.467 656.146 228.104C635.991 195.741 625.129 165.722 634.359 159.974C643.59 154.225 665.128 178.116 685.283 210.479ZM723.017 140.038C706.223 141.5 683.312 150.437 667.365 159.184C664.792 160.595 661.664 160.466 659.194 158.879C656.256 156.991 653.129 153.689 648.65 152.197C678.711 136.704 703.097 132.581 723.017 140.038ZM758.968 175.414C769.879 202.115 766.511 243.188 727.105 267.63C730.668 252.741 715.502 223.872 709.36 210.261C707.655 206.482 709.105 202.027 712.718 199.993C722.528 194.471 743.944 181.7 758.968 175.414Z" fill="#FF9500"/>
<path d="M729.523 138.45C737.232 134.546 766.249 134.577 780.736 157.989C793.827 179.143 787.43 206.886 766.313 220.037C766.313 220.037 764.157 221.695 762.21 222.78C774.164 169.332 737.041 143.807 724.396 140.477C725.638 139.436 729.523 138.45 729.523 138.45Z" fill="#FFCBA3"/>
<path d="M785.305 165.317C791.507 181.858 787.786 201.312 775.076 213.683C770.468 195.697 772.372 175.148 785.305 165.317Z" fill="#9F9F9F"/>
<path d="M755.807 154.94L754.616 158.266C753.494 161.4 755.201 164.794 758.429 165.845C761.657 166.897 765.183 165.207 766.306 162.073L767.497 158.747C768.62 155.612 766.913 152.219 763.685 151.168C760.457 150.116 756.93 151.805 755.807 154.94Z" fill="#B23232"/>
<mask id="mask18_1_10014" style="mask-type:alpha" maskUnits="userSpaceOnUse" x="754" y="150" width="14" height="17">
<path d="M755.807 154.94L754.616 158.266C753.493 161.4 755.2 164.794 758.428 165.845C761.656 166.897 765.183 165.207 766.305 162.073L767.497 158.747C768.619 155.612 766.912 152.219 763.684 151.167C760.456 150.116 756.929 151.805 755.807 154.94Z" fill="#B23232"/>
</mask>
<g mask="url(#mask18_1_10014)">
<path d="M761.483 160.523C759.052 160.754 757.063 162.296 756.147 164.383C756.813 165.336 757.764 166.106 758.935 166.548C762.029 167.719 765.489 166.16 766.659 163.064L766.85 162.561C765.522 161.138 763.57 160.324 761.483 160.523Z" fill="#F14C4C"/>
</g>
<mask id="mask19_1_10014" style="mask-type:alpha" maskUnits="userSpaceOnUse" x="724" y="136" width="64" height="87">
<path d="M729.523 138.45C737.232 134.546 766.249 134.577 780.736 157.989C793.827 179.143 787.43 206.886 766.313 220.037C766.313 220.037 764.157 221.695 762.21 222.78C774.164 169.332 737.041 143.807 724.396 140.477C725.638 139.436 729.523 138.45 729.523 138.45Z" fill="#FFCBA3"/>
</mask>
<g mask="url(#mask19_1_10014)">
<path d="M778.315 135.824C775.575 131.249 772.287 128.178 770.972 128.966C770.924 128.995 769.25 130.024 769.202 130.052C767.948 130.803 769.276 135.254 771.915 139.663C774.555 144.07 777.852 147.344 779.106 146.593C779.154 146.564 780.846 145.565 780.894 145.536C782.21 144.749 781.055 140.4 778.315 135.824ZM790.718 156.667C787.978 152.092 784.691 149.021 783.375 149.809C783.327 149.838 781.652 150.866 781.605 150.894C780.35 151.645 781.679 156.097 784.319 160.505C786.958 164.913 790.255 168.186 791.509 167.435C791.557 167.406 793.249 166.407 793.297 166.378C794.613 165.591 793.458 161.243 790.718 156.667Z" fill="white"/>
<path d="M788.891 154.71C787.579 152.519 786.004 151.047 785.374 151.425C785.351 151.439 784.149 152.081 784.127 152.095C783.526 152.454 784.163 154.588 785.427 156.699C786.691 158.81 788.27 160.378 788.871 160.018C788.894 160.005 790.104 159.377 790.127 159.363C788.078 156.974 787.388 154.406 788.891 154.71ZM779.215 138.391C777.903 136.199 776.328 134.728 775.697 135.105C775.674 135.119 774.473 135.762 774.45 135.775C773.849 136.135 774.486 138.268 775.751 140.379C777.015 142.491 778.595 144.059 779.195 143.7C779.218 143.686 780.428 143.058 780.451 143.044C778.402 140.655 777.711 138.086 779.215 138.391Z" fill="#4B4B4B"/>
<path d="M797.823 176.29L792.939 170.203L796.247 177.328M764.176 120.574L766.865 126.167L762.475 120.632" stroke="#E89665" stroke-width="1.39876" stroke-linecap="round" stroke-linejoin="round"/>
</g>
<path d="M818.678 173.399C811.582 173.636 806.023 179.643 806.263 186.816C806.502 193.99 812.45 199.612 819.546 199.375C826.643 199.138 832.201 193.131 831.961 185.958C831.722 178.784 825.775 173.162 818.678 173.399Z" fill="#FFCBA3"/>
<path d="M805.039 176.684C814.331 175.702 817.444 181.376 818.223 186.686C819.002 191.996 817.539 198.849 808.732 200.108C799.924 201.366 775.8 206.683 763.229 210.173C758.208 211.535 750.862 209.211 748.926 201.846C746.991 194.48 752.901 189.205 757.694 187.302C767.385 183.455 795.747 177.667 805.039 176.684Z" fill="#FFB100"/>
<path d="M646.13 207.218C646.13 207.218 639.458 210.424 635.316 215.35" stroke="#FF9500" stroke-width="12" stroke-linecap="round" stroke-linejoin="round"/>
<path d="M664.216 236.254C664.216 236.254 657.353 241.216 653.778 246.506" stroke="#FF9500" stroke-width="12" stroke-linecap="round" stroke-linejoin="round"/>
<path d="M807.093 113.775L800.469 110.648M801.465 124.148L795.716 121.146M802.375 130.733C788.829 125.401 782.053 134.25 781.405 130.905" stroke="#00BDFF" stroke-width="7" stroke-linecap="round" stroke-linejoin="round"/>
<path d="M855.058 142.542C857.154 142.982 858.853 140.84 857.947 138.9L855.436 133.515L849.244 141.321L855.058 142.542ZM859.306 133.576C861.058 132.344 860.651 129.639 858.614 128.979L852.963 127.144L854.448 136.995L859.306 133.576ZM834.867 147.946C844.68 150.108 854.388 143.906 856.55 134.094C858.712 124.281 852.51 114.574 842.697 112.411C842.697 112.411 831.091 109.943 822.814 106.323C814.536 102.702 802.912 105.172 798.284 114.09C793.656 123.009 797.498 133.757 806.053 138.619C814.607 143.481 834.867 147.946 834.867 147.946Z" fill="#00BDFF"/>
<path d="M835.605 139.77C838.858 140.791 842.322 138.982 843.343 135.73L845.549 128.702C846.57 125.45 844.761 121.986 841.508 120.965C838.256 119.944 834.791 121.753 833.77 125.005L831.565 132.032C830.544 135.284 832.352 138.749 835.605 139.77Z" fill="white"/>
<path d="M840.888 130.02C840.328 130.292 840.113 130.978 840.417 131.522L841.248 133.009C841.712 133.838 842.942 133.71 843.226 132.805L843.927 130.573C844.212 129.667 843.275 128.859 842.421 129.274L840.888 130.02Z" fill="#FFA3A3"/>
<path d="M845.104 135.343C844.83 134.117 845.601 132.901 846.827 132.628C848.054 132.355 849.269 133.127 849.543 134.353C849.816 135.579 849.044 136.794 847.818 137.067C846.592 137.341 845.377 136.569 845.104 135.343ZM846.252 131.536C845.978 130.31 846.75 129.095 847.976 128.821C849.202 128.548 850.417 129.32 850.69 130.546C850.964 131.772 850.192 132.987 848.966 133.261C847.74 133.533 846.525 132.762 846.252 131.536Z" fill="#00729A"/>
</g>
<mask id="mask20_1_10014" style="mask-type:luminance" maskUnits="userSpaceOnUse" x="-4" y="-24" width="1920" height="1080">
<path d="M1916 -23.5H-4V1055.5H1916V-23.5Z" fill="white"/>
</mask>
<g mask="url(#mask20_1_10014)">
<path d="M309.368 782.165C307.149 776.472 300.735 773.655 295.042 775.874L273.472 784.282C267.779 786.5 264.962 792.912 267.181 798.606L269.321 804.096C273.843 815.223 281.546 813.553 294.578 810.442C307.071 806.599 315.97 800.464 312.157 789.62L309.368 782.165Z" fill="#4CC5FF"/>
<path d="M292.097 794.634C301.551 791.225 305.59 785.026 303.742 779.801C300.853 771.626 290.133 751.54 282.658 742.61C277.679 736.663 259.037 723.383 238.505 713.539C229.434 709.191 218.557 713.018 214.207 722.089C209.858 731.159 213.687 742.037 222.756 746.386C233.896 751.731 251.643 763.696 255.012 766.387C257.327 769.777 265.881 781.843 269.454 792.003C271.76 798.559 283.559 797.713 292.097 794.634Z" fill="#1CB0F6"/>
<path d="M318.37 825.159C306.621 824.218 297.077 817.475 297.077 817.475" stroke="#FF4B4B" stroke-width="12.767" stroke-linecap="round"/>
<path d="M268.033 647.391L236.226 686.142C231.943 691.263 224.319 691.943 219.197 687.66C214.075 683.378 213.395 675.755 217.679 670.632L251.414 633.531C255.242 628.941 262.065 628.325 266.654 632.151C271.243 635.979 271.86 642.802 268.033 647.391Z" fill="#A46648"/>
<path d="M279.157 634.579L267.596 640.104M272.418 619.938L271.52 633.051M263.099 618.378L265.025 633.586M254.967 623.936L259.227 632.529" stroke="#A46648" stroke-width="8.41395" stroke-linecap="round" stroke-linejoin="round"/>
<path d="M193.812 620.686L167.009 603.359C157.221 597.042 144.165 599.855 137.848 609.644L131.719 619.137C125.402 628.926 128.216 641.982 138.005 648.3L146.495 653.779C156.283 660.097 169.339 657.283 175.657 647.495L193.812 620.686ZM184.015 615.737L201.289 659.948L227.882 648.913C237.559 644.626 241.931 633.304 237.644 623.626L233.486 614.239C229.2 604.561 217.879 600.191 208.201 604.478L184.015 615.737ZM159.93 637.31C159.388 647.881 211.475 650.549 212.017 639.978L213.756 606.033C214.297 595.462 206.167 586.453 195.594 585.912L181.791 585.205C171.219 584.663 162.21 592.794 161.668 603.365L159.93 637.31Z" fill="#3D3D3D"/>
<path d="M184.477 690.185L220.78 675.572C228.896 672.305 233.351 663.543 231.209 655.06L225.221 631.344C223.744 625.987 219.361 621.928 213.907 620.867L185.816 615.396C179.22 614.112 172.421 616.25 167.747 621.078L157.204 635.14C151.538 642.697 150.269 652.678 153.863 661.412L161.712 680.481C165.318 689.45 175.511 693.795 184.477 690.185Z" fill="#A46648"/>
<path d="M155.271 664.832L153.863 661.412C150.268 652.678 151.537 642.697 157.204 635.14L167.747 621.078C172.421 616.25 179.219 614.112 185.816 615.396L200.401 618.237C189.154 621.689 167.776 631.766 155.271 664.832ZM200.401 618.237L213.907 620.867C219.361 621.928 223.744 625.987 225.221 631.344L227.282 639.509C218.382 628.203 200.401 618.237 200.401 618.237ZM199.603 616.846C199.416 617.553 199.942 618.192 200.672 618.237C207.227 618.641 214.436 614.554 215.488 606.855C215.587 606.13 215.151 605.451 214.42 605.463C204.733 605.628 201.014 611.545 199.603 616.846ZM200.289 618.187C200.996 618.376 201.677 617.85 201.68 617.119C201.694 612.925 200.612 604.919 190.297 602.302C189.588 602.122 188.906 602.64 188.906 603.371C188.892 611.044 192.803 616.189 200.289 618.187Z" fill="#FDB02A"/>
<path d="M155.95 654.909C157.823 659.004 162.659 660.805 166.754 658.932C170.849 657.058 172.65 652.222 170.777 648.127C168.904 644.032 164.067 642.231 159.972 644.105C155.877 645.978 154.076 650.814 155.95 654.909Z" fill="#A46648"/>
<path d="M203.546 636.253C203.041 632.333 199.362 629.17 195.471 629.313C191.579 629.454 189.056 632.845 189.937 636.75L191.652 644.368C192.43 647.819 195.744 650.432 199.183 650.306C202.621 650.179 205.514 648.531 205.07 645.069L203.546 636.253Z" fill="white"/>
<path d="M206.186 648.371C204.407 645.847 194.26 642.983 190.137 644.02L194.744 653.187C201.022 654.215 206.186 648.371 206.186 648.371Z" fill="#A46648"/>
<path d="M220.293 642.244C215.858 639.249 211.745 643.26 211.745 643.26" stroke="#86401F" stroke-width="4" stroke-linecap="round"/>
<path d="M207.456 643.963C207.356 643.981 205.645 647.463 205.892 648.779C206.139 650.096 207.406 650.962 208.723 650.715C210.039 650.468 210.906 649.202 210.659 647.886C210.412 646.569 207.555 643.944 207.456 643.963ZM208.335 651.048L210.437 651.08C211.816 651.1 212.95 649.998 212.97 648.619C212.99 647.24 211.888 646.107 210.509 646.087L208.408 646.056C207.03 646.035 205.895 647.137 205.874 648.516C205.854 649.895 206.956 651.028 208.335 651.048Z" fill="#86401F"/>
<path d="M193.249 655.154C195.065 661.015 205.294 664.944 212.315 660.417C214.389 659.079 213.456 656.13 211.096 655.408C207.862 654.419 204.974 652.705 202.273 650.34C199.571 647.976 196.247 647.442 194.31 649.966C193.296 651.288 192.593 653.038 193.249 655.154Z" fill="#A41414"/>
<path d="M195.525 635.989L196.16 640.924" stroke="#3D3D3D" stroke-width="6.095" stroke-linecap="round"/>
<path d="M203.932 658.964C205.207 656.559 203.496 653.154 200.11 651.36C197.89 650.183 195.501 649.991 193.761 650.677C193.055 651.884 192.705 653.369 193.197 655.126C194.21 658.737 197.868 660.518 199.508 661.149C201.471 661.176 203.16 660.42 203.932 658.964Z" fill="#E64340"/>
<path d="M198.193 652.269C198.686 653.54 199.641 654.637 200.964 655.28C203.258 656.395 205.94 655.802 207.566 653.996C205.67 653.055 204.621 652.46 202.221 650.312C199.82 648.164 196.194 647.414 194.258 649.939C193.99 650.288 193.747 650.667 193.547 651.074C193.903 651.404 195.168 653.264 198.193 652.269Z" fill="#E7E7E7"/>
<path d="M192.248 719.097L198.504 723.011C210.088 730.257 225.353 726.74 232.598 715.155L236.511 708.898C243.679 697.439 240.2 682.34 228.742 675.173C213.702 665.766 193.884 670.331 184.476 685.371C177.309 696.83 180.788 711.93 192.248 719.097ZM194.698 709.401L228.092 701.707L223.374 681.233C221.249 672.011 212.052 666.258 202.831 668.383C193.61 670.508 187.856 679.704 189.981 688.926L194.698 709.401Z" fill="#FDB02A"/>
<path d="M201.23 702.121C190.972 713.81 192.133 731.602 203.822 741.86C215.512 752.118 233.304 750.958 243.562 739.268C253.82 727.579 252.66 709.787 240.97 699.529C229.281 689.271 211.489 690.431 201.23 702.121Z" fill="#1CB0F6"/>
<path d="M159.92 716.418L148.106 694.322M150.844 719.956L133.286 708.421" stroke="#A46648" stroke-width="13" stroke-linecap="round" stroke-linejoin="round"/>
<path d="M194.219 698.644L182.9 732.241L148.883 715.103C148.883 715.103 180.321 689.565 180.368 689.546C182.892 687.331 186.475 686.759 189.55 688.126C193.573 689.916 195.59 694.46 194.219 698.644ZM143.244 729.871L143.201 729.467C142.622 723.894 144.112 718.586 147.018 714.408C150.238 709.778 155.196 706.536 161.006 705.855C172.058 704.561 181.997 713.037 183.217 724.782L183.259 725.187C184.479 736.932 176.521 747.508 165.468 748.8C154.414 750.092 144.465 741.618 143.244 729.871Z" fill="#A46648"/>
<path d="M172.455 717.477L157.75 717.772C154.021 717.846 150.899 721.022 150.776 724.862C150.653 728.703 153.577 731.756 157.306 731.681L172.011 731.386" stroke="#86401F" stroke-width="4" stroke-linecap="round"/>
<path d="M224.148 745.783C233.096 745.788 241.243 739.739 243.522 730.667C244.374 727.278 245.496 723.19 247.021 718.988C253.478 723.305 260.973 728.72 267.352 733.51C276.172 740.133 288.691 738.353 295.315 729.533C301.938 720.712 300.158 708.191 291.338 701.568C290.963 701.287 282.006 694.605 272.302 687.948C253.116 674.785 244.521 670.455 234.808 672.53C229.693 673.623 225.215 676.586 222.238 680.782C212.191 694.45 207.458 710.222 204.767 720.928C202.077 731.63 208.573 742.486 219.275 745.176C220.905 745.585 222.541 745.782 224.148 745.783Z" fill="#1CB0F6"/>
<path d="M265.673 730.224L247.461 717.298C247.461 717.298 243.074 739.421 235.447 742.292" stroke="#0395DB" stroke-width="4" stroke-linecap="round" stroke-linejoin="round"/>
<path d="M279.838 744.787C283.696 747.647 292.647 742.108 299.83 732.417C307.013 722.725 309.71 712.55 305.852 709.69C304.857 708.953 293.208 700.472 290.789 698.765C286.893 696.017 277.992 701.833 271.06 710.973C264.127 720.114 261.188 730.466 265.074 733.677C268.959 736.889 279.319 744.403 279.838 744.787Z" fill="#5EC6FF"/>
<path d="M300.844 712.163C296.827 713.835 291.986 717.92 287.835 723.523C283.683 729.125 281.184 734.947 280.754 739.277" stroke="#33B4F7" stroke-width="4.078" stroke-linecap="round"/>
<path d="M311.153 711.249C309.4 723.29 302.07 732.675 302.07 732.675" stroke="#FF4B4B" stroke-width="13.049" stroke-linecap="round"/>
</g>
<mask id="mask21_1_10014" style="mask-type:luminance" maskUnits="userSpaceOnUse" x="-4" y="-24" width="1920" height="1080">
<path d="M1916 -23.5H-4V1055.5H1916V-23.5Z" fill="white"/>
</mask>
<g mask="url(#mask21_1_10014)">
<path d="M473.349 296.226C473.349 296.226 494.382 292.729 525.001 287.574C540.494 284.966 547.947 297.812 548.33 307.111C548.712 316.409 541.479 331.162 526.022 328.365C494.731 322.703 462.206 317.275 462.206 317.275L473.349 296.226Z" fill="#FFB7E3"/>
<path d="M525.001 287.574C555.643 282.471 571.956 280.17 585.245 278.382C598.534 276.594 610.086 293.828 609.324 309.614C608.558 325.51 595.65 338.152 582.137 336.539C568.558 334.921 557.261 333.93 526.022 328.365C510.626 325.622 507.25 316.455 506.676 308.972C506.102 301.489 509.46 290.162 525.001 287.574Z" fill="#FFB7E3"/>
<path d="M570.039 312.644C573.049 325.28 583.374 333.392 593.099 330.763C602.823 328.134 608.265 315.76 605.255 303.124C602.244 290.489 591.92 282.377 582.195 285.005C572.471 287.634 567.028 300.009 570.039 312.644Z" fill="#FF9BDE"/>
<path d="M608.969 301.26C607.023 292.069 604.336 279.899 600.916 270.028" stroke="#FF7AD5" stroke-width="27.2399" stroke-linecap="round" stroke-linejoin="round"/>
<path d="M433.039 356.309C434.859 352.013 438.454 347.117 442.305 343.59" stroke="#FF86D0" stroke-width="15" stroke-linecap="round" stroke-linejoin="round"/>
<path d="M463.977 331.702C472.206 336.628 463.981 331.706 463.984 331.707C463.984 331.707 484.166 344.147 516.424 349.829C524.96 351.332 532.898 354.748 534.028 363.34C535.158 371.932 529.113 379.828 520.518 380.944C492.085 384.633 456.439 364.568 447.372 358.332C439.581 352.974 437.78 344.064 442.369 336.712C446.955 329.364 455.749 326.775 463.977 331.702Z" fill="#FFB7E3"/>
<path d="M484.249 317.123C496.317 322.019 517.711 330.097 530.788 354.541C543.865 378.984 512.28 382.71 505.013 371.734C496.171 358.38 478.827 349.71 475.814 348.022C457.794 338.244 466.128 307.52 484.244 317.12" fill="#FFB7E3"/>
<path d="M411.857 296.239C413.142 294.126 407.027 286.616 407.027 286.616L392.264 297.16C390.166 298.659 387.663 299.487 385.084 299.535L362.893 299.949C358.118 300.038 355.162 305.188 357.495 309.356L360.367 314.489C362.141 317.658 363.366 321.104 363.996 324.681C365.074 330.815 371.379 334.536 377.27 332.515L382.528 330.711C394.368 326.65 403.784 317.529 408.221 305.827L411.857 296.239Z" fill="#FFB3E6"/>
<path d="M445.764 279.412C428.532 294.09 426.462 319.956 441.139 337.188C448.247 345.534 461.451 351.714 474.419 348.264C488.316 344.567 496.964 331.959 502.617 321.747C505.992 315.651 508.193 310.268 509.184 303.511C510.175 296.753 508.259 289.231 503.539 284.038C488.313 267.289 462.996 264.736 445.764 279.412Z" fill="#FFB7E3"/>
<path d="M431.919 317.393C431.607 315.522 431.43 313.637 431.378 311.75L437.678 295.856L455.773 273.124C457.015 272.574 458.278 272.091 459.556 271.672L465.484 270.207C465.506 270.203 465.528 270.198 465.551 270.194C473.958 277.27 475.918 290.908 469.162 301.639C461.214 314.265 448.117 321.563 431.919 317.393Z" fill="#FF86D0"/>
<path d="M456.33 307.962C456.061 307.68 455.61 307.686 455.351 307.975L452.727 310.89C452.493 311.148 452.498 311.544 452.74 311.796L457.312 316.576C457.566 316.842 457.989 316.851 458.254 316.596L461.062 313.907C461.327 313.653 461.336 313.233 461.084 312.967L456.33 307.962ZM468.35 284.572C467.987 284.432 467.582 284.632 467.472 285.005L466.356 288.764C466.257 289.099 466.432 289.453 466.758 289.577L472.94 291.926C473.284 292.057 473.67 291.884 473.8 291.539L475.18 287.905C475.309 287.561 475.138 287.178 474.795 287.046L468.35 284.572Z" fill="#FFB3E6"/>
<path d="M456.926 265.314C429.456 264.295 417.538 287.859 425.394 307.036L426.4 309.488C429.895 318.018 449.765 320.766 461.832 302.346C476.005 282.634 467.27 266.132 456.926 265.314Z" fill="#1CB0F6"/>
<path d="M444.501 191.354C444.501 191.354 444.856 218.099 445.608 230.518C446.37 243.111 449.046 266.393 449.046 266.393" stroke="#1CB0F6" stroke-width="21" stroke-linecap="round" stroke-linejoin="round"/>
<path d="M430.736 303.16C430.736 303.16 406.018 308.088 393.658 310.661C378.88 313.737 349.373 320.096 349.373 320.096" stroke="#1CB0F6" stroke-width="21" stroke-linecap="round"/>
<path d="M430.711 192.416C437.155 199.015 447.73 199.14 454.33 192.696C460.929 186.25 461.055 175.675 454.61 169.076C448.164 162.477 437.59 162.351 430.99 168.796C424.39 175.242 424.266 185.817 430.711 192.416Z" fill="#E18E70"/>
<path d="M357.247 330.715C364.023 323.125 363.365 311.478 355.774 304.7C348.183 297.922 336.534 298.582 329.758 306.172C322.98 313.764 323.64 325.411 331.231 332.188C338.823 338.966 350.468 338.306 357.247 330.715Z" fill="#E18E70"/>
<path d="M333.937 258.709C346.225 292.897 383.902 310.65 418.09 298.363C452.279 286.074 470.032 248.398 457.744 214.209C445.456 180.021 407.779 162.268 373.591 174.555C339.402 186.843 321.649 224.52 333.937 258.709Z" fill="#FFB3E6"/>
<path d="M387.178 217.976C368.844 235.374 366.552 262.762 382.061 279.151C397.569 295.54 421.228 295.97 439.563 278.572C457.898 261.174 463.964 232.538 448.456 216.149C432.948 199.76 405.512 200.578 387.178 217.976Z" fill="#E18E70"/>
<path d="M438.477 273.238C439.757 276.806 436.422 284.562 421.774 289.401C407.126 294.24 403.722 285.051 402.975 282.97C402.229 280.888 400.369 271.744 407.595 269.356C413.258 267.485 420.832 271.858 427.864 269.535C434.896 267.213 437.196 269.669 438.477 273.238Z" fill="#A70000"/>
<path d="M407.594 269.358C410.272 268.472 413.379 268.985 416.654 269.524C420.302 270.125 424.159 270.761 427.864 269.537C431.121 268.461 433.363 268.41 434.959 269.021C433.263 271.228 430.159 273.482 425.119 275.234C415.857 278.436 407.933 276.409 403.172 273.67C403.73 271.687 405.341 270.102 407.594 269.358Z" fill="white"/>
<path d="M426.522 255.339C426.393 255.45 426.78 261.971 428.121 263.712C429.457 265.446 432.299 265.393 433.997 263.922C435.694 262.45 435.839 260.228 434.402 258.674C433.075 257.092 426.649 255.227 426.522 255.339ZM440.723 235.304C441.541 235.128 442.028 234.31 441.811 233.477C441.593 232.645 440.751 232.113 439.933 232.289C434.071 233.554 430.769 237.122 429.085 241.043C427.428 244.9 427.331 249.083 427.749 251.802C427.879 252.649 428.663 253.264 429.501 253.177C430.337 253.09 430.909 252.333 430.779 251.486C430.43 249.217 430.518 245.629 431.911 242.386C433.277 239.208 435.893 236.347 440.723 235.304ZM402.13 264.157C401.676 264.835 400.717 265.054 399.991 264.647C399.264 264.24 399.044 263.36 399.498 262.682C402.96 257.522 407.741 255.314 412.292 254.704C416.773 254.103 420.999 255.049 423.569 256.122C424.345 256.446 424.677 257.293 424.312 258.015C423.947 258.736 423.022 259.059 422.246 258.735C420.11 257.844 416.477 257.03 412.683 257.539C408.958 258.038 405.047 259.808 402.13 264.157Z" fill="#9E4D31"/>
<path d="M361.314 248.825C360.958 247.423 362.509 246.101 363.896 246.231C365.524 246.513 367.624 246.266 370.17 244.874C374.594 242.488 377.607 215.32 405.972 205.55C415.51 202.143 430.984 202.596 432.147 206.67C435.892 220.198 431.986 247.189 400.649 257.9C372.995 267.462 364.463 256.682 361.314 248.825Z" fill="#3B3B3B"/>
</g>
<mask id="mask22_1_10014" style="mask-type:luminance" maskUnits="userSpaceOnUse" x="-4" y="-24" width="1920" height="1080">
<path d="M1916 -23.5H-4V1055.5H1916V-23.5Z" fill="white"/>
</mask>
<g mask="url(#mask22_1_10014)">
<mask id="mask23_1_10014" style="mask-type:alpha" maskUnits="userSpaceOnUse" x="-29" y="772" width="1059" height="359">
<path d="M685.416 780.17C636.25 745.875 1091.5 926 1018.78 874.974C1004.59 865.016 709.335 1082.17 687.74 1094.58C650.82 1115.79 28.0002 1103 -9.24693 1127.07C-15.9362 1131.39 -30.5837 1014.27 -23.1412 1028.11C6.25034 1082.75 262.75 1015.25 307.681 1092.82C311.133 1098.79 452.836 949.592 459.745 952.18C469.37 955.784 481.335 955.084 492.818 947.201C539 915.5 640 853 682.254 820.88C695.879 810.522 697.837 788.835 685.416 780.17Z" fill="white"/>
<path d="M685.416 780.17C636.25 745.875 1091.5 926 1018.78 874.974C1004.59 865.016 709.335 1082.17 687.74 1094.58C650.82 1115.79 28.0002 1103 -9.24693 1127.07C-15.9362 1131.39 -30.5837 1014.27 -23.1412 1028.11C6.25033 1082.75 262.75 1015.25 307.681 1092.82C311.133 1098.79 452.836 949.592 459.745 952.18C469.37 955.784 481.335 955.084 492.818 947.201C539 915.5 640 853 682.254 820.88C695.879 810.522 697.837 788.835 685.416 780.17Z" stroke="#9DEEC7" stroke-width="6.5"/>
</mask>
<g mask="url(#mask23_1_10014)">
<mask id="mask24_1_10014" style="mask-type:luminance" maskUnits="userSpaceOnUse" x="-4" y="-24" width="1920" height="1080">
<path d="M1916 -23.5001H-4V1055.5H1916V-23.5001Z" fill="white"/>
</mask>
<g mask="url(#mask24_1_10014)">
<path d="M399.25 896C393.5 904.75 381.001 916.25 381.001 916.25C381.001 916.25 368.001 910.25 361.251 901.25" stroke="#3D3D3D" stroke-width="24" stroke-linecap="round" stroke-linejoin="round"/>
<path d="M421.75 797.75C403.939 797.75 389.5 812.189 389.5 830C389.5 847.811 403.939 862.25 421.75 862.25C439.561 862.25 454 847.811 454 830C454 812.189 439.561 797.75 421.75 797.75ZM386.375 814.5C359.613 813.202 337.75 825.636 337.75 848.625C337.75 871.614 361.214 878.886 384.125 877C435.75 872.75 448.25 817.5 386.375 814.5Z" fill="#3D3D3D"/>
<path d="M419.5 831C436 842 461.5 843.5 485.5 844.5C509.5 845.5 539.334 867.03 536.5 896.5C534 922.5 509 939.5 482 940C451.988 940.556 421 937.5 381.5 916C342 894.5 345 860.5 358 839C371 817.5 403 820 419.5 831Z" fill="#DB8D74"/>
<mask id="mask25_1_10014" style="mask-type:alpha" maskUnits="userSpaceOnUse" x="349" y="822" width="188" height="119">
<path d="M419.5 831C436 842 461.5 843.5 485.5 844.5C509.5 845.5 539.334 867.03 536.5 896.5C534 922.5 509 939.5 482 940C451.988 940.556 421 937.5 381.5 916C342 894.5 345 860.5 358 839C371 817.5 403 820 419.5 831Z" fill="#DB8D74"/>
</mask>
<g mask="url(#mask25_1_10014)">
<path d="M423.5 831C410.177 828.609 575.567 788.845 566 898C555 1023.5 350.564 928.845 385 936C403.75 939.896 422.5 938.218 436.976 930.909C439.912 929.426 442.673 927.713 445.222 925.766C447.674 923.894 449.93 921.807 451.958 919.505C458.773 911.771 463.021 901.608 463.5 889C464.479 863.207 443 834.5 423.5 831ZM455.423 834.641C455.423 834.641 571 810.5 566.5 896.5C562 982.5 427.053 949.285 427.053 949.285C427.053 949.285 498.5 935.5 498.343 892.106C498.189 849.487 455.423 834.641 455.423 834.641ZM493.85 852.593L498.523 857.746L487.444 858.932L483.092 853.543L493.85 852.593ZM471.403 834.743C471.403 834.743 571.5 830 563.5 897C555.5 964 448.597 950.404 448.597 950.404C448.597 950.404 506.03 934.853 506.946 891.35C507.74 853.636 471.403 834.743 471.403 834.743ZM498.329 889.347L509.112 890.031L508.406 898.877L497.897 897.415L498.329 889.347Z" fill="#FFAADE"/>
<path d="M455.423 834.641C455.423 834.641 571 810.5 566.5 896.5C562 982.5 427.053 949.285 427.053 949.285C427.053 949.285 498.5 935.5 498.343 892.106C498.189 849.487 455.423 834.641 455.423 834.641Z" fill="#A56641"/>
<path d="M493.85 852.593L498.523 857.746L487.444 858.932L483.092 853.543L493.85 852.593ZM471.403 834.743C471.403 834.743 571.5 830 563.5 897C555.5 964 448.597 950.404 448.597 950.404C448.597 950.404 506.03 934.853 506.946 891.35C507.74 853.636 471.403 834.743 471.403 834.743ZM498.329 889.347L509.112 890.031L508.406 898.877L497.897 897.415L498.329 889.347Z" fill="#2CE69B"/>
</g>
<mask id="mask26_1_10014" style="mask-type:alpha" maskUnits="userSpaceOnUse" x="348" y="821" width="190" height="121">
<path d="M419.5 831C436 842 461.5 843.5 485.5 844.5C509.5 845.5 539.334 867.03 536.5 896.5C534 922.5 509 939.5 482 940C451.988 940.556 421 937.5 381.5 916C342 894.5 345 860.5 358 839C371 817.5 403 820 419.5 831Z" fill="#DB8D74"/>
<path d="M419.5 831C436 842 461.5 843.5 485.5 844.5C509.5 845.5 539.334 867.03 536.5 896.5C534 922.5 509 939.5 482 940C451.988 940.556 421 937.5 381.5 916C342 894.5 345 860.5 358 839C371 817.5 403 820 419.5 831Z" stroke="#3D3D3D" stroke-width="2"/>
</mask>
<g mask="url(#mask26_1_10014)">
<path d="M421 783.5C444.5 784.75 453.501 805.511 454.25 819.75C455 834 453 849.75 434.25 858.75C414.571 868.196 389.25 857.75 384.75 827.75C381.503 806.103 397.5 782.25 421 783.5Z" fill="#3D3D3D"/>
</g>
<path d="M386.75 787C369.767 787 356 800.711 356 817.625C356 834.539 369.767 848.25 386.75 848.25C403.733 848.25 417.5 834.539 417.5 817.625C417.5 800.711 403.733 787 386.75 787Z" fill="#3D3D3D"/>
<path d="M432.479 844.255C427.5 844.255 423.464 848.292 423.464 853.271C423.464 858.25 427.5 862.286 432.479 862.286C437.458 862.286 441.495 858.25 441.495 853.271C441.495 848.292 437.458 844.255 432.479 844.255Z" fill="#DB8D74"/>
<path d="M404.082 887.055C402.733 886.732 401.377 887.563 401.054 888.912L393.94 918.586C393.617 919.936 394.448 921.291 395.797 921.614L396.083 921.683C405.627 923.971 415.217 918.088 417.505 908.545C419.793 899.002 413.911 889.411 404.368 887.123L404.082 887.055Z" fill="#B82C2C"/>
<g opacity="0.8">
<path d="M411.602 918.053C414.445 915.688 416.576 912.418 417.505 908.544C418.629 903.855 417.781 899.154 415.495 895.314C412.644 897.676 410.507 900.947 409.577 904.823C408.453 909.514 409.307 914.216 411.602 918.053Z" fill="#FD5050"/>
</g>
<path d="M399.25 896C393.5 904.75 381.001 916.25 381.001 916.25L380.227 916.151" stroke="#3D3D3D" stroke-width="24" stroke-linecap="round" stroke-linejoin="round"/>
<path d="M370.258 903.439C370.258 903.439 365.081 900.117 360.302 896.787C355.998 890.001 352.652 882.835 350.673 875.562C353.309 876.876 358.412 883.12 360.387 886.508L370.258 903.439ZM365.342 874.941C369.283 871.335 375.695 871.966 378.878 876.698L386.733 888.3C377.322 893.703 374.457 901.468 374.457 901.468L365.468 887.382C363.279 884.129 362.223 877.645 365.342 874.941Z" fill="white"/>
<path d="M360.651 888.472C359.158 886.089 357.119 884.676 356.097 885.317C355.075 885.958 355.457 888.408 356.95 890.791L357.89 892.292C359.383 894.674 361.423 896.087 362.445 895.447C363.467 894.806 363.084 892.355 361.591 889.972L360.651 888.472ZM374.85 887.618C373.358 885.235 370.834 884.125 369.213 885.14C367.593 886.156 367.491 888.912 368.983 891.294L369.924 892.795C371.416 895.177 373.94 896.286 375.561 895.271C377.181 894.256 377.284 891.501 375.792 889.118L374.85 887.618Z" fill="#3D3D3D"/>
<path d="M375.75 856.5C375.75 856.5 368.25 854.5 364.25 857.5M346.642 860.973C346.642 860.973 339.298 863.486 337.645 868.205" stroke="#3D3D3D" stroke-width="12" stroke-linecap="round" stroke-linejoin="round"/>
<path d="M369.705 899.031C365.273 899.031 361.68 902.57 361.68 906.936C361.68 911.302 365.273 914.841 369.705 914.841C374.137 914.841 377.729 911.302 377.729 906.936C377.729 902.57 374.137 899.031 369.705 899.031Z" fill="#DB8D74"/>
</g>
</g>
<path d="M489.5 927.75C497.506 928.411 508.203 934.064 505.25 944.5C502.599 953.867 492.201 952.613 484.422 949.596C480.75 954.5 474.75 951.25 476.75 946.25C480.098 937.881 482.441 927.167 489.5 927.75Z" fill="#DB8D74"/>
<path d="M475.75 907.25L482.25 934.25" stroke="#FFAADE" stroke-width="25" stroke-linecap="round" stroke-linejoin="round"/>
</g>
</g>
</g>
<defs>
<linearGradient id="paint0_linear_1_10014" x1="458.3" y1="438.606" x2="366.421" y2="510.17" gradientUnits="userSpaceOnUse">
<stop stop-color="#FFA75F"/>
<stop offset="0.5" stop-color="#FFB78B"/>
<stop offset="1" stop-color="#FFC7B8"/>
</linearGradient>
<clipPath id="clip0_1_10014">
<rect width="1080" height="1080" fill="white"/>
</clipPath>
</defs>
</svg>
