<svg width="1080" height="1080" viewBox="0 0 1080 1080" fill="none" xmlns="http://www.w3.org/2000/svg">
<g clip-path="url(#clip0_1_16945)">
<mask id="mask0_1_16945" style="mask-type:luminance" maskUnits="userSpaceOnUse" x="0" y="0" width="1080" height="1080">
<path d="M1080 0H0V1080H1080V0Z" fill="white"/>
</mask>
<g mask="url(#mask0_1_16945)">
<mask id="mask1_1_16945" style="mask-type:luminance" maskUnits="userSpaceOnUse" x="0" y="0" width="1080" height="1080">
<path d="M0 0H1080V1080H0V0Z" fill="white"/>
</mask>
<g mask="url(#mask1_1_16945)">
<mask id="mask2_1_16945" style="mask-type:luminance" maskUnits="userSpaceOnUse" x="124" y="124" width="832" height="832">
<path d="M124.2 124.2H955.8V955.8H124.2V124.2Z" fill="white"/>
</mask>
<g mask="url(#mask2_1_16945)">
<path d="M951.981 732.173L931.526 736.52C930.061 733.795 928.318 731.146 926.271 728.608L768.859 520.083C760.664 509.921 747.453 505.228 734.684 507.943L543.432 548.594C530.953 551.247 522.987 563.513 525.639 575.992L581.102 836.922C585.522 857.72 605.967 870.997 626.765 866.576L897.719 808.983C915.542 805.195 928.348 792.876 934.067 777.878L951.981 732.173Z" fill="#00448E"/>
<path d="M914.485 764.649L618.799 827.499C598.001 831.919 577.557 818.643 573.136 797.845L517.674 536.915C515.021 524.436 522.987 512.169 535.466 509.516L726.718 468.865C739.488 466.151 752.698 470.844 760.894 481.006L943.039 684.273C966.472 713.329 950.998 756.888 914.485 764.649Z" fill="#9ADFFF"/>
<path d="M616.455 817.82C601.92 820.909 587.58 811.597 584.491 797.062L525.766 531.896C524.442 525.666 530.692 519.041 536.922 517.716L728.174 477.064C736.734 475.245 747.723 477.866 753.217 484.678L934.105 693.142C942.571 703.639 944.93 717.493 940.416 730.199C935.902 742.906 925.331 752.166 912.141 754.969L616.455 817.82Z" fill="white"/>
<mask id="mask3_1_16945" style="mask-type:alpha" maskUnits="userSpaceOnUse" x="525" y="476" width="418" height="343">
<path d="M616.456 817.82C601.921 820.909 587.581 811.597 584.492 797.062L525.767 531.896C524.443 525.666 530.693 519.041 536.923 517.716L728.175 477.064C736.735 475.245 747.724 477.866 753.218 484.678L934.106 693.142C942.572 703.639 944.931 717.493 940.417 730.199C935.903 742.906 925.332 752.166 912.142 754.969L616.456 817.82Z" fill="white"/>
</mask>
<g mask="url(#mask3_1_16945)">
<mask id="mask4_1_16945" style="mask-type:luminance" maskUnits="userSpaceOnUse" x="124" y="124" width="832" height="832">
<path d="M124.2 124.2H955.8V955.8H124.2V124.2Z" fill="white"/>
</mask>
<g mask="url(#mask4_1_16945)">
<mask id="mask5_1_16945" style="mask-type:luminance" maskUnits="userSpaceOnUse" x="124" y="124" width="832" height="832">
<path d="M124.2 124.2H955.8V955.8H124.2V124.2Z" fill="white"/>
</mask>
<g mask="url(#mask5_1_16945)">
<mask id="mask6_1_16945" style="mask-type:luminance" maskUnits="userSpaceOnUse" x="124" y="124" width="832" height="832">
<path d="M124.2 124.2H955.8V955.8H124.2V124.2Z" fill="white"/>
</mask>
<g mask="url(#mask6_1_16945)">
<path d="M797.042 688.671C796.847 667.64 770.069 650.838 737.231 651.143C704.394 651.447 677.932 668.743 678.128 689.774C678.323 710.805 705.1 727.607 737.938 727.303C770.775 726.998 797.238 709.703 797.042 688.671ZM796.934 677.057L678.02 678.16L678.128 689.774L797.042 688.671L796.934 677.057Z" fill="#E6A000"/>
<path d="M796.935 677.056C797.131 698.087 770.668 715.384 737.831 715.688C704.993 715.992 678.215 699.191 678.02 678.16C677.824 657.129 704.287 639.833 737.124 639.529C769.962 639.224 796.74 656.026 796.935 677.056Z" fill="#FFC700"/>
<path d="M749.233 708.867C757.977 707.6 766.057 704.98 772.843 701.177C774.29 700.366 774.5 698.541 773.285 697.468L718.443 649.024C717.744 648.406 716.723 648.192 715.786 648.457C709.589 650.211 703.918 652.706 699.061 655.881C697.621 656.822 696.282 657.805 695.047 658.825C693.929 659.746 693.903 661.321 694.982 662.275L746.988 708.216C747.58 708.738 748.413 708.986 749.233 708.867ZM775.486 655.172C765.305 648.784 751.701 645.34 737.18 645.474C736.832 645.478 736.486 645.482 736.14 645.49C733.799 645.542 732.667 648.095 734.336 649.571L781.377 691.124C782.534 692.147 784.456 692.007 785.38 690.805C788.662 686.535 790.374 681.878 790.33 677.119C790.254 668.925 784.982 661.131 775.486 655.172Z" fill="#FFE700"/>
</g>
</g>
<mask id="mask7_1_16945" style="mask-type:luminance" maskUnits="userSpaceOnUse" x="124" y="124" width="832" height="832">
<path d="M124.2 124.2H955.8V955.8H124.2V124.2Z" fill="white"/>
</mask>
<g mask="url(#mask7_1_16945)">
<path d="M582.719 644.077C582.473 636.796 582.672 620.494 582.581 611.754" stroke="#3DB9B8" stroke-width="5.8713" stroke-miterlimit="10" stroke-linecap="round"/>
<path d="M583.051 624.173C587.355 623.71 590.675 620.039 591.534 615.348C591.711 615.34 591.887 615.342 592.065 615.323C597.473 614.741 601.341 609.102 600.706 602.727C600.07 596.352 595.17 591.656 589.763 592.237C589.61 592.254 589.464 592.288 589.314 592.312C587.598 587.766 583.551 584.77 579.168 585.241C574.785 585.712 571.415 589.507 570.633 594.321C570.481 594.329 570.331 594.326 570.179 594.343C564.771 594.924 560.902 600.563 561.538 606.938C562.174 613.313 567.073 618.009 572.481 617.428C572.659 617.409 572.831 617.371 573.006 617.34C574.773 621.75 578.747 624.636 583.051 624.173ZM580.843 596.697C575.911 596.983 572.118 600.873 572.362 605.381C572.606 609.889 576.8 613.311 581.732 613.025C586.657 612.733 590.458 608.849 590.214 604.341C589.97 599.833 585.775 596.411 580.843 596.697Z" fill="#CC348D"/>
<path d="M580.845 596.697C575.914 596.985 572.116 600.874 572.36 605.382C572.604 609.891 576.799 613.312 581.73 613.024C586.661 612.736 590.459 608.847 590.215 604.339C589.971 599.83 585.776 596.409 580.845 596.697Z" fill="white"/>
<mask id="mask8_1_16945" style="mask-type:luminance" maskUnits="userSpaceOnUse" x="124" y="124" width="832" height="832">
<path d="M124.2 124.2H955.8V955.8H124.2V124.2Z" fill="white"/>
</mask>
<g mask="url(#mask8_1_16945)">
<path d="M593.826 472.465C593.653 453.86 569.965 438.997 540.916 439.266C511.867 439.536 488.459 454.836 488.632 473.44C488.805 492.045 512.492 506.908 541.541 506.639C570.589 506.37 593.998 491.07 593.826 472.465ZM593.73 462.191L488.536 463.166L488.632 473.44L593.826 472.465L593.73 462.191Z" fill="#E6A000"/>
<path d="M593.731 462.19C593.904 480.794 570.494 496.095 541.446 496.364C512.397 496.633 488.709 481.77 488.536 463.166C488.363 444.562 511.772 429.262 540.821 428.992C569.87 428.723 593.558 443.586 593.731 462.19Z" fill="#FFC700"/>
<path d="M551.533 490.331C559.268 489.209 566.416 486.891 572.418 483.528C573.699 482.81 573.883 481.196 572.809 480.247L524.295 437.392C523.676 436.846 522.773 436.656 521.945 436.89C516.463 438.442 511.446 440.65 507.149 443.458C505.876 444.29 504.691 445.16 503.598 446.062C502.61 446.877 502.587 448.271 503.541 449.114L549.546 489.754C550.07 490.217 550.807 490.435 551.533 490.331ZM574.756 442.831C565.75 437.18 553.715 434.133 540.87 434.252C540.562 434.255 540.256 434.259 539.95 434.266C537.879 434.312 536.877 436.571 538.354 437.876L579.967 474.635C580.991 475.539 582.691 475.416 583.508 474.352C586.412 470.575 587.926 466.455 587.887 462.245C587.82 454.997 583.156 448.102 574.756 442.831Z" fill="#FFE700"/>
</g>
<mask id="mask9_1_16945" style="mask-type:luminance" maskUnits="userSpaceOnUse" x="124" y="124" width="832" height="832">
<path d="M124.2 124.2H955.8V955.8H124.2V124.2Z" fill="white"/>
</mask>
<g mask="url(#mask9_1_16945)">
<path d="M593.826 472.465C593.653 453.86 569.965 438.997 540.916 439.266C511.867 439.536 488.459 454.836 488.632 473.44C488.805 492.045 512.492 506.908 541.541 506.639C570.589 506.37 593.998 491.07 593.826 472.465ZM593.73 462.191L488.536 463.166L488.632 473.44L593.826 472.465L593.73 462.191Z" fill="#E6A000"/>
<path d="M593.731 462.19C593.904 480.794 570.494 496.095 541.446 496.364C512.397 496.633 488.709 481.77 488.536 463.166C488.363 444.562 511.772 429.262 540.821 428.992C569.87 428.723 593.558 443.586 593.731 462.19Z" fill="#FFC700"/>
<path d="M551.533 490.331C559.268 489.209 566.416 486.891 572.418 483.528C573.699 482.81 573.883 481.196 572.809 480.247L524.295 437.392C523.676 436.846 522.773 436.656 521.945 436.89C516.463 438.442 511.446 440.65 507.149 443.458C505.876 444.29 504.691 445.16 503.598 446.062C502.61 446.877 502.587 448.271 503.541 449.114L549.546 489.754C550.07 490.217 550.807 490.435 551.533 490.331ZM574.756 442.831C565.75 437.18 553.715 434.133 540.87 434.252C540.562 434.255 540.256 434.259 539.95 434.266C537.879 434.312 536.877 436.571 538.354 437.876L579.967 474.635C580.991 475.539 582.691 475.416 583.508 474.352C586.412 470.575 587.926 466.455 587.887 462.245C587.82 454.997 583.156 448.102 574.756 442.831Z" fill="#FFE700"/>
</g>
<mask id="mask10_1_16945" style="mask-type:luminance" maskUnits="userSpaceOnUse" x="124" y="124" width="832" height="832">
<path d="M124.2 124.2H955.8V955.8H124.2V124.2Z" fill="white"/>
</mask>
<g mask="url(#mask10_1_16945)">
<path d="M634.614 494.227C634.434 474.813 609.716 459.304 579.404 459.585C549.093 459.866 524.666 475.831 524.847 495.245C525.027 514.658 549.745 530.168 580.056 529.887C610.368 529.606 634.795 513.641 634.614 494.227ZM634.515 483.506L524.747 484.524L524.847 495.245L634.614 494.227L634.515 483.506Z" fill="#E6A000"/>
<path d="M634.515 483.506C634.696 502.918 610.269 518.884 579.957 519.165C549.646 519.446 524.927 503.937 524.747 484.524C524.567 465.111 548.994 449.145 579.305 448.864C609.617 448.584 634.335 464.093 634.515 483.506Z" fill="#FFC700"/>
<path d="M590.483 512.87C598.554 511.699 606.013 509.281 612.276 505.771C613.612 505.022 613.805 503.338 612.684 502.347L562.061 457.629C561.415 457.059 560.473 456.861 559.609 457.106C553.888 458.725 548.653 461.029 544.17 463.959C542.841 464.827 541.605 465.735 540.464 466.676C539.433 467.527 539.408 468.981 540.405 469.861L588.41 512.268C588.956 512.751 589.726 512.979 590.483 512.87ZM614.716 463.305C605.318 457.408 592.76 454.229 579.356 454.353C579.036 454.356 578.716 454.36 578.397 454.368C576.235 454.415 575.19 456.772 576.731 458.134L620.154 496.491C621.222 497.435 622.996 497.306 623.849 496.196C626.878 492.255 628.458 487.956 628.418 483.563C628.348 476 623.481 468.805 614.716 463.305Z" fill="#FFE700"/>
</g>
<mask id="mask11_1_16945" style="mask-type:luminance" maskUnits="userSpaceOnUse" x="124" y="124" width="832" height="832">
<path d="M124.2 124.2H955.8V955.8H124.2V124.2Z" fill="white"/>
</mask>
<g mask="url(#mask11_1_16945)">
<path d="M726.993 577.589C726.805 557.367 701.057 541.211 669.482 541.504C637.908 541.796 612.464 558.427 612.652 578.649C612.84 598.872 638.587 615.027 670.162 614.735C701.736 614.442 727.181 597.812 726.993 577.589ZM726.889 566.422L612.548 567.482L612.652 578.649L726.993 577.589L726.889 566.422Z" fill="#E6A000"/>
<path d="M726.89 566.421C727.078 586.643 701.633 603.274 670.058 603.567C638.484 603.859 612.736 587.704 612.548 567.482C612.36 547.26 637.805 530.629 669.379 530.337C700.954 530.044 726.702 546.199 726.89 566.421Z" fill="#FFC700"/>
<path d="M681.023 597.008C689.43 595.79 697.2 593.27 703.724 589.614C705.116 588.834 705.317 587.079 704.149 586.048L651.416 539.466C650.744 538.873 649.762 538.666 648.862 538.921C642.903 540.608 637.45 543.008 632.78 546.06C631.395 546.965 630.108 547.91 628.92 548.89C627.846 549.777 627.82 551.291 628.858 552.208L678.864 596.382C679.433 596.885 680.234 597.122 681.023 597.008ZM706.266 545.378C696.476 539.236 683.395 535.924 669.433 536.054C669.098 536.057 668.766 536.061 668.433 536.069C666.182 536.118 665.093 538.574 666.698 539.992L711.93 579.948C713.042 580.931 714.89 580.797 715.779 579.64C718.934 575.535 720.581 571.057 720.538 566.481C720.465 558.602 715.396 551.108 706.266 545.378Z" fill="#FFE700"/>
</g>
</g>
</g>
</g>
</g>
<mask id="mask12_1_16945" style="mask-type:luminance" maskUnits="userSpaceOnUse" x="121" y="121" width="832" height="832">
<path d="M121.12 121.12H952.72V952.72H121.12V121.12Z" fill="white"/>
</mask>
<g mask="url(#mask12_1_16945)">
<path d="M725.314 741.075C732.886 741.075 739.034 743.773 739.034 747.097C739.034 750.42 732.886 753.118 725.314 753.118C717.742 753.118 711.594 750.42 711.594 747.097C711.594 743.773 717.742 741.075 725.314 741.075Z" fill="#E3E3E3"/>
<path d="M737.563 671.764C737.563 671.764 738.99 683.99 746.132 686.76" stroke="#CC348C" stroke-width="26.18" stroke-linecap="round"/>
<path d="M732.5 620.85C732.5 620.85 749.44 645.49 737.119 657.166" stroke="#0084C2" stroke-width="32.34" stroke-linecap="round"/>
<path d="M710.17 633.17C710.17 633.17 711.728 686.117 722.538 713.632" stroke="#0084C2" stroke-width="32.34" stroke-linecap="round"/>
<path d="M724.13 722.247C724.13 722.247 717.666 715.486 713.26 701.437" stroke="#CC348C" stroke-width="26.18" stroke-linecap="round"/>
<path d="M823.926 496.691C828.865 506.583 824.849 518.606 814.958 523.545L755.019 545.421C745.127 550.359 733.105 546.344 728.166 536.452C723.228 526.56 727.243 514.537 737.135 509.599L797.073 487.723C806.965 482.785 818.988 486.8 823.926 496.691Z" fill="#CC348D"/>
<path d="M789.915 572.918C796.343 613.507 768.651 651.622 728.062 658.051C687.473 664.479 649.358 636.787 642.929 596.198C636.5 555.609 664.193 517.495 704.782 511.067C745.371 504.638 783.486 532.329 789.915 572.918Z" fill="#0084C2"/>
<path d="M643.607 599.887C639.381 560.714 666.608 524.705 705.955 518.473C745.302 512.241 782.324 538.074 790.409 576.637C790.854 580.766 790.95 584.86 790.72 588.887C779.782 615.405 755.701 635.763 725.294 640.579C694.888 645.395 665.695 633.474 647.097 611.635C645.633 607.876 644.459 603.952 643.607 599.887Z" fill="#00448E"/>
<path d="M817.82 488.148L817.596 487.991C827.337 493.222 836.756 510.833 825.872 528.278L813.683 536.67C801.571 536.099 804.828 530.133 795.088 524.902L795.213 523.754C785.472 518.523 781.817 506.387 787.048 496.646L790.489 496.156C795.72 486.416 808.079 482.917 817.82 488.148Z" fill="#CC348D"/>
<path d="M644.171 606.603C643.716 604.707 643.239 598.157 642.929 596.198C636.5 555.609 664.193 517.495 704.782 511.066C745.37 504.637 783.486 532.329 789.914 572.918C790.225 574.877 790.456 575.676 790.609 577.619C780.225 605.452 755.554 628.194 724.121 633.172C692.689 638.15 662.646 629.865 644.171 606.603Z" fill="#CC348D"/>
<path d="M742.957 590.125C743.199 588.518 744.698 587.414 746.304 587.656L752.262 588.555L753.795 582.728C754.208 581.157 755.816 580.22 757.387 580.632C758.956 581.045 759.895 582.654 759.481 584.224L757.277 592.604C756.895 594.057 755.479 594.988 753.996 594.763L745.426 593.47C743.821 593.228 742.715 591.73 742.957 590.125Z" fill="#A71E6E"/>
<path d="M718.075 598.434C718.66 596.92 720.363 596.166 721.877 596.751L729.123 599.548L734.059 593.551C735.091 592.297 736.944 592.118 738.198 593.148C739.451 594.18 739.631 596.033 738.599 597.287L732.315 604.924C731.51 605.903 730.169 606.256 728.986 605.799L719.76 602.237C718.245 601.652 717.491 599.949 718.075 598.434Z" fill="#A71E6E"/>
<path d="M747.957 568.556C748.008 566.933 749.366 565.659 750.989 565.711L758.752 565.954L761.427 558.663C761.987 557.138 763.676 556.356 765.2 556.914C766.724 557.474 767.507 559.163 766.948 560.687L763.542 569.973C763.106 571.163 761.956 571.939 760.689 571.899L750.804 571.588C749.181 571.536 747.906 570.178 747.957 568.556Z" fill="#A71E6E"/>
<path d="M725.481 578.79C725.853 577.21 727.437 576.23 729.017 576.602L736.578 578.38L740.646 571.764C741.496 570.381 743.308 569.949 744.69 570.798C746.074 571.649 746.506 573.46 745.655 574.843L740.476 583.269C739.813 584.348 738.532 584.882 737.298 584.591L727.671 582.326C726.091 581.954 725.11 580.37 725.481 578.79Z" fill="#A71E6E"/>
<path d="M701.78 587.958C702.216 586.393 703.837 585.48 705.401 585.914L712.884 588.001L717.218 581.556C718.124 580.209 719.951 579.851 721.298 580.756C722.645 581.662 723.004 583.488 722.098 584.836L716.579 593.044C715.871 594.096 714.57 594.576 713.349 594.235L703.822 591.579C702.258 591.144 701.344 589.522 701.78 587.958Z" fill="#A71E6E"/>
<path d="M825.167 520.317C824.072 514.622 820.03 510.243 814.9 507.763C809.215 505.015 802.193 504.599 796.364 507.306C785.276 512.456 780.569 520.006 788.122 537.852C791.505 545.847 801.212 553.872 812.301 548.722C824.51 543.052 827.727 533.641 825.167 520.317Z" fill="#C6775C"/>
<path d="M795.084 512.294L796.823 521.632" stroke="#C6775C" stroke-width="13.7253" stroke-linecap="round"/>
<path d="M663.161 553.771C654.075 573.745 651.93 582.683 650.08 604.298C648.878 622.055 650.479 642.362 649.014 661.826" stroke="#CC348D" stroke-width="32.34" stroke-linecap="round"/>
<path d="M633.445 640.6C633.244 646.075 632.973 655.38 632.41 659.848C631.513 666.965 633.816 678.419 649.449 678.047C666.178 677.153 665.707 659.592 665.707 659.592C665.707 659.592 666.153 646.796 666.357 639.943C661.592 640.11 639.662 640.464 633.445 640.6Z" fill="#C6775C"/>
<path d="M757.81 451.57C762.563 490.283 734.367 521.624 695.425 526.406C656.482 531.187 621.542 507.598 616.788 468.885C612.035 430.173 639.75 394.914 678.692 390.133C717.635 385.351 753.056 412.857 757.81 451.57Z" fill="#0084C2"/>
<path d="M720.678 397.945C722.877 399.102 725.01 400.371 727.071 401.746C730.214 410.431 733.698 420.912 732.96 431.426C731.941 445.946 725.086 460.958 717.75 469.703L714.464 466.979C720.982 459.211 727.701 445.228 728.69 431.136C729.582 418.416 725.303 406.235 720.678 397.945Z" fill="#006AAD"/>
<path d="M748.747 568.148C769.014 561.194 782.37 540.912 779.67 518.916C776.566 493.638 753.436 475.678 728.009 478.8C714.205 480.495 702.572 488.06 695.308 498.661C694.293 498.732 693.276 498.82 692.251 498.946C666.754 502.077 648.093 520.962 651.226 546.478C654.359 571.994 677.567 590.141 703.064 587.01C706.714 586.562 710.206 585.689 713.513 584.47L713.47 584.589L714.545 584.088C716.191 583.436 717.782 582.686 719.324 581.861L748.747 568.148Z" fill="#3D3D3D"/>
<path d="M710.891 520.933C691.205 523.35 678.632 518.476 671.912 515.578C669.809 514.671 667.273 512.202 666.995 509.938C666.971 509.743 666.963 508.811 667.126 508.698C691.216 491.841 719.893 458.268 719.893 458.268C719.893 458.268 731.831 457.977 745.911 468.28C747.925 469.753 748.961 470.808 749.391 473.257C750.087 477.212 750.679 482.747 751.104 487.418C751.638 493.277 750.419 499.354 746.566 503.825C740.941 510.351 730.55 518.519 710.891 520.933Z" fill="#C6775C"/>
<path d="M814.269 555.621C807.712 530.45 803.086 507.62 808.182 475.843" stroke="#3DB9B8" stroke-width="8.07185" stroke-miterlimit="10" stroke-linecap="round"/>
<path d="M806.891 498.823C812.594 500.038 814.977 498.493 817.904 493.213C818.134 493.277 821.664 491.854 821.899 491.904C829.065 493.431 836.221 488.251 837.885 480.335C839.548 472.418 835.087 464.764 827.921 463.238C827.719 463.195 827.518 463.177 827.316 463.144C826.882 456.979 822.854 451.716 817.047 450.48C811.24 449.243 805.44 452.413 802.564 457.872C802.366 457.819 802.175 457.753 801.973 457.711C794.808 456.184 787.651 461.364 785.988 469.28C784.324 477.197 788.786 484.851 795.951 486.377C796.187 486.427 796.422 486.452 796.658 486.488C797.211 492.509 801.188 497.609 806.891 498.823ZM815.535 465.873C809.356 463.41 802.605 465.703 800.466 470.986C798.327 476.27 801.594 482.547 807.784 485.003C813.964 487.465 820.705 485.17 822.853 479.889C824.992 474.606 821.717 468.327 815.535 465.873Z" fill="#CC348D"/>
<path d="M815.538 465.871C809.355 463.414 802.608 465.706 800.466 470.989C798.323 476.273 801.598 482.548 807.78 485.005C813.962 487.463 820.709 485.171 822.852 479.888C824.994 474.604 821.72 468.329 815.538 465.871Z" fill="white"/>
<path d="M800.592 508.096C800.592 508.096 805.182 519.248 798.97 522.055C792.757 524.862 788.026 518.535 788.356 512.859C788.628 510.371 791.294 509.888 791.294 509.888L797.711 507.878L800.592 508.096Z" fill="#C6775C"/>
<path d="M823.8 524.917C828.917 546.059 807.237 549.262 807.237 549.262C807.237 549.262 802.005 543.01 806.113 533.777C801.986 532.551 800.574 527.749 802.607 523.324C804.64 518.899 806.254 518.301 812.482 518.013C818.711 517.725 821.569 515.704 823.8 524.917Z" fill="#C6775C"/>
<path d="M813.432 518.685C813.432 518.685 805.57 516.953 802.702 523.771C800.604 528.756 802.684 532.051 804.886 534.54M808.935 545.313C808.935 545.313 804.773 541.795 805.49 537.604C806.208 533.413 810.435 527.952 815.807 530.751M800.416 507.879C804.306 515.291 801.678 522.673 796.189 523.013C791.241 523.318 788.383 518.108 788.329 515.383" stroke="#9F543A" stroke-width="3.542" stroke-linecap="round"/>
<mask id="mask13_1_16945" style="mask-type:luminance" maskUnits="userSpaceOnUse" x="53" y="104" width="989" height="985">
<path d="M53.1123 277.672L868.999 104.686L1041.81 915.655L225.926 1088.64L53.1123 277.672Z" fill="white"/>
</mask>
<g mask="url(#mask13_1_16945)">
<path d="M743.109 508.003C744.07 512.514 741.17 516.95 736.631 517.912C732.094 518.874 727.636 515.998 726.675 511.488C725.714 506.977 728.614 502.541 733.151 501.579C737.69 500.617 742.148 503.493 743.109 508.003Z" fill="#C6775C"/>
<path d="M740.487 503.315C741.448 507.826 738.548 512.262 734.009 513.224C729.472 514.186 725.014 511.31 724.053 506.799C723.092 502.289 725.992 497.853 730.529 496.891C735.068 495.928 739.526 498.804 740.487 503.315Z" fill="#C6775C"/>
<path d="M696.278 498.325C694.642 490.647 699.577 483.095 707.302 481.458C715.026 479.82 722.615 484.716 724.251 492.394L725.812 499.72C727.448 507.398 722.512 514.95 714.788 516.588C707.063 518.225 699.475 513.329 697.839 505.651L696.278 498.325Z" fill="white"/>
<path d="M713.574 486.902C713.468 489.201 711.824 491.232 709.454 491.735C709.41 491.744 709.366 491.747 709.322 491.756C709.077 492.752 709.045 493.811 709.269 494.865L710.265 499.537C711.216 504.003 716.142 506.379 720.265 504.36C723.161 502.943 724.722 499.751 724.053 496.614L723.058 491.942C722.145 487.66 717.582 485.311 713.574 486.902Z" fill="#3D3D3D"/>
<path d="M729.388 487.936C727.765 480.317 731.831 468.692 738.645 467.247C742.766 466.374 744.663 469.705 745.096 471.48L747.487 482.698C749.146 490.484 746.569 501.707 739.516 503.202C733.875 504.398 731.447 497.854 730.78 494.466L729.388 487.936Z" fill="white"/>
<path d="M731.853 485.845C734.036 485.382 735.334 482.798 734.753 480.072C734.565 479.189 734.202 478.399 733.724 477.751C734.728 476.589 735.985 475.747 737.402 475.447C739.89 474.92 741.034 476.931 741.295 478.003L742.738 484.775C743.74 489.475 741.849 494.674 737.592 495.577C734.186 496.299 732.721 492.349 732.318 490.303L731.478 486.361C731.446 486.211 731.42 486.06 731.394 485.909C731.548 485.898 731.701 485.877 731.853 485.845Z" fill="#3D3D3D"/>
<path d="M717.166 516.733C709.84 518.482 700.34 522.066 695.664 503.829C697.246 513.108 699.008 514.892 703.357 517.698C707.705 520.504 722.774 517.113 725.598 509.059C729.08 499.125 728.684 504.088 728.684 504.088C728.684 504.088 724.4 513.629 717.166 516.733Z" fill="#C6775C"/>
<path d="M743.511 506.046C736.185 507.795 731.281 506.088 730.368 499.022C732.668 501.477 733.409 502.083 735.185 503.102C739.683 505.68 745.842 501.235 747.348 497.188C751.02 487.322 750.274 491.466 750.274 491.466C750.274 491.466 753.132 503.025 743.511 506.046Z" fill="#C6775C"/>
<path d="M706.939 479.856C706.939 479.856 699.104 481.406 695.634 487.943C694.93 489.269 693.797 489.51 693.797 489.51C693.797 489.51 703.873 476.582 724.021 480.354C722.877 479.616 719.426 479.17 717.109 478.485C714.791 477.799 706.939 479.856 706.939 479.856Z" fill="#C6775C"/>
<path d="M731.435 469.757C729.985 471.805 727.503 473.534 727.296 475.344C726.458 482.684 728.581 485.078 728.581 485.078C725.202 470.343 740.536 464.296 744.936 468.268C744.256 465.077 743.025 466.711 741.016 466.548C739.008 466.386 733.559 466.756 731.435 469.757Z" fill="#C6775C"/>
<mask id="mask14_1_16945" style="mask-type:luminance" maskUnits="userSpaceOnUse" x="53" y="104" width="989" height="985">
<path d="M53.1123 277.672L868.999 104.686L1041.81 915.655L225.926 1088.64L53.1123 277.672Z" fill="white"/>
</mask>
<g mask="url(#mask14_1_16945)">
<path d="M715.117 529.113C716.82 524.757 721.751 522.593 726.129 524.281C726.544 524.44 727.948 524.829 729.726 524.844C731.455 524.858 733 524.518 734.208 523.809C738.256 521.434 743.472 522.769 745.855 526.791C748.238 530.814 746.888 536.001 742.839 538.376C733.91 543.614 723.973 541.602 719.962 540.056C715.583 538.369 713.414 533.469 715.117 529.113Z" fill="#262626"/>
<path d="M745.835 526.762C743.444 522.764 738.246 521.44 734.208 523.809C733 524.518 731.455 524.858 729.725 524.844C727.948 524.829 726.543 524.44 726.129 524.281C721.75 522.593 716.82 524.757 715.117 529.113C715.075 529.218 715.047 529.326 715.01 529.432C723.71 533.648 737.912 532.313 745.835 526.762Z" fill="white"/>
</g>
<g opacity="0.02">
<path d="M718.266 530.234C718.266 530.234 722.754 542.035 736.263 531.323" stroke="#262626" stroke-width="5.38998" stroke-linecap="round"/>
</g>
</g>
</g>
<mask id="mask15_1_16945" style="mask-type:luminance" maskUnits="userSpaceOnUse" x="124" y="124" width="832" height="832">
<path d="M124.2 124.2H955.8V955.8H124.2V124.2Z" fill="white"/>
</mask>
<g mask="url(#mask15_1_16945)">
<path d="M535.387 508.951L343.86 469.618C331.071 466.992 317.894 471.776 309.769 481.994L153.797 691.598C151.768 694.15 150.043 696.812 148.597 699.547L128.113 695.341L146.341 740.92C152.163 755.878 165.054 768.109 182.903 771.775L454.248 827.5C475.076 831.777 495.428 818.36 499.705 797.532L553.368 536.225C555.935 523.728 547.884 511.518 535.387 508.951Z" fill="#F48C03"/>
<path d="M166.12 729.777L462.233 790.588C483.061 794.865 503.413 781.448 507.69 760.62L561.353 499.314C563.92 486.817 555.869 474.605 543.372 472.039L351.845 432.706C339.057 430.079 325.879 434.864 317.754 445.082L137.014 649.599C113.781 678.817 129.554 722.268 166.12 729.777Z" fill="#FFB34A"/>
<path d="M463.067 778.15C477.623 781.139 491.899 771.728 494.888 757.172L551.783 491.608C553.064 485.369 546.769 478.787 540.53 477.506L349.002 438.173C340.43 436.413 329.459 439.108 324.012 445.958L144.565 655.665C136.172 666.22 133.908 680.088 138.51 692.764C143.112 705.439 153.745 714.627 166.954 717.339L463.067 778.15Z" fill="white"/>
<mask id="mask16_1_16945" style="mask-type:alpha" maskUnits="userSpaceOnUse" x="137" y="437" width="416" height="342">
<path d="M463.944 778.406C478.5 781.395 492.776 771.984 495.765 757.428L552.66 491.863C553.941 485.625 547.646 479.043 541.407 477.762L349.879 438.429C341.307 436.668 330.336 439.364 324.889 446.214L145.442 655.92C137.049 666.476 134.785 680.344 139.387 693.02C143.989 705.695 154.622 714.882 167.831 717.595L463.944 778.406Z" fill="white"/>
</mask>
<g mask="url(#mask16_1_16945)">
<mask id="mask17_1_16945" style="mask-type:luminance" maskUnits="userSpaceOnUse" x="124" y="124" width="832" height="832">
<path d="M124.2 124.2H955.8V955.8H124.2V124.2Z" fill="white"/>
</mask>
<g mask="url(#mask17_1_16945)">
<mask id="mask18_1_16945" style="mask-type:luminance" maskUnits="userSpaceOnUse" x="124" y="124" width="832" height="832">
<path d="M124.2 124.2H955.8V955.8H124.2V124.2Z" fill="white"/>
</mask>
<g mask="url(#mask18_1_16945)">
<mask id="mask19_1_16945" style="mask-type:luminance" maskUnits="userSpaceOnUse" x="124" y="124" width="832" height="832">
<path d="M124.2 124.2H955.8V955.8H124.2V124.2Z" fill="white"/>
</mask>
<g mask="url(#mask19_1_16945)">
<path d="M525.569 446.691C525.469 437.7 511.741 430.517 494.908 430.647C478.074 430.777 464.509 438.171 464.609 447.163C464.709 456.154 478.436 463.337 495.27 463.207C512.103 463.076 525.669 455.682 525.569 446.691ZM525.513 441.726L464.554 442.197L464.609 447.163L525.569 446.691L525.513 441.726Z" fill="#E6A000"/>
<path d="M525.513 441.726C525.614 450.717 512.048 458.111 495.214 458.241C478.381 458.371 464.653 451.188 464.553 442.197C464.453 433.207 478.019 425.812 494.852 425.682C511.686 425.552 525.413 432.735 525.513 441.726Z" fill="#FFC700"/>
<path d="M501.06 455.325C505.542 454.783 509.684 453.663 513.163 452.038C513.905 451.691 514.012 450.911 513.389 450.452L485.275 429.741C484.917 429.477 484.394 429.386 483.914 429.499C480.737 430.249 477.829 431.316 475.34 432.673C474.601 433.075 473.915 433.496 473.282 433.931C472.709 434.325 472.695 434.999 473.249 435.407L499.909 455.047C500.212 455.27 500.639 455.376 501.06 455.325ZM514.518 432.37C509.298 429.639 502.324 428.167 494.881 428.224C494.702 428.225 494.525 428.227 494.348 428.231C493.147 428.253 492.567 429.345 493.423 429.975L517.537 447.74C518.131 448.177 519.116 448.117 519.59 447.603C521.272 445.778 522.15 443.787 522.127 441.752C522.088 438.249 519.386 434.917 514.518 432.37Z" fill="#FFE700"/>
</g>
<mask id="mask20_1_16945" style="mask-type:luminance" maskUnits="userSpaceOnUse" x="124" y="124" width="832" height="832">
<path d="M124.2 124.2H955.8V955.8H124.2V124.2Z" fill="white"/>
</mask>
<g mask="url(#mask20_1_16945)">
<path d="M353.101 801.295C352.868 776.329 321.022 756.384 281.97 756.745C242.918 757.107 211.448 777.638 211.68 802.604C211.913 827.571 243.758 847.516 282.81 847.154C321.862 846.793 353.333 826.262 353.101 801.295ZM352.972 787.509L211.552 788.818L211.68 802.604L353.101 801.295L352.972 787.509Z" fill="#7F7F7F"/>
<path d="M352.973 787.508C353.206 812.473 321.735 833.005 282.683 833.366C243.63 833.728 211.784 813.783 211.552 788.818C211.32 763.852 242.79 743.32 281.843 742.959C320.895 742.597 352.741 762.542 352.973 787.508Z" fill="#D8D8D8"/>
<path d="M296.244 825.27C306.642 823.765 316.252 820.655 324.321 816.141C326.043 815.178 326.291 813.012 324.847 811.738L259.625 754.23C258.794 753.497 257.58 753.242 256.466 753.557C249.096 755.64 242.352 758.602 236.576 762.37C234.863 763.487 233.271 764.655 231.801 765.865C230.473 766.959 230.441 768.829 231.725 769.961L293.573 824.496C294.277 825.117 295.268 825.411 296.244 825.27ZM327.465 761.529C315.356 753.946 299.178 749.857 281.909 750.017C281.495 750.021 281.084 750.026 280.673 750.036C277.888 750.097 276.541 753.128 278.527 754.879L334.47 804.207C335.846 805.421 338.132 805.256 339.231 803.828C343.134 798.759 345.17 793.231 345.118 787.582C345.027 777.855 338.758 768.603 327.465 761.529Z" fill="#D8D8D8"/>
</g>
<mask id="mask21_1_16945" style="mask-type:luminance" maskUnits="userSpaceOnUse" x="124" y="124" width="832" height="832">
<path d="M124.2 124.2H955.8V955.8H124.2V124.2Z" fill="white"/>
</mask>
<g mask="url(#mask21_1_16945)">
<path d="M370.089 695.154C369.866 671.376 339.312 652.381 301.843 652.725C264.374 653.069 234.181 672.623 234.404 696.401C234.627 720.179 265.18 739.174 302.649 738.83C340.118 738.486 370.312 718.932 370.089 695.154ZM369.966 682.024L234.28 683.27L234.404 696.401L370.089 695.154L369.966 682.024Z" fill="#7F7F7F"/>
<path d="M369.967 682.023C370.19 705.799 339.995 725.355 302.527 725.699C265.058 726.043 234.503 707.047 234.281 683.27C234.058 659.493 264.252 639.938 301.721 639.594C339.189 639.25 369.744 658.246 369.967 682.023Z" fill="#D8D8D8"/>
<path d="M315.537 717.988C325.514 716.554 334.734 713.592 342.476 709.293C344.128 708.376 344.367 706.313 342.98 705.1L280.404 650.329C279.606 649.631 278.441 649.389 277.373 649.688C270.302 651.672 263.831 654.493 258.289 658.082C256.646 659.146 255.118 660.258 253.708 661.41C252.434 662.452 252.403 664.233 253.635 665.311L312.975 717.251C313.65 717.842 314.602 718.122 315.537 717.988ZM345.492 657.281C333.875 650.059 318.352 646.165 301.784 646.317C301.387 646.32 300.992 646.326 300.598 646.335C297.926 646.393 296.634 649.28 298.539 650.948L352.214 697.927C353.534 699.083 355.727 698.926 356.781 697.566C360.526 692.739 362.48 687.474 362.429 682.093C362.342 672.83 356.327 664.018 345.492 657.281Z" fill="#D8D8D8"/>
</g>
<mask id="mask22_1_16945" style="mask-type:luminance" maskUnits="userSpaceOnUse" x="124" y="124" width="832" height="832">
<path d="M124.2 124.2H955.8V955.8H124.2V124.2Z" fill="white"/>
</mask>
<g mask="url(#mask22_1_16945)">
<path d="M431.027 580.266C430.827 559.343 403.38 542.628 369.721 542.931C336.062 543.233 308.939 560.44 309.139 581.363C309.339 602.286 336.786 619.001 370.445 618.698C404.104 618.395 431.228 601.189 431.027 580.266ZM430.917 568.712L309.028 569.809L309.139 581.363L431.027 580.266L430.917 568.712Z" fill="#E6A000"/>
<path d="M430.918 568.711C431.118 589.633 403.994 606.84 370.335 607.143C336.676 607.446 309.229 590.731 309.028 569.809C308.828 548.886 335.952 531.679 369.611 531.376C403.27 531.074 430.717 547.789 430.918 568.711Z" fill="#FFC700"/>
<path d="M382.023 600.358C390.985 599.097 399.268 596.49 406.222 592.707C407.706 591.9 407.921 590.085 406.676 589.017L350.462 540.822C349.746 540.208 348.699 539.995 347.74 540.258C341.387 542.004 335.574 544.486 330.596 547.644C329.12 548.58 327.748 549.559 326.481 550.573C325.336 551.49 325.309 553.057 326.415 554.006L379.721 599.709C380.328 600.23 381.182 600.476 382.023 600.358ZM408.932 546.939C398.496 540.584 384.552 537.158 369.668 537.292C369.312 537.295 368.957 537.3 368.602 537.308C366.202 537.359 365.042 539.899 366.753 541.367L414.97 582.706C416.156 583.723 418.126 583.585 419.073 582.388C422.437 578.14 424.192 573.508 424.147 568.773C424.069 560.621 418.665 552.867 408.932 546.939Z" fill="#FFE700"/>
</g>
<mask id="mask23_1_16945" style="mask-type:luminance" maskUnits="userSpaceOnUse" x="124" y="124" width="832" height="832">
<path d="M124.2 124.2H955.8V955.8H124.2V124.2Z" fill="white"/>
</mask>
<g mask="url(#mask23_1_16945)">
<path d="M493.201 489.983C493.056 475.846 473.221 464.552 448.897 464.757C424.573 464.961 404.972 476.587 405.117 490.724C405.262 504.861 425.097 516.154 449.42 515.95C473.744 515.745 493.346 504.12 493.201 489.983ZM493.121 482.176L405.037 482.917L405.117 490.724L493.201 489.983L493.121 482.176Z" fill="#E6A000"/>
<path d="M493.121 482.175C493.266 496.312 473.665 507.938 449.341 508.143C425.017 508.347 405.182 497.054 405.037 482.917C404.892 468.781 424.494 457.154 448.818 456.95C473.141 456.745 492.977 468.039 493.121 482.175Z" fill="#FFC700"/>
<path d="M457.787 503.558C464.264 502.706 470.249 500.945 475.275 498.389C476.347 497.844 476.502 496.617 475.602 495.896L434.979 463.332C434.461 462.917 433.705 462.773 433.011 462.951C428.421 464.13 424.22 465.808 420.622 467.941C419.556 468.574 418.564 469.235 417.649 469.92C416.821 470.54 416.802 471.599 417.601 472.24L456.123 503.12C456.562 503.471 457.179 503.638 457.787 503.558ZM477.233 467.465C469.691 463.171 459.614 460.856 448.858 460.946C448.601 460.949 448.345 460.952 448.088 460.957C446.354 460.992 445.515 462.708 446.752 463.7L481.596 491.631C482.453 492.319 483.877 492.225 484.562 491.417C486.992 488.546 488.261 485.416 488.228 482.217C488.172 476.71 484.267 471.47 477.233 467.465Z" fill="#FFE700"/>
</g>
<path d="M396.063 806.094C414.257 673.283 500.577 477.518 573.584 406.176M152.025 776.115C206.953 653.834 330.584 450.911 514.531 410.685" stroke="#EBF3FF" stroke-width="23.1" stroke-miterlimit="10"/>
</g>
</g>
</g>
</g>
<mask id="mask24_1_16945" style="mask-type:luminance" maskUnits="userSpaceOnUse" x="0" y="0" width="1080" height="1080">
<path d="M0 0H1080V1080H0V0Z" fill="white"/>
</mask>
<g mask="url(#mask24_1_16945)">
<path d="M472 388.526C498.201 388.526 519.474 409.799 519.474 436C519.474 462.201 498.201 483.474 472 483.474C445.799 483.474 424.525 462.201 424.525 436C424.525 409.799 445.799 388.526 472 388.526Z" fill="#D8D8D8"/>
<path d="M579.968 304.156C589.611 304.156 597.44 311.784 597.44 321.179C597.44 330.575 589.611 338.203 579.968 338.203C570.325 338.203 562.496 330.575 562.496 321.179C562.496 311.784 570.325 304.156 579.968 304.156Z" fill="#D8D8D8"/>
</g>
<mask id="mask25_1_16945" style="mask-type:luminance" maskUnits="userSpaceOnUse" x="0" y="0" width="1080" height="1080">
<path d="M0 0H1080V1080H0V0Z" fill="white"/>
</mask>
<g mask="url(#mask25_1_16945)">
<path d="M472 386.515C499.311 386.515 521.485 408.689 521.485 436C521.485 463.311 499.311 485.485 472 485.485C444.69 485.485 422.516 463.311 422.516 436C422.516 408.689 444.69 386.515 472 386.515Z" fill="#D8D8D8"/>
<path d="M537.77 322.771C566.385 322.771 589.618 350.56 589.618 384.787C589.618 419.013 566.385 446.802 537.77 446.802C509.154 446.802 485.921 419.013 485.921 384.787C485.921 350.56 509.154 322.771 537.77 322.771Z" fill="#D8D8D8"/>
<path d="M562.513 327.509C591.128 327.509 614.361 350.742 614.361 379.357C614.361 407.973 591.128 431.206 562.513 431.206C533.897 431.206 510.664 407.973 510.664 379.357C510.664 350.742 533.897 327.509 562.513 327.509Z" fill="#D8D8D8"/>
<path d="M499.353 352.807C527.968 352.807 551.201 376.04 551.201 404.655C551.201 433.271 527.968 456.504 499.353 456.504C470.737 456.504 447.504 433.271 447.504 404.655C447.504 376.04 470.737 352.807 499.353 352.807Z" fill="#D8D8D8"/>
<path d="M472 384.151C504.335 384.151 530.589 407.385 530.589 436C530.589 464.615 504.335 487.849 472 487.849C439.665 487.849 413.411 464.615 413.411 436C413.411 407.385 439.665 384.151 472 384.151Z" fill="#D8D8D8"/>
<path d="M472 384.151C504.335 384.151 530.589 407.385 530.589 436C530.589 464.615 504.335 487.849 472 487.849C439.665 487.849 413.411 464.615 413.411 436C413.411 407.385 439.665 384.151 472 384.151Z" fill="#D8D8D8"/>
</g>
<mask id="mask26_1_16945" style="mask-type:luminance" maskUnits="userSpaceOnUse" x="124" y="124" width="832" height="832">
<path d="M124.2 124.2H955.8V955.8H124.2V124.2Z" fill="white"/>
</mask>
<g mask="url(#mask26_1_16945)">
<path d="M321.234 396.317L372.013 371.888L454.529 395.199L478.675 424.742L458.101 424.765L355.847 408.866L321.234 396.317Z" fill="#744007"/>
<path d="M358.408 409.576L352.626 447.366L441.373 466.497L456.333 422.454L358.408 409.576Z" fill="#744007"/>
<path d="M482.587 392.897C462.5 412.481 431.7 418.833 404.619 406.534C377.537 394.235 362.053 366.862 363.582 338.851C383.668 319.267 414.468 312.915 441.55 325.215C468.631 337.514 484.116 364.886 482.587 392.897Z" fill="white"/>
<path d="M370.761 393.534C351.269 398.749 335.436 396.135 323.139 387.19C313.293 380.027 310.827 385.607 307.891 381.626C305.83 378.833 306.311 371.018 310.822 366.09C312.755 363.979 318.314 359.716 321.077 358.977L321.806 358.814" fill="#C86902"/>
<path d="M370.761 393.534C365.08 395.054 359.533 395.932 354.211 396.205C347.024 396.575 321.806 358.814 321.806 358.814L345.633 322.961L416.368 333.516L415.07 344.365C399.467 358.719 381.095 381.745 374.979 392.38" fill="#C86902"/>
<path d="M413.028 319.088C411.457 328.844 402.275 335.479 392.519 333.907L338.211 325.159C328.455 323.588 321.82 314.406 323.392 304.651C324.964 294.895 334.146 288.26 343.902 289.832L398.209 298.579C407.965 300.151 414.6 309.332 413.028 319.088Z" fill="#C86902"/>
<path d="M355.312 320.964L353.945 335.53L367.888 335.291L369.59 325.397L355.312 320.964Z" fill="#C86902"/>
<path d="M324.756 378.568C315.118 376.39 309.071 366.811 311.249 357.172L323.374 303.518C325.553 293.88 335.132 287.832 344.77 290.01C354.408 292.189 360.456 301.768 358.278 311.406L346.152 365.06C343.974 374.699 334.395 380.746 324.756 378.568Z" fill="#C86902"/>
<path d="M464.325 408.604C472.05 418.957 492.801 428.336 509.295 427.355C519.926 426.723 523.593 432.644 528.098 431.159C531.499 430.038 532.156 425.511 532.601 421.076C533.028 416.835 531.37 409.267 528.912 404.487C526.454 399.707 510.603 381.557 510.603 381.557C510.603 381.557 460.398 403.341 464.325 408.604Z" fill="#C86902"/>
<path d="M461.185 336.744L456.52 346.701C452.873 370.309 457.45 396.121 461.805 406.589C461.805 406.589 463.229 408.204 465.831 410.621C476.028 420.096 509.325 379.534 509.325 379.534L502.365 369.11L503.232 352.499L481.686 339.849L461.185 336.744Z" fill="#C86902"/>
<path d="M471.951 405.007C479.329 411.58 490.638 410.927 497.212 403.549L533.804 362.479C540.378 355.101 539.725 343.791 532.347 337.218C524.97 330.644 513.661 331.297 507.087 338.675L470.495 379.745C463.921 387.123 464.573 398.433 471.951 405.007Z" fill="#C86902"/>
<path d="M450.578 329.855C447.756 339.325 453.145 349.29 462.614 352.112L515.331 367.822C524.8 370.644 534.765 365.255 537.587 355.786C540.409 346.316 535.02 336.351 525.551 333.529L472.834 317.819C463.365 314.997 453.4 320.386 450.578 329.855Z" fill="#C86902"/>
<path d="M488.426 357.123L487.927 363.649L495.369 367.308L497.373 356.264L488.426 357.123Z" fill="#C86902"/>
<path d="M413.936 327.136C419.221 315.498 432.941 310.349 444.579 315.634C456.217 320.919 461.366 334.638 456.081 346.277L450.754 358.005C445.469 369.643 431.75 374.793 420.112 369.507C408.474 364.222 403.324 350.503 408.609 338.865L413.936 327.136Z" fill="#FFCBA3"/>
<path d="M391.644 273.748C394.559 247.036 396.124 221.69 422.836 224.606L443.392 226.85C470.104 229.766 489.394 253.784 486.479 280.496C483.563 307.208 459.545 326.499 432.833 323.583L412.276 321.339C385.564 318.423 388.728 300.461 391.644 273.748Z" fill="#3D3D3D"/>
<path d="M358.596 298.234C362.924 258.824 398.596 248.264 427.573 251.426L460.654 255.038C483.574 258.161 500.55 284.078 497.387 313.056C494.223 342.033 475.866 362.056 449.199 359.974L416.118 356.364C387.141 353.2 354.395 336.508 358.596 298.234Z" fill="#FFCBA3"/>
<path d="M504.715 326.629C504.093 332.328 498.969 336.443 493.27 335.822C487.571 335.2 483.455 330.075 484.077 324.376C484.699 318.677 489.823 314.562 495.522 315.184C501.221 315.805 505.336 320.93 504.715 326.629Z" fill="#FFCBA3"/>
<path d="M369.981 298.388C369.36 304.087 364.235 308.202 358.536 307.581C352.837 306.959 348.722 301.835 349.343 296.136C349.965 290.437 355.09 286.321 360.789 286.943C366.487 287.565 370.603 292.689 369.981 298.388Z" fill="#FFCBA3"/>
<path d="M364.912 309.098C364.569 312.235 361.75 314.501 358.612 314.158C355.475 313.815 353.21 310.995 353.553 307.858C353.896 304.721 356.715 302.456 359.853 302.799C362.99 303.141 365.255 305.961 364.912 309.098Z" fill="#C86902"/>
<path d="M471.585 259.059C469.827 262.425 475.582 266.606 475.145 270.61L481.41 284.531C488.224 305.553 486.267 309.773 493.805 317.68L496.174 317.939C496.771 315.581 497.19 315.848 497.462 313.361C499.83 291.669 491.962 269.005 471.585 259.059Z" fill="#D6C5B9"/>
<path d="M362.952 280.817C362.06 283.155 361.346 285.516 360.803 287.887L378.194 294.625C394.384 300.801 412.514 292.682 418.689 276.493L423.382 264.186C424.817 260.423 410.316 250.668 410.286 246.871C389.774 247.65 370.728 260.429 362.952 280.817Z" fill="#D6C5B9"/>
<path d="M422.671 271.775C423.072 264.672 429.155 259.239 436.258 259.64L481.21 253.393C482.206 253.449 485.793 260.012 486.067 264.425C486.887 277.63 475.367 287.651 462.157 286.906L434.259 285.332C427.459 284.948 422.256 279.124 422.64 272.323L422.671 271.775Z" fill="#3D3D3D"/>
<path d="M485.375 267.601L483.628 259.249L480.186 253.549L444.761 247.32L426.3 258.357L485.375 267.601Z" fill="#3D3D3D"/>
<path d="M380.729 220.109C383.286 205.056 394.528 190.04 414.072 191.191C431.635 192.215 444.641 207.67 444.792 225.774L440.903 285.378L422.003 284.35C397.316 283.009 379.277 261.796 379.065 236.348C379.065 236.348 379.762 223.012 380.729 220.109Z" fill="#3D3D3D"/>
<path d="M379.768 223.643C382.391 203.608 396.267 189.67 413.922 191.173C402.448 201.572 381.325 226.946 394.249 272.349C387.384 267.715 379.389 251.473 379.277 237.997L379.768 223.643Z" fill="#515151"/>
<mask id="mask27_1_16945" style="mask-type:luminance" maskUnits="userSpaceOnUse" x="25" y="-95" width="1130" height="1131">
<path d="M25.5859 306.165L754.53 -94.085L1154.78 634.859L425.835 1035.11L25.5859 306.165Z" fill="white"/>
</mask>
<g mask="url(#mask27_1_16945)">
<path d="M409.454 318.272C410.164 311.759 416.928 307.155 424.56 307.988C432.193 308.821 437.802 314.776 437.092 321.289L436.29 328.635C435.579 335.148 428.816 339.752 421.183 338.919C413.551 338.085 407.941 332.131 408.652 325.618L409.454 318.272Z" fill="white"/>
<path d="M422.311 324.343C424.357 324.418 426.112 323.12 426.308 321.326C426.412 320.37 426.054 319.456 425.391 318.755C426.482 318.25 427.794 318.022 429.174 318.173C432.552 318.541 435.051 321.034 434.756 323.739L434.083 329.906C433.787 332.611 430.809 334.505 427.431 334.136C424.053 333.768 421.554 331.275 421.85 328.57L422.311 324.343Z" fill="#3D3D3D"/>
<path d="M436.643 329.181C436.643 329.181 429.659 326.745 423.235 324.339C418.152 322.435 408.987 316.731 408.987 316.731C408.989 316.702 409.577 313.937 409.58 313.908L410.509 310.994C411.22 304.481 417.167 304.389 424.799 305.222C432.431 306.055 438.18 312.263 437.469 318.776L436.529 325.868C436.525 325.897 436.646 329.152 436.643 329.181Z" fill="#FFCBA3"/>
<path d="M443.885 322.031C444.595 315.518 451.359 310.913 458.991 311.747C466.623 312.58 472.232 318.534 471.522 325.047L470.72 332.393C470.01 338.906 463.246 343.51 455.615 342.677C447.983 341.843 442.373 335.889 443.083 329.376L443.885 322.031Z" fill="white"/>
<path d="M454.992 326.589C456.95 326.574 458.596 325.303 458.786 323.569C458.886 322.649 458.559 321.769 457.944 321.079C459.059 320.532 460.42 320.281 461.853 320.438C465.231 320.807 467.73 323.299 467.434 326.004L466.761 332.171C466.466 334.876 463.488 336.77 460.11 336.401C456.732 336.033 454.234 333.541 454.529 330.836L454.992 326.589Z" fill="#3D3D3D"/>
<path d="M453.471 344.414C456.162 339.379 466.36 332.004 471.928 328.776L476.184 335.342L462.497 346.541L453.471 344.414Z" fill="#FFCBA3"/>
<path d="M471.951 319.939C471.954 319.91 472.447 319.174 472.45 319.145L472.439 317.516C473.15 311.004 466.861 309.814 459.229 308.981C451.598 308.147 444.834 312.751 444.123 319.264L443.322 326.61C443.318 326.639 443.315 326.667 443.312 326.696C443.312 326.696 450.339 326.592 455.735 327.181C461.132 327.77 471.951 319.939 471.951 319.939Z" fill="#FFCBA3"/>
<path d="M435.877 327.658C431.404 327.324 414.043 321.703 404.818 312.467" stroke="#E99B5F" stroke-width="3.85" stroke-miterlimit="10" stroke-linecap="round"/>
<path d="M443.272 327.488C456.603 328.422 470.026 321.27 473.921 317.738" stroke="#E99B5F" stroke-width="3.85" stroke-miterlimit="10" stroke-linecap="round"/>
<path d="M444.786 341.827C445.007 344.671 442.882 347.157 440.038 347.378C437.194 347.6 434.709 345.475 434.487 342.631C434.265 339.788 437.48 333.042 438.911 332.93C440.342 332.819 444.564 338.983 444.786 341.827Z" fill="#E89665"/>
<path d="M451.543 352.682C460.946 353.355 462.742 344.375 462.742 344.375" stroke="#E99B5F" stroke-width="3.85" stroke-linecap="round"/>
</g>
<path d="M331.27 479.388C326.973 473.684 328.115 465.574 333.82 461.277L353.684 446.316C359.389 442.019 367.498 443.16 371.795 448.865C376.092 454.571 374.95 462.68 369.246 466.976L349.381 481.938C343.676 486.235 335.567 485.094 331.27 479.388Z" fill="#FFB100"/>
<path d="M310.141 423.01C305.516 408.109 313.845 392.281 328.745 387.656C343.645 383.032 359.473 391.362 364.098 406.262L372.33 432.162C375.852 445.875 368.996 459.818 355.587 463.98C342.177 468.142 330.674 459.613 323.769 447.235L310.141 423.01Z" fill="#744007"/>
<path d="M431.979 501.076C438.879 499.231 442.977 492.144 441.133 485.243L434.712 461.218C432.867 454.318 425.779 450.219 418.879 452.064C411.978 453.908 407.879 460.996 409.724 467.896L416.145 491.921C417.989 498.822 425.078 502.92 431.979 501.076Z" fill="#FFB100"/>
<path d="M456.282 469.828C445.59 479.132 431.877 483.258 420.672 474.796C409.468 466.335 407.744 450.894 415.706 439.186L432.229 417.61C441.632 405.159 459.346 402.688 471.796 412.089C484.247 421.491 486.718 439.206 477.315 451.656L456.282 469.828Z" fill="#744007"/>
<path d="M329.47 364.08C328.473 367.918 330.776 371.838 334.614 372.835L344.784 375.476C348.622 376.473 352.541 374.169 353.538 370.331C354.535 366.493 352.232 362.574 348.394 361.577L338.224 358.935C334.386 357.939 330.466 360.242 329.47 364.08Z" fill="#FFCBA3"/>
<path d="M362.301 474.546L359.98 488.954L356.655 509.589C354.104 524.741 364.319 539.093 379.471 541.644L382.02 542.073C397.171 544.624 411.523 534.409 414.074 519.258L416.542 503.937L419.719 484.214C423.882 459.49 366.464 449.82 362.301 474.546Z" fill="#D52D2D"/>
<path d="M368.247 565.21C367.869 568.365 364.809 570.468 361.723 569.711C356.063 568.321 351.576 566.012 348.097 563.027C343.493 559.078 341.017 554.254 339.763 549.727C338.522 545.247 338.456 540.999 338.671 537.937C338.78 536.39 338.964 535.102 339.125 534.18C339.206 533.718 339.282 533.345 339.341 533.074C339.361 532.981 339.379 532.899 339.395 532.83L361.962 398.808C362.868 393.43 359.057 387.585 354.505 385.09C352.237 383.847 350.177 383.041 348.704 382.552C347.971 382.308 347.391 382.145 347.015 382.047C346.827 381.998 346.691 381.966 346.612 381.948C346.573 381.939 346.548 381.934 346.539 381.932L346.544 381.933L346.551 381.934L346.537 381.931C344.327 381.467 342.574 379.671 342.342 377.424C341.95 373.637 345.239 370.895 348.636 371.577L347.597 376.756C348.636 371.577 348.638 371.577 348.64 371.577L348.646 371.579L348.656 371.581L348.682 371.587C348.701 371.59 348.725 371.595 348.753 371.601C348.808 371.613 348.88 371.629 348.967 371.649C349.141 371.688 349.377 371.745 349.669 371.821C350.252 371.972 351.059 372.2 352.038 372.526C353.989 373.175 356.653 374.22 359.583 375.826C365.428 379.03 374.587 387.459 372.381 400.562L349.784 534.759C349.784 534.759 349.784 534.759 344.575 533.883L349.784 534.759L349.747 534.977L349.699 535.166C349.699 535.166 349.699 535.167 349.698 535.172C349.696 535.174 349.697 535.177 349.695 535.182C349.69 535.204 349.679 535.251 349.664 535.321C349.633 535.461 349.586 535.692 349.532 536.002C349.423 536.623 349.29 537.546 349.21 538.677C349.049 540.971 349.123 543.939 349.944 546.907C350.753 549.827 352.263 552.682 354.976 555.009C357.029 556.77 359.979 558.409 364.27 559.458C366.859 560.09 368.565 562.564 368.247 565.21Z" fill="#AFAFAF"/>
<path d="M303.524 360.267L345.905 368.79C349.909 369.595 352.502 373.494 351.698 377.498C350.892 381.503 346.994 384.096 342.99 383.29L300.609 374.768C296.605 373.962 294.011 370.064 294.816 366.06C295.622 362.055 299.52 359.462 303.524 360.267Z" fill="#4B4B4B"/>
<path d="M468.969 381.94L458.462 382.021C454.497 382.051 451.306 385.291 451.337 389.256C451.367 393.221 454.606 396.411 458.572 396.381L469.079 396.3C473.045 396.269 476.235 393.03 476.204 389.064C476.174 385.099 472.934 381.909 468.969 381.94Z" fill="#FFCBA3"/>
<path d="M373.272 565.871C373.839 563.267 376.261 561.488 378.914 561.738C383.312 562.152 386.636 561.571 389.153 560.579C392.479 559.268 394.839 557.065 396.56 554.572C398.308 552.036 399.349 549.256 399.949 547.035C400.244 545.941 400.421 545.024 400.521 544.402C400.572 544.091 400.602 543.858 400.619 543.716C400.627 543.645 400.633 543.596 400.635 543.574C400.636 543.57 400.636 543.566 400.636 543.564C400.637 543.559 400.637 543.557 400.637 543.558L400.653 543.363L400.69 543.146L405.899 544.023C400.689 543.147 400.69 543.147 400.69 543.146L423.287 408.949C425.493 395.846 436.908 390.88 443.479 389.767C446.773 389.209 449.633 389.094 451.689 389.121C452.72 389.134 453.557 389.181 454.158 389.23C454.459 389.254 454.7 389.278 454.878 389.297C454.967 389.307 455.039 389.315 455.095 389.322C455.123 389.326 455.148 389.329 455.167 389.332L455.194 389.335L455.204 389.337L455.209 389.337C455.212 389.338 455.214 389.338 454.499 394.572L455.213 389.337C458.646 389.806 460.857 393.474 459.246 396.924C458.29 398.97 456.047 400.094 453.807 399.808L453.792 399.807L453.799 399.807L453.804 399.808C453.795 399.807 453.77 399.804 453.73 399.799C453.649 399.79 453.51 399.777 453.317 399.761C452.93 399.731 452.328 399.694 451.556 399.685C450.003 399.664 447.793 399.753 445.243 400.184C440.124 401.051 434.611 405.324 433.705 410.703L411.138 544.725C411.13 544.796 411.12 544.878 411.109 544.973C411.076 545.248 411.026 545.626 410.951 546.089C410.801 547.013 410.553 548.29 410.149 549.787C409.35 552.75 407.896 556.743 405.257 560.57C402.59 564.437 398.67 568.184 393.027 570.408C388.762 572.089 383.767 572.8 377.963 572.259C374.799 571.964 372.596 568.976 373.272 565.871Z" fill="#AFAFAF"/>
<path d="M507.454 401.92C506.904 405.967 503.177 408.801 499.13 408.251L456.295 402.425C452.248 401.875 449.413 398.147 449.963 394.1C450.514 390.053 454.242 387.218 458.289 387.768L501.123 393.595C505.17 394.145 508.004 397.873 507.454 401.92Z" fill="#4B4B4B"/>
<path d="M467.719 408.457L487.45 413.292C493.087 414.673 498.775 411.223 500.156 405.587L502.324 396.742C503.705 391.105 500.255 385.417 494.618 384.036L474.887 379.201C469.251 377.82 463.562 381.271 462.181 386.907L460.014 395.751C458.633 401.388 462.083 407.076 467.719 408.457Z" fill="#FFCBA3"/>
<path d="M387.451 481.432L385.658 481.163C375.003 479.566 381.81 459.478 362.973 496.98C344.137 534.483 340.617 594.859 342.66 608.996C344.704 623.132 347.905 628.998 358.56 630.594L360.353 630.863C371.007 632.459 381.164 625.379 383.038 615.046L403.351 503.031C405.225 492.699 398.106 483.029 387.451 481.432Z" fill="#4B4B4B"/>
<path d="M403.367 503.899C411.443 524.278 393.054 601.34 381.624 619.309C375.671 600.74 384.47 524.584 403.367 503.899Z" fill="#2B2B2B"/>
<path d="M397.703 530.803C393.489 530.49 381.953 595.869 386.368 596.346C389.834 596.721 400.833 531.035 397.703 530.803Z" fill="#AFAFAF"/>
<path d="M392.597 558.693C394.209 557.521 395.505 556.101 396.56 554.572C398.308 552.036 399.35 549.256 399.949 547.035C400.244 545.941 400.422 545.024 400.522 544.402C400.572 544.091 400.603 543.858 400.619 543.716C400.628 543.645 400.633 543.596 400.636 543.574C400.636 543.57 400.636 543.566 400.636 543.564C400.637 543.559 400.637 543.557 400.637 543.558L400.654 543.363L400.69 543.146L405.899 544.023C400.69 543.147 400.691 543.147 400.69 543.146L423.287 408.949C425.494 395.846 436.908 390.88 443.479 389.767C446.774 389.209 447.794 399.753 445.243 400.184C440.125 401.051 434.611 405.324 433.705 410.703L411.138 544.725C411.131 544.796 411.121 544.878 411.109 544.973C411.077 545.249 411.026 545.626 410.951 546.089C410.801 547.013 410.553 548.29 410.15 549.787C409.35 552.75 407.896 556.743 405.257 560.57C402.59 564.437 398.671 568.184 393.027 570.408C392.349 570.676 391.37 570.821 390.204 570.865C391.341 565.424 392.2 560.322 392.597 558.693Z" fill="#AFAFAF"/>
<path d="M343.436 374.948L343.684 365.845C343.842 360.045 339.266 355.214 333.465 355.056L313.159 354.503C307.358 354.345 302.527 358.921 302.369 364.722L302.122 373.825C301.964 379.626 306.539 384.456 312.34 384.614L332.647 385.167C338.447 385.324 343.278 380.749 343.436 374.948Z" fill="#FFCBA3"/>
<path d="M356.066 453.043L353.194 467.915L349.08 489.214C345.944 504.85 356.219 520.042 372.03 523.147L374.689 523.669C390.5 526.774 405.861 516.615 408.997 500.98L412.051 485.166L415.982 464.809C421.1 439.294 361.185 427.526 356.066 453.043Z" fill="#FF4B4B"/>
<path d="M394.233 380.068C380.912 381.685 357.293 390.162 358.664 424.839C410.453 425.298 432.488 420.319 432.488 420.319C432.488 420.319 429.019 379.848 394.233 380.068Z" fill="#FF4B4B"/>
<path d="M395.838 395.046C416.313 395.228 432.835 406.975 432.708 421.262C432.581 435.549 415.854 447.001 395.379 446.819C374.904 446.638 358.382 434.891 358.509 420.604C358.635 406.317 375.363 394.865 395.838 395.046Z" fill="#FF4B4B"/>
<path d="M419.219 425.07C416.972 435.552 403.305 441.565 388.695 438.498C374.084 435.432 364.062 424.447 366.31 413.965C368.557 403.482 382.224 397.471 396.834 400.537C411.444 403.604 421.467 414.587 419.219 425.07Z" fill="#DDF4FF"/>
</g>
</g>
</g>
</g>
<defs>
<clipPath id="clip0_1_16945">
<rect width="1080" height="1080" fill="white"/>
</clipPath>
</defs>
</svg>
