<svg width="1080" height="1080" viewBox="0 0 1080 1080" fill="none" xmlns="http://www.w3.org/2000/svg">
<g clip-path="url(#clip0_1_294)">
<mask id="mask0_1_294" style="mask-type:luminance" maskUnits="userSpaceOnUse" x="0" y="0" width="1080" height="1080">
<path d="M1080 0H0V1080H1080V0Z" fill="white"/>
</mask>
<g mask="url(#mask0_1_294)">
<mask id="mask1_1_294" style="mask-type:luminance" maskUnits="userSpaceOnUse" x="5" y="51" width="1026" height="1026">
<path d="M5 51H1031V1077H5V51Z" fill="white"/>
</mask>
<g mask="url(#mask1_1_294)">
<mask id="mask2_1_294" style="mask-type:luminance" maskUnits="userSpaceOnUse" x="-30" y="58" width="1051" height="1050">
<path d="M-29.675 58.125H1020.07V1107.88H-29.675V58.125Z" fill="white"/>
</mask>
<g mask="url(#mask2_1_294)">
<mask id="mask3_1_294" style="mask-type:luminance" maskUnits="userSpaceOnUse" x="18" y="106" width="954" height="954">
<path d="M18.7749 106.575H971.625V1059.42H18.7749V106.575Z" fill="white"/>
</mask>
<g mask="url(#mask3_1_294)">
<path d="M279.194 524.052C275.059 525.551 273.199 528.709 272.193 532.638C271.186 536.567 271.033 541.268 270.311 545.855C269.321 552.143 266.701 562.963 265.538 572.858C264.375 582.752 264.668 591.721 269.504 594.305C272.395 595.85 277.592 596.052 283.304 595.867C289.015 595.683 295.241 595.112 300.189 595.112C312.521 595.112 322.552 595.314 332.459 595.516C342.365 595.718 352.147 595.92 363.981 595.92C368.267 595.92 374.967 596.368 381.081 596.39C387.196 596.412 392.723 596.009 394.666 594.305C396.992 592.264 397.995 586.047 398.52 579.107C399.045 572.167 399.094 564.507 399.511 559.582C399.899 555.012 401.212 547.82 401.672 541.128C402.131 534.435 401.736 528.243 398.704 525.667C395.546 522.987 379.531 523.245 371.249 523.245C345.665 523.245 333.235 523.245 310.686 523.245C301.317 523.245 285.008 521.945 279.194 524.052Z" fill="#58CC02"/>
<path d="M280.405 524.86C276.275 526.311 274.42 530.178 273.313 535.483C272.207 540.789 271.849 547.533 270.715 554.737C269.771 560.737 268.091 567.741 267.084 573.679C266.077 579.617 265.741 584.491 267.485 586.23C268.765 587.507 274.505 587.893 280.79 587.968C287.075 588.043 293.903 587.809 297.362 587.845C310.024 587.977 319.749 587.977 329.42 587.944C339.091 587.911 348.709 587.845 361.155 587.845C366.418 587.845 373.102 588.371 378.863 588.532C384.624 588.694 389.462 588.492 391.032 587.037C394.75 583.594 394.351 565.323 395.07 557.16C395.622 550.882 400.239 530.705 396.685 526.475C394.399 523.755 376.429 524.86 369.23 524.86C336.5 524.86 307.498 522.123 281.212 524.052C280.414 524.111 280.699 524.757 280.405 524.86Z" fill="white"/>
<path d="M280.405 524.86C276.275 526.311 274.42 530.178 273.313 535.483C272.207 540.789 271.849 547.533 270.715 554.737C269.771 560.737 268.091 567.741 267.084 573.679C266.077 579.617 265.741 584.491 267.485 586.23C268.765 587.507 274.505 587.893 280.79 587.968C287.075 588.043 293.903 587.809 297.362 587.845C310.024 587.977 319.749 587.977 329.42 587.944C339.091 587.911 348.709 587.845 361.155 587.845C366.418 587.845 373.102 588.371 378.863 588.532C384.624 588.694 389.462 588.492 391.032 587.037C394.75 583.594 394.351 565.323 395.07 557.16C395.622 550.882 400.239 530.705 396.685 526.475C394.399 523.755 376.429 524.86 369.23 524.86C336.5 524.86 307.498 522.123 281.212 524.052C280.414 524.111 280.699 524.757 280.405 524.86Z" stroke="#89E219" stroke-width="7.2675" stroke-linejoin="round"/>
<path d="M282.827 532.128C281.056 533.395 280.139 537.334 279.517 541.914C278.896 546.495 278.57 551.715 277.982 555.545C277.808 556.679 276.851 562.347 276.012 567.826C275.173 573.304 274.453 578.593 274.752 578.963C274.911 579.157 276.875 579.63 279.03 579.918C281.184 580.206 283.527 580.31 284.442 579.77C285.906 578.905 286.807 573.795 287.397 568.528C287.986 563.261 288.263 557.838 288.48 556.353C289.51 549.268 296.724 522.181 282.827 532.128Z" fill="#89E219"/>
<path d="M321.587 537.78C315.282 538.935 310.343 541.63 306.825 544.808C303.308 547.988 301.213 551.649 300.592 554.738C299.401 560.675 300.986 565.722 303.894 569.486C306.802 573.249 311.032 575.731 315.127 576.54C321.4 577.779 327.176 576.594 332.231 574.582C337.286 572.57 341.619 569.73 345.005 567.658C346.399 566.805 349.768 564.767 352.82 562.75C355.872 560.733 358.607 558.737 358.732 557.968C359.315 554.381 356.764 552.952 353.929 551.822C351.094 550.691 347.977 549.859 347.427 547.47C346.743 544.487 354.806 544.015 351.465 538.588C349.277 535.035 328.389 536.535 321.587 537.78Z" fill="#FF9600"/>
<path d="M317.55 549.085C315.174 549.606 313.284 550.363 311.887 551.365C310.49 552.366 309.585 553.612 309.181 555.113C308.776 556.614 308.872 558.37 309.475 560.39C311.045 565.648 317.119 565.841 322.793 564.118C328.466 562.396 333.737 558.758 333.7 556.353C333.662 553.922 330.364 551.943 326.706 550.652C323.048 549.362 319.029 548.76 317.55 549.085Z" fill="#FFC800"/>
<path d="M385.38 532.935C384.127 533.592 383.267 535.58 382.646 538.246C382.025 540.911 381.643 544.256 381.343 547.626C381.043 550.996 380.825 554.391 380.535 557.16C380.148 560.849 379.336 566.01 379.23 570.293C379.122 574.576 379.72 577.981 382.15 578.155C385.217 578.376 386.417 575.099 386.955 570.679C387.494 566.26 387.373 560.698 387.802 556.352C388.32 551.113 389.697 544.219 389.954 539.154C390.211 534.09 389.346 530.855 385.38 532.935Z" fill="#E1E1E1"/>
<path d="M385.38 532.935C383.456 533.944 382.627 537.465 382.188 541.698C381.75 545.931 381.703 550.877 381.342 554.738C381.022 558.166 380.578 561.457 381.043 563.456C381.507 565.455 382.878 566.164 386.187 564.428C388.082 563.433 389.061 555.567 389.379 547.845C389.697 540.123 389.356 532.544 388.61 532.128C387.373 531.437 385.786 532.722 385.38 532.935Z" fill="#81DE3A"/>
</g>
<mask id="mask4_1_294" style="mask-type:luminance" maskUnits="userSpaceOnUse" x="18" y="106" width="954" height="954">
<path d="M18.7749 106.575H971.625V1059.42H18.7749V106.575Z" fill="white"/>
</mask>
<g mask="url(#mask4_1_294)">
<path d="M499.641 521.63C493.879 522.374 487.768 524.333 481.711 526.642C475.655 528.951 469.654 531.607 464.111 533.742C430.129 546.831 396.966 559.69 363.645 572.536C330.325 585.383 296.846 598.218 262.236 611.262C256.165 613.551 249.995 615.874 245.197 619.088C240.399 622.302 236.974 626.406 236.396 632.257C235.849 637.801 237.89 644.905 240.562 652.018C243.234 659.129 246.536 666.25 248.509 671.825C253.583 686.165 257.667 698.332 261.77 710.621C265.874 722.91 269.999 735.321 275.156 750.152C279.121 761.554 284.915 778.484 296.151 781.645C307.542 784.85 323.44 776.377 334.104 771.955C407.168 741.658 472.235 715.74 545.669 686.36C566.421 678.057 585.121 674.923 578.776 645.177C576.946 636.595 568.873 625.311 563.434 614.492C553.926 595.582 541.275 573.048 531.134 553.93C522.926 538.456 518.991 519.134 499.641 521.63Z" fill="#58CC02"/>
<path d="M497.622 525.667C497.202 525.743 496.899 525.912 496.65 526.078C496.402 526.245 496.209 526.409 496.007 526.475C462.218 537.647 430.451 549.791 398.689 562.356C366.927 574.922 335.17 587.909 301.4 600.765C294.428 603.419 279.992 607.284 267.047 612.287C254.103 617.29 242.65 623.433 241.645 630.642C240.412 639.485 249.009 656.969 252.142 666.172C260.911 691.925 267.125 707.904 276.367 734.81C279.514 743.971 283.489 763.259 291.71 766.302C302.233 770.198 318.79 759.918 328.855 755.805C401.277 726.209 468.994 698.874 541.227 670.21C552.456 665.754 571.188 661.679 572.72 651.637C574.252 641.599 563.552 627.749 558.992 618.53C548.182 596.67 538.786 577.44 527.5 556.352C520.299 542.895 514.595 522.594 497.622 525.667Z" fill="white"/>
<path d="M497.622 525.667C497.202 525.743 496.899 525.912 496.65 526.078C496.402 526.245 496.209 526.409 496.007 526.475C462.218 537.647 430.451 549.791 398.689 562.356C366.927 574.922 335.17 587.909 301.4 600.765C294.428 603.419 279.992 607.284 267.047 612.287C254.103 617.29 242.65 623.433 241.645 630.642C240.412 639.485 249.009 656.969 252.142 666.172C260.911 691.925 267.125 707.904 276.367 734.81C279.514 743.971 283.489 763.259 291.71 766.302C302.233 770.198 318.79 759.918 328.855 755.805C401.277 726.209 468.994 698.874 541.227 670.21C552.456 665.754 571.188 661.679 572.72 651.637C574.252 641.599 563.552 627.749 558.992 618.53C548.182 596.67 538.786 577.44 527.5 556.352C520.299 542.895 514.595 522.594 497.622 525.667Z" stroke="#89E219" stroke-width="7.2675" stroke-linejoin="round"/>
<path d="M278.79 626.605C275.167 626.911 263.899 630.335 262.64 635.487C261.071 641.907 268.604 654.651 271.523 662.942C278.843 683.736 283.422 696.965 290.903 717.852C294.003 726.511 297.378 740.94 303.015 742.885C305.811 743.85 321.601 740.331 324.01 734.81C326.183 729.83 318.809 714.249 315.935 706.547C309.429 689.11 301.033 668.217 294.94 651.637C292.696 645.53 288.685 626.604 282.02 625.797C280.554 625.62 279.304 626.561 278.79 626.605Z" fill="#89E219"/>
<path d="M416.872 588.653C412.88 589.329 408.34 590.84 403.536 592.638C398.731 594.437 393.663 596.521 388.61 598.343C374.329 603.493 359.662 609.551 348.631 618.459C337.601 627.367 330.206 639.125 330.47 655.675C330.682 668.913 336.607 680.074 345.977 687.895C355.347 695.717 368.162 700.201 382.15 700.088C419.5 699.786 432.138 674.9 445.135 647.6C448.658 640.2 459.756 626.041 457.247 617.723C455.834 613.035 449.593 612.285 443.52 611.263C439.643 610.61 427.431 611.003 425.755 608.033C424.66 606.092 433.018 595.247 428.177 589.46C425.868 586.699 420.279 588.075 416.872 588.653Z" fill="#FF9600"/>
<path d="M376.497 634.68C369.554 635.836 363.583 637.873 359.305 641.227C355.027 644.582 352.442 649.252 352.272 655.675C352.166 659.72 353.436 663.116 355.107 665.721C356.779 668.326 358.851 670.139 360.347 671.017C381.196 683.262 400.193 658.661 409.605 648.407C410.403 647.539 419.67 639.638 417.68 636.295C414.663 631.228 377.86 634.453 376.497 634.68Z" fill="#FFC800"/>
<path d="M494.392 544.24C488.395 546.126 488.67 551.33 491.013 557.196C493.356 563.061 497.767 569.587 500.045 574.118C502.233 578.471 504.025 582.067 505.887 585.805C507.749 589.543 509.684 593.422 512.157 598.343C514.543 603.088 518.72 614.373 523.644 624.482C528.568 634.591 534.239 643.523 539.612 643.563C556.903 643.69 542.616 622.064 537.997 612.878C530.555 598.076 521.595 580.802 514.58 566.85C510.119 557.978 504.489 541.065 494.392 544.24Z" fill="#E1E1E1"/>
<path d="M494.392 544.24C489.079 545.912 488.445 549.173 489.659 553.111C490.872 557.049 493.932 561.664 496.007 566.042C498.592 571.497 502.94 582.528 507.697 592.534C512.454 602.541 517.622 611.522 521.847 612.877C538.926 618.354 530.597 599.779 526.692 591.882C523.529 585.485 521.524 581.611 518.617 575.732C513.818 566.029 506.396 540.465 494.392 544.24Z" fill="#81DE3A"/>
</g>
<mask id="mask5_1_294" style="mask-type:luminance" maskUnits="userSpaceOnUse" x="18" y="106" width="954" height="954">
<path d="M18.7749 106.575H971.625V1059.42H18.7749V106.575Z" fill="white"/>
</mask>
<g mask="url(#mask5_1_294)">
<path d="M622.381 544.24C610.851 545.66 603.114 550.778 596.679 557.524C590.243 564.271 585.107 572.645 578.776 580.578C551.491 614.766 524.897 647.966 498.235 681.253C471.572 714.541 444.84 747.916 417.276 782.453C409.117 792.676 393.583 808.802 393.051 818.79C392.698 825.423 396.667 831.4 399.511 838.17C402.145 844.441 403.976 852.267 407.586 855.935C412.145 860.567 424.366 863.715 433.426 867.24C488.933 888.834 541.275 909.525 594.926 930.225C604.483 933.912 614.086 939.205 623.189 939.915C657.255 942.571 663.042 917.915 675.676 896.31C722.574 816.108 767.353 738.227 812.144 660.52C818.341 649.767 832.704 630.211 833.946 620.145C835.091 610.872 832.637 590.862 829.909 586.23C824.103 576.371 798.884 574.753 782.266 571.695C743.855 564.627 712.915 559.004 677.291 552.315C660.533 549.168 638.275 542.284 622.381 544.24Z" fill="#58CC02"/>
<path d="M618.747 548.277C611.447 549.742 605.36 554.898 600.105 560.946C594.85 566.993 590.424 573.932 586.447 578.962C558.806 613.927 532.241 647.277 505.58 680.748C478.92 714.219 452.164 747.812 424.14 783.26C415.846 793.752 399.039 809.583 401.53 820.405C403.528 829.084 416.305 831.444 425.755 834.94C483.163 856.179 538.639 878.128 594.522 898.732C604.1 902.264 615.736 907.334 626.015 906C643.807 903.691 651.214 883.697 659.93 868.855C708.365 786.379 752.348 713.056 801.242 632.257C805.305 625.545 825.133 599.971 823.045 590.267C820.721 579.47 793.419 578.523 778.633 575.732C743.638 569.128 711.648 562.67 678.503 556.352C661.771 553.163 644.612 548.412 627.63 547.47C623.671 547.25 619.04 548.219 618.747 548.277Z" fill="white"/>
<path d="M618.748 548.277C611.447 549.742 605.36 554.898 600.105 560.946C594.85 566.993 590.424 573.932 586.447 578.962C558.806 613.927 532.241 647.277 505.58 680.748C478.92 714.219 452.164 747.812 424.14 783.26C415.846 793.752 399.039 809.583 401.53 820.405C403.528 829.084 416.305 831.444 425.755 834.94C483.163 856.179 538.639 878.128 594.522 898.732C604.1 902.264 615.736 907.334 626.015 906C643.807 903.691 651.214 883.697 659.93 868.855C708.365 786.379 752.348 713.056 801.243 632.257C805.305 625.545 825.133 599.971 823.045 590.267C820.721 579.47 793.419 578.523 778.633 575.732C743.638 569.128 711.648 562.67 678.503 556.352C661.771 553.163 644.612 548.412 627.63 547.47C623.671 547.25 619.04 548.219 618.748 548.277Z" stroke="#89E219" stroke-width="7.2675" stroke-linejoin="round"/>
<path d="M458.055 784.875C454.521 785.364 448.749 789.792 444.021 794.912C439.294 800.032 435.61 805.843 436.252 809.1C437.297 814.392 450.064 816.49 456.44 818.79C495.096 832.73 531.589 845.881 568.682 859.165C578.887 862.82 604.126 875.735 614.71 872.893C621.416 871.092 634.449 853.539 632.475 845.438C630.665 838.006 601.981 832.018 591.292 828.48C559.952 818.108 533.22 808.385 504.082 798.603C491.006 794.212 468.288 783.459 458.055 784.875Z" fill="#89E219"/>
<path d="M658.315 639.525C654.44 640.165 650.587 641.524 646.703 643.152C642.819 644.781 638.902 646.682 634.898 648.408C631.33 649.945 626.988 652.523 622.984 654.638C618.979 656.754 615.312 658.408 613.095 658.098C605.981 657.101 602.514 643.563 592.1 643.563C578.057 643.563 567.496 666.192 561.415 674.248C554.292 683.683 540.318 698.985 534.768 708.97C524.86 726.792 528.103 749.194 539.613 762.265C573.12 800.316 647.886 783.531 676.888 753.383C683.099 746.926 690.882 734.616 693.038 723.505C696.826 703.971 688.352 692.125 683.348 675.863C678.247 659.285 678.135 636.249 658.315 639.525Z" fill="#A6A6A6"/>
<path d="M622.785 694.435C622.297 694.518 622.029 694.655 621.816 694.804C621.603 694.953 621.443 695.112 621.17 695.242C604.205 703.286 572.914 710.777 567.875 730.772C566.167 737.55 568.145 744.819 571.105 748.537C587.144 768.689 635.84 755.422 638.127 730.772C638.733 724.242 636.475 720.315 634.897 712.2C632.982 702.348 634.003 692.515 622.785 694.435Z" fill="#E1E1E1"/>
<path d="M627.63 564.428C623.367 565.574 617.944 569.002 619.555 573.31C621.767 579.224 645.132 581.027 655.085 583C681.047 588.147 707.105 593.701 730.183 598.343C742.167 600.753 756.809 606.519 768.135 605.61C773.92 605.146 780.447 600.446 780.248 596.728C779.866 589.605 757.89 587.461 747.14 585.423C734.763 583.075 721.228 580.285 709.995 578.155C679.371 572.347 658.445 565.489 634.898 563.62C631.191 563.325 627.967 564.337 627.63 564.428Z" fill="#E1E1E1"/>
<path d="M627.63 564.428C624.415 565.292 618.141 568.346 618.748 572.503C619.448 577.3 633.895 579.076 641.358 580.578C660.917 584.512 676.422 587.789 692.23 591.075C702.673 593.246 733.123 601.045 730.99 586.23C730.279 581.292 719.787 580.012 709.995 578.155C684.128 573.249 655.137 565.227 634.898 563.62C631.191 563.325 627.967 564.337 627.63 564.428Z" fill="#81DE3A"/>
</g>
</g>
<mask id="mask6_1_294" style="mask-type:luminance" maskUnits="userSpaceOnUse" x="-62" y="25" width="1115" height="1116">
<path d="M-61.9751 25.825H1052.37V1140.17H-61.9751V25.825Z" fill="white"/>
</mask>
<g mask="url(#mask6_1_294)">
<mask id="mask7_1_294" style="mask-type:luminance" maskUnits="userSpaceOnUse" x="-63" y="22" width="1119" height="1119">
<path d="M-62.7686 23.062L1055.16 22.6716L1055.55 1140.6L-62.3781 1140.99L-62.7686 23.062Z" fill="white"/>
</mask>
<g mask="url(#mask7_1_294)">
<path d="M447.868 608.408C442.019 614.506 442.543 621.555 448.791 624.596" stroke="#FF4B4B" stroke-width="11.8404" stroke-linecap="round"/>
</g>
<path d="M547.977 306.628C547.867 304.994 546.455 303.758 544.821 303.868L319.808 318.972C318.175 319.083 316.939 320.494 317.049 322.128C318.529 344.18 337.607 360.858 359.659 359.378L510.727 349.239C532.779 347.758 549.457 328.68 547.977 306.628Z" fill="#FFB100"/>
<path d="M341.058 225.516C339.186 213.553 345.211 200.981 353.611 195.091C362.012 189.201 370.553 184.749 370.553 184.749C380.135 179.214 391.127 175.907 401.911 173.418C438.068 165.074 466.737 166.328 483.568 167.082C494.888 167.589 504.019 175.873 507.688 186.595C527.33 243.996 536.291 333.92 536.291 333.92C536.291 333.92 309.908 382.77 337.544 317.782C353.428 316.716 346.043 257.383 341.058 225.516Z" fill="#FFB100"/>
<path d="M385.932 197.216C397.277 213.755 419.881 217.965 436.42 206.62C452.959 195.275 457.169 172.671 445.824 156.132C434.479 139.593 411.875 135.383 395.336 146.728C378.797 158.073 374.587 180.677 385.932 197.216Z" fill="#FFB100"/>
<path d="M365.059 176.279C362.894 189.212 369.688 202.613 382.099 209.31C394.51 216.006 409.452 214.329 419.089 205.426C421.094 203.574 420.568 200.28 418.05 198.92C418.05 198.92 384.712 176.107 380.823 176.138C376.934 176.169 373.158 174.873 371.074 173.578C368.99 172.282 365.51 173.587 365.059 176.279Z" fill="#FFB100"/>
<path d="M368.286 176.649L378.394 181.28L384.02 170.005L381.474 169.481C379.544 172.913 376.914 176.594 370.294 173.429C369.258 175.596 368.413 176.382 368.286 176.649Z" fill="#FFB100"/>
<mask id="mask8_1_294" style="mask-type:luminance" maskUnits="userSpaceOnUse" x="-74" y="18" width="1127" height="1127">
<path d="M-53.5083 18.8881L1052.59 38.7357L1032.74 1144.84L-73.3559 1124.99L-53.5083 18.8881Z" fill="white"/>
</mask>
<g mask="url(#mask8_1_294)">
<path d="M521.143 545.443C523.238 532.193 523.78 510.284 521.51 505.062C518.826 498.888 518.218 497.587 518.218 497.587C507.484 500.235 501.203 501.215 492.484 502.21C485.942 502.956 473.174 503.106 467.356 503.931C467.356 503.931 475.062 544.776 472.714 554.701C470.367 564.625 462.484 581.388 459.562 585.119C456.64 588.85 453.942 594.773 456.013 598.429C458.319 602.497 465.5 603.064 470.965 602.182C476.43 601.3 489.912 596.988 499.419 589.992C508.926 582.995 519.048 558.693 521.143 545.443Z" fill="#FFC6B7"/>
</g>
<mask id="mask9_1_294" style="mask-type:luminance" maskUnits="userSpaceOnUse" x="-74" y="18" width="1127" height="1127">
<path d="M-53.5083 18.8881L1052.59 38.7357L1032.74 1144.84L-73.3559 1124.99L-53.5083 18.8881Z" fill="white"/>
</mask>
<g mask="url(#mask9_1_294)">
<path d="M457.692 513.667C456.038 517.778 457.054 543.129 478.817 544.027C499.216 544.329 512.972 539.49 522.748 531.986C543.072 517.126 564.549 482.718 564.549 482.718L494.666 480.348C494.666 480.348 483.979 479.531 479.293 485.74C472.846 494.561 460.287 509.976 457.692 513.667Z" fill="#D22121"/>
</g>
<mask id="mask10_1_294" style="mask-type:luminance" maskUnits="userSpaceOnUse" x="-74" y="18" width="1127" height="1127">
<path d="M-53.5083 18.8887L1052.59 38.7363L1032.74 1144.84L-73.3558 1124.99L-53.5083 18.8887Z" fill="white"/>
</mask>
<g mask="url(#mask10_1_294)">
<path d="M523.706 629.801C545.661 626.744 555.55 611.556 555.55 611.556" stroke="#FF4B4B" stroke-width="29.2064" stroke-linecap="round"/>
</g>
<mask id="mask11_1_294" style="mask-type:luminance" maskUnits="userSpaceOnUse" x="-59" y="16" width="1096" height="1096">
<path d="M-53.3354 16.2916L1036.63 21.1234L1031.79 1111.08L-58.1672 1106.25L-53.3354 16.2916Z" fill="white"/>
</mask>
<g mask="url(#mask11_1_294)">
<path d="M484.897 582.558C484.518 577.839 481.296 558.109 481.205 549.394C462.674 544.374 455.184 535.612 453.062 524.712C451.481 516.338 454.53 509.434 454.91 509.128C464.63 498.706 477.634 489.146 487.45 484.164C497.788 479.175 510.195 476.06 519.692 480.756C529.749 485.763 535.852 496.069 537.367 506.555C540.611 528.715 545.23 575.209 545.709 579.11C550.753 620.59 488.354 625.584 484.897 582.558Z" fill="#FFC6B7"/>
</g>
<path d="M394.478 504.903C395.045 516.344 402.915 535.503 418.655 546.061C432.451 555.582 446.364 561.204 476.389 548.916L481.924 541.378L487.592 534.901C481.621 529.298 453.158 500.231 448.245 495.749C440.664 488.834 429.823 486.68 419.692 487.018C410.584 484.883 396.982 478.131 394.456 483.568C393.626 487.869 394.21 498.762 394.478 504.903Z" fill="#D22121"/>
<path d="M585.489 362.032C588.55 369.914 568.263 386.792 560.381 389.853C552.498 392.913 543.629 389.007 540.569 381.124L540.568 381.123C537.507 373.241 541.414 364.372 549.296 361.312C552.207 360.181 581.643 349.131 584.481 349.751C589.327 350.809 585.489 362.032 585.489 362.032Z" fill="#FFC6B7"/>
<path d="M514.077 498.208C523.94 474.271 482.249 418.121 452.567 415.979C422.886 413.837 397.088 436.162 394.946 465.843C392.804 495.525 420.346 514.752 448.951 519.603C479.931 524.602 505.187 517.603 514.077 498.208Z" fill="#D22121"/>
<path d="M623.604 375.235L611.451 359.76C603.853 352.064 590.361 347.572 579.045 349.586L603.103 321.595C620.075 307.223 645.486 309.332 659.858 326.304C674.23 343.277 672.121 368.688 655.148 383.06L626.169 410.338C632.129 395.846 631.252 388.186 623.604 375.235Z" fill="#FF4B4B"/>
<path d="M522.809 397.724C517.27 394.861 512.51 390.355 509.336 384.448C500.966 368.871 505.5 346.396 522.008 340.11C550.176 329.397 603.212 316.856 619.588 312.858C636.713 308.549 652.914 323.505 654.949 340.947C657.004 358.404 644.344 374.555 626.82 376.542C626.755 376.551 567.843 389.602 552.807 397.683C543.136 402.879 531.875 402.412 522.809 397.724Z" fill="#FF4B4B"/>
<path d="M358.868 440.168C347.249 416.283 364.239 398.152 386.174 391.815C405.075 386.538 423.045 384.058 436.597 382.347L514.296 372.535C549.087 368.141 593.889 399.092 589.533 434.151L589.335 436.072C586.063 468.968 563.433 496.503 530.847 501.103C530.163 501.377 459.536 519.382 459.536 519.382C421.507 518.876 397.654 497.883 373.602 461.354L358.868 440.168Z" fill="#FF4B4B"/>
<path d="M466.103 498.426L441.27 520.883L456.337 536.48L472.527 519.516L466.103 498.426Z" fill="#D22121"/>
<path d="M382.661 332.451C378.349 295.533 371.055 257.281 360.521 232.34L394.103 202.48L508.885 190.726C523.592 232.797 531.043 279.78 535.116 314.644C537.557 335.549 538.975 353.975 539.786 367.22C540.194 373.865 540.451 379.265 540.61 383.087C540.688 384.999 540.745 386.52 540.781 387.61C540.799 388.156 540.81 388.594 540.821 388.919C540.826 389.081 540.828 389.216 540.832 389.322L540.839 389.532C540.838 389.543 540.838 389.551 464.117 391.485C387.396 393.418 387.396 393.426 387.397 393.436L387.394 393.368C387.39 393.242 387.383 393.007 387.372 392.67C387.351 391.995 387.312 390.909 387.251 389.453C387.129 386.535 386.923 382.15 386.582 376.61C385.901 365.484 384.704 349.943 382.661 332.451Z" fill="#FFC6B7"/>
<path d="M362.925 205.521C375.245 203.503 386.867 211.853 388.885 224.173L392.048 243.479C394.066 255.799 385.715 267.421 373.395 269.439C361.075 271.457 349.452 263.107 347.434 250.787L344.272 231.481C342.254 219.161 350.605 207.539 362.925 205.521Z" fill="#FFB100"/>
<path d="M371.432 255.196C379.028 254.034 385.603 259.223 387.117 266.001C388.628 272.765 384.169 280.894 376.853 282.326C369.157 283.831 361.556 277.358 360.483 270.095C359.541 263.72 363.176 256.458 371.432 255.196Z" fill="#FFC6B7"/>
<path d="M340.632 233.998C339.361 235.514 336.566 239.251 336.868 242.694C337.142 245.8 337.214 249.786 337.569 253.403C337.938 257.18 343.26 258.86 345.23 256.797C347.053 254.703 370.061 224.669 370.061 224.669C389.516 206.88 403.481 209.215 428.47 204.707C445.454 202.408 464.754 201.254 482.242 200.205C499.566 199.011 508.474 202.011 513.947 204.958C515.832 205.978 517.743 204.332 517.054 202.282C515.217 196.826 512.49 188.803 511.226 185.256C511.027 184.695 509.621 182.616 509.083 182.287C506.092 180.138 498.03 175.932 481.003 177.179C462.61 178.313 442.607 179.34 425.382 181.644C397.009 186.621 383.135 186.874 361.051 205.744C361.051 205.744 341.826 232.48 340.632 233.998Z" fill="#FF4B4B"/>
<path d="M465.059 231.168C464.093 220.491 472.033 211.046 482.793 210.073C493.554 209.099 503.059 216.966 504.025 227.644L505.089 239.404C506.055 250.081 498.115 259.525 487.355 260.499C476.595 261.472 467.088 253.606 466.123 242.928L465.059 231.168Z" fill="white"/>
<path d="M464.185 247.972C464.501 247.788 470.163 251.115 476.018 254.656C481.844 258.18 482.321 266.711 476.908 269.858C471.495 273.005 464.318 268.368 464.138 261.562C463.958 254.722 463.87 248.155 464.185 247.972Z" fill="#EE9583"/>
<path d="M472.888 230.546C476.791 230.192 479.687 226.933 479.356 223.266C479.315 222.815 479.227 222.379 479.097 221.961C483.734 222.013 487.642 225.343 488.043 229.783L488.978 240.117C489.408 244.872 485.651 249.099 480.588 249.557C475.524 250.015 471.071 246.531 470.641 241.775L469.706 231.441C469.667 231.003 469.662 230.57 469.691 230.143C470.675 230.497 471.762 230.647 472.888 230.546Z" fill="#3D3D3D"/>
<path d="M436.871 214.071C426.14 215.055 418.239 224.554 419.222 235.289L420.305 247.111C420.536 249.622 421.232 251.978 422.3 254.102C425.608 253.059 429.293 253.091 432.824 254.488L440.269 257.432C443.839 258.844 447.467 260.092 451.14 261.172C456.552 257.266 459.82 250.68 459.166 243.55L458.083 231.727C457.1 220.992 447.602 213.088 436.871 214.071Z" fill="white"/>
<path d="M438.505 233.656C442.409 233.302 445.306 230.043 444.974 226.376C444.934 225.925 444.845 225.489 444.716 225.071C449.353 225.123 453.259 228.453 453.661 232.893L454.595 243.226C455.025 247.982 451.27 252.209 446.206 252.667C441.142 253.125 436.689 249.642 436.259 244.886L435.324 234.551C435.284 234.113 435.28 233.68 435.31 233.253C436.294 233.607 437.38 233.757 438.505 233.656Z" fill="#3D3D3D"/>
<path d="M387.063 394.221C387.074 394.559 541.525 390.031 541.526 390.021C541.526 390.021 540.536 373.343 540.128 366.698C539.423 355.187 538.672 349.14 537.14 331.503C535.929 334.221 510.666 349.629 475.681 352.899C417.791 358.215 384.389 346.767 384.263 346.077C384.283 346.297 384.61 350.884 385.144 359.693C385.778 370.133 387.042 393.546 387.063 394.221Z" fill="#FF4B4B"/>
<path d="M387.371 358.475C374.262 359.049 319.791 358.156 303.825 358.605C300.725 368.522 289.618 421.952 289.465 429.88C292.793 427.992 300.299 429.478 300.299 429.478L400.59 455.199C400.59 455.199 400.367 357.935 387.371 358.475Z" fill="#FF4B4B"/>
<path d="M279.693 411.845L284.971 417.516C293.015 426.158 292.531 439.684 283.889 447.728L278.218 453.007C269.576 461.051 256.049 460.566 248.006 451.924L242.727 446.253C234.683 437.611 235.168 424.085 243.81 416.041L249.481 410.763C258.123 402.719 271.649 403.203 279.693 411.845Z" fill="#FFC6B7"/>
<path d="M291.793 450.718C289.039 455.114 283.243 456.447 278.847 453.694C274.45 450.941 273.117 445.145 275.87 440.748C278.623 436.352 284.42 435.019 288.816 437.772C293.213 440.525 294.546 446.321 291.793 450.718Z" fill="#FFC6B7"/>
<path d="M257.764 439.766L257.511 439.487C247.233 430.967 245.436 415.984 251.734 408.259L285.109 367.281C293.733 356.867 309.168 355.415 319.583 364.04C329.998 372.665 331.449 388.099 322.825 398.514L289.7 437.904C281.736 445.729 268.047 448.328 257.764 439.766Z" fill="#FF4B4B"/>
<path d="M616.431 422.787L606.244 430.249C590.72 441.62 568.92 438.255 557.549 422.731L550.087 412.543C538.716 397.02 542.081 375.219 557.605 363.848L567.792 356.388C583.316 345.017 605.116 348.382 616.487 363.906L623.949 374.092C635.319 389.614 631.955 411.416 616.431 422.787Z" fill="#FFC6B7"/>
<path d="M472.999 362.582C471.578 361.579 471.045 359.725 471.719 358.12L475.472 349.191C476.13 347.621 477.776 346.701 479.46 346.964L507.372 351.32C509.751 351.691 511.149 354.197 510.218 356.418L501.493 377.18C500.576 379.363 497.875 380.137 495.941 378.772L472.999 362.582Z" fill="#EBE3E3"/>
<path d="M479.065 353.662C479.065 353.662 494.44 405.371 498.229 426.521C501.607 445.552 509.129 500.339 509.129 500.339" stroke="#EBE3E3" stroke-width="7.67179"/>
<mask id="mask12_1_294" style="mask-type:luminance" maskUnits="userSpaceOnUse" x="-59" y="16" width="1096" height="1096">
<path d="M-53.3354 16.2916L1036.63 21.1234L1031.79 1111.08L-58.1672 1106.25L-53.3354 16.2916Z" fill="white"/>
</mask>
<g mask="url(#mask12_1_294)">
<path d="M484.897 582.558C484.518 577.839 481.296 558.109 481.205 549.394C462.674 544.374 455.184 535.612 453.062 524.712C451.481 516.338 454.53 509.434 454.91 509.128C464.63 498.706 477.634 489.146 487.45 484.164C497.788 479.175 510.195 476.06 519.692 480.756C529.749 485.763 535.852 496.069 537.367 506.555C540.611 528.715 545.23 575.209 545.709 579.11C550.753 620.59 488.354 625.584 484.897 582.558Z" fill="#FFC6B7"/>
</g>
<mask id="mask13_1_294" style="mask-type:luminance" maskUnits="userSpaceOnUse" x="-74" y="19" width="1127" height="1127">
<path d="M-53.3201 19.6936L1052.78 39.5412L1032.93 1145.64L-73.1676 1125.79L-53.3201 19.6936Z" fill="white"/>
</mask>
<g mask="url(#mask13_1_294)">
<path d="M523.894 630.606C545.849 627.549 555.738 612.361 555.738 612.361" stroke="#FF4B4B" stroke-width="29.2064" stroke-linecap="round"/>
</g>
</g>
<mask id="mask14_1_294" style="mask-type:luminance" maskUnits="userSpaceOnUse" x="-144" y="-56" width="1236" height="1236">
<path d="M-43.6689 -55.3485L1091.07 44.4484L991.269 1179.18L-143.466 1079.39L-43.6689 -55.3485Z" fill="white"/>
</mask>
<g mask="url(#mask14_1_294)">
<mask id="mask15_1_294" style="mask-type:luminance" maskUnits="userSpaceOnUse" x="-144" y="-56" width="1236" height="1236">
<path d="M-43.6689 -55.3485L1091.07 44.4484L991.269 1179.18L-143.466 1079.39L-43.6689 -55.3485Z" fill="white"/>
</mask>
<g mask="url(#mask15_1_294)">
<path d="M422.921 268.164C428.852 261.957 438.624 261.899 444.746 268.032C446.666 269.956 448.233 271.219 450.011 272.073C451.648 272.86 454.169 273.636 458.321 273.395C466.825 272.901 474.18 279.563 474.747 288.275C475.313 296.987 468.878 304.449 460.373 304.943C441.17 306.058 429.956 297.209 423.267 290.507C417.145 284.374 416.99 274.371 422.921 268.164Z" fill="#A41414"/>
</g>
<mask id="mask16_1_294" style="mask-type:alpha" maskUnits="userSpaceOnUse" x="418" y="263" width="57" height="43">
<mask id="mask17_1_294" style="mask-type:luminance" maskUnits="userSpaceOnUse" x="-144" y="-56" width="1236" height="1236">
<path d="M-43.6689 -55.3485L1091.07 44.4484L991.269 1179.18L-143.466 1079.39L-43.6689 -55.3485Z" fill="white"/>
</mask>
<g mask="url(#mask17_1_294)">
<path d="M422.921 268.164C428.852 261.957 438.624 261.899 444.746 268.032C446.666 269.956 448.233 271.219 450.011 272.073C451.648 272.86 454.169 273.636 458.321 273.395C466.825 272.901 474.18 279.563 474.747 288.275C475.313 296.987 468.878 304.449 460.373 304.943C441.17 306.058 429.956 297.209 423.267 290.507C417.145 284.374 416.99 274.371 422.921 268.164Z" fill="#A41414"/>
</g>
</mask>
<g mask="url(#mask16_1_294)">
<path d="M459.272 272.599C459.228 272.601 459.184 272.603 459.139 272.606C454.705 272.864 452.013 272.035 450.265 271.196C448.367 270.283 446.693 268.934 444.642 266.879C438.105 260.329 427.671 260.392 421.337 267.02C418.205 270.297 416.662 274.566 416.692 278.835C418.31 281.314 421.198 282.696 424.116 282.104L433.499 280.198C435.97 279.696 437.868 277.898 438.709 275.59C440.383 277.387 442.833 278.303 445.304 277.8L454.687 275.895C456.666 275.493 458.277 274.26 459.272 272.599Z" fill="white"/>
</g>
<mask id="mask18_1_294" style="mask-type:alpha" maskUnits="userSpaceOnUse" x="418" y="263" width="57" height="43">
<mask id="mask19_1_294" style="mask-type:luminance" maskUnits="userSpaceOnUse" x="-144" y="-56" width="1236" height="1236">
<path d="M-43.6689 -55.3485L1091.07 44.4484L991.269 1179.18L-143.466 1079.39L-43.6689 -55.3485Z" fill="white"/>
</mask>
<g mask="url(#mask19_1_294)">
<path d="M422.921 268.164C428.852 261.957 438.624 261.899 444.746 268.032C446.666 269.956 448.233 271.219 450.011 272.073C451.648 272.86 454.169 273.636 458.321 273.395C466.825 272.901 474.18 279.563 474.747 288.275C475.313 296.987 468.878 304.449 460.373 304.943C441.17 306.058 429.956 297.209 423.267 290.507C417.145 284.374 416.99 274.371 422.921 268.164Z" fill="#A41414"/>
</g>
</mask>
<g mask="url(#mask18_1_294)">
<path d="M476.664 288.274C476.67 288.348 476.675 288.423 476.68 288.497C477.285 297.801 470.413 305.77 461.331 306.297C457.059 306.545 453.158 306.332 449.593 305.773C453.136 297.254 460.441 290.686 469.819 288.782C472.118 288.314 474.413 288.154 476.664 288.274Z" fill="#E64340"/>
</g>
</g>
</g>
</g>
<g clip-path="url(#clip1_1_294)">
<mask id="mask20_1_294" style="mask-type:luminance" maskUnits="userSpaceOnUse" x="0" y="0" width="1080" height="1080">
<path d="M1080 0H0V1080H1080V0Z" fill="white"/>
</mask>
<g mask="url(#mask20_1_294)">
<mask id="mask21_1_294" style="mask-type:luminance" maskUnits="userSpaceOnUse" x="5" y="51" width="1026" height="1026">
<path d="M5 51H1031V1077H5V51Z" fill="white"/>
</mask>
<g mask="url(#mask21_1_294)">
<mask id="mask22_1_294" style="mask-type:luminance" maskUnits="userSpaceOnUse" x="-30" y="58" width="1051" height="1050">
<path d="M-29.675 58.125H1020.07V1107.88H-29.675V58.125Z" fill="white"/>
</mask>
<g mask="url(#mask22_1_294)">
<mask id="mask23_1_294" style="mask-type:luminance" maskUnits="userSpaceOnUse" x="18" y="106" width="954" height="954">
<path d="M18.7749 106.575H971.625V1059.42H18.7749V106.575Z" fill="white"/>
</mask>
<g mask="url(#mask23_1_294)">
<path d="M279.194 524.052C275.059 525.551 273.199 528.709 272.193 532.638C271.186 536.567 271.033 541.268 270.311 545.855C269.321 552.143 266.701 562.963 265.538 572.858C264.375 582.752 264.668 591.721 269.504 594.305C272.395 595.85 277.592 596.052 283.304 595.867C289.015 595.683 295.241 595.112 300.189 595.112C312.521 595.112 322.552 595.314 332.459 595.516C342.365 595.718 352.147 595.92 363.981 595.92C368.267 595.92 374.967 596.368 381.081 596.39C387.196 596.412 392.723 596.009 394.666 594.305C396.992 592.264 397.995 586.047 398.52 579.107C399.045 572.167 399.094 564.507 399.511 559.582C399.899 555.012 401.212 547.82 401.672 541.128C402.131 534.435 401.736 528.243 398.704 525.667C395.546 522.987 379.531 523.245 371.249 523.245C345.665 523.245 333.235 523.245 310.686 523.245C301.317 523.245 285.008 521.945 279.194 524.052Z" fill="#58CC02"/>
<path d="M280.405 524.86C276.275 526.311 274.42 530.178 273.313 535.483C272.207 540.789 271.849 547.533 270.715 554.737C269.771 560.737 268.091 567.741 267.084 573.679C266.077 579.617 265.741 584.491 267.485 586.23C268.765 587.507 274.505 587.893 280.79 587.968C287.075 588.043 293.903 587.809 297.362 587.845C310.024 587.977 319.749 587.977 329.42 587.944C339.091 587.911 348.709 587.845 361.155 587.845C366.418 587.845 373.102 588.371 378.863 588.532C384.624 588.694 389.462 588.492 391.032 587.037C394.75 583.594 394.351 565.323 395.07 557.16C395.622 550.882 400.239 530.705 396.685 526.475C394.399 523.755 376.429 524.86 369.23 524.86C336.5 524.86 307.498 522.123 281.212 524.052C280.414 524.111 280.699 524.757 280.405 524.86Z" fill="white"/>
<path d="M280.405 524.86C276.275 526.311 274.42 530.178 273.313 535.483C272.207 540.789 271.849 547.533 270.715 554.737C269.771 560.737 268.091 567.741 267.084 573.679C266.077 579.617 265.741 584.491 267.485 586.23C268.765 587.507 274.505 587.893 280.79 587.968C287.075 588.043 293.903 587.809 297.362 587.845C310.024 587.977 319.749 587.977 329.42 587.944C339.091 587.911 348.709 587.845 361.155 587.845C366.418 587.845 373.102 588.371 378.863 588.532C384.624 588.694 389.462 588.492 391.032 587.037C394.75 583.594 394.351 565.323 395.07 557.16C395.622 550.882 400.239 530.705 396.685 526.475C394.399 523.755 376.429 524.86 369.23 524.86C336.5 524.86 307.498 522.123 281.212 524.052C280.414 524.111 280.699 524.757 280.405 524.86Z" stroke="#89E219" stroke-width="7.2675" stroke-linejoin="round"/>
<path d="M282.827 532.128C281.056 533.395 280.139 537.334 279.517 541.914C278.896 546.495 278.57 551.715 277.982 555.545C277.808 556.679 276.851 562.347 276.012 567.826C275.173 573.304 274.453 578.593 274.752 578.963C274.911 579.157 276.875 579.63 279.03 579.918C281.184 580.206 283.527 580.31 284.442 579.77C285.906 578.905 286.807 573.795 287.397 568.528C287.986 563.261 288.263 557.838 288.48 556.353C289.51 549.268 296.724 522.181 282.827 532.128Z" fill="#89E219"/>
<path d="M321.587 537.78C315.282 538.935 310.343 541.63 306.825 544.808C303.308 547.988 301.213 551.649 300.592 554.738C299.401 560.675 300.986 565.722 303.894 569.486C306.802 573.249 311.032 575.731 315.127 576.54C321.4 577.779 327.176 576.594 332.231 574.582C337.286 572.57 341.619 569.73 345.005 567.658C346.399 566.805 349.768 564.767 352.82 562.75C355.872 560.733 358.607 558.737 358.732 557.968C359.315 554.381 356.764 552.952 353.929 551.822C351.094 550.691 347.977 549.859 347.427 547.47C346.743 544.487 354.806 544.015 351.465 538.588C349.277 535.035 328.389 536.535 321.587 537.78Z" fill="#FF9600"/>
<path d="M317.55 549.085C315.174 549.606 313.284 550.363 311.887 551.365C310.49 552.366 309.585 553.612 309.181 555.113C308.776 556.614 308.872 558.37 309.475 560.39C311.045 565.648 317.119 565.841 322.793 564.118C328.466 562.396 333.737 558.758 333.7 556.353C333.662 553.922 330.364 551.943 326.706 550.652C323.048 549.362 319.029 548.76 317.55 549.085Z" fill="#FFC800"/>
<path d="M385.38 532.935C384.127 533.592 383.267 535.58 382.646 538.246C382.025 540.911 381.643 544.256 381.343 547.626C381.043 550.996 380.825 554.391 380.535 557.16C380.148 560.849 379.336 566.01 379.23 570.293C379.122 574.576 379.72 577.981 382.15 578.155C385.217 578.376 386.417 575.099 386.955 570.679C387.494 566.26 387.373 560.698 387.802 556.352C388.32 551.113 389.697 544.219 389.954 539.154C390.211 534.09 389.346 530.855 385.38 532.935Z" fill="#E1E1E1"/>
<path d="M385.38 532.935C383.456 533.944 382.627 537.465 382.188 541.698C381.75 545.931 381.703 550.877 381.342 554.738C381.022 558.166 380.578 561.457 381.043 563.456C381.507 565.455 382.878 566.164 386.187 564.428C388.082 563.433 389.061 555.567 389.379 547.845C389.697 540.123 389.356 532.544 388.61 532.128C387.373 531.437 385.786 532.722 385.38 532.935Z" fill="#81DE3A"/>
</g>
<mask id="mask24_1_294" style="mask-type:luminance" maskUnits="userSpaceOnUse" x="18" y="106" width="954" height="954">
<path d="M18.7749 106.575H971.625V1059.42H18.7749V106.575Z" fill="white"/>
</mask>
<g mask="url(#mask24_1_294)">
<path d="M499.641 521.63C493.879 522.374 487.768 524.333 481.711 526.642C475.655 528.951 469.654 531.607 464.111 533.742C430.129 546.831 396.966 559.69 363.645 572.536C330.325 585.383 296.846 598.218 262.236 611.262C256.165 613.551 249.995 615.874 245.197 619.088C240.399 622.302 236.974 626.406 236.396 632.257C235.849 637.801 237.89 644.905 240.562 652.018C243.234 659.129 246.536 666.25 248.509 671.825C253.583 686.165 257.667 698.332 261.77 710.621C265.874 722.91 269.999 735.321 275.156 750.152C279.121 761.554 284.915 778.484 296.151 781.645C307.542 784.85 323.44 776.377 334.104 771.955C407.168 741.658 472.235 715.74 545.669 686.36C566.421 678.057 585.121 674.923 578.776 645.177C576.946 636.595 568.873 625.311 563.434 614.492C553.926 595.582 541.275 573.048 531.134 553.93C522.926 538.456 518.991 519.134 499.641 521.63Z" fill="#58CC02"/>
<path d="M497.622 525.667C497.202 525.743 496.899 525.912 496.65 526.078C496.402 526.245 496.209 526.409 496.007 526.475C462.218 537.647 430.451 549.791 398.689 562.356C366.927 574.922 335.17 587.909 301.4 600.765C294.428 603.419 279.992 607.284 267.047 612.287C254.103 617.29 242.65 623.433 241.645 630.642C240.412 639.485 249.009 656.969 252.142 666.172C260.911 691.925 267.125 707.904 276.367 734.81C279.514 743.971 283.489 763.259 291.71 766.302C302.233 770.198 318.79 759.918 328.855 755.805C401.277 726.209 468.994 698.874 541.227 670.21C552.456 665.754 571.188 661.679 572.72 651.637C574.252 641.599 563.552 627.749 558.992 618.53C548.182 596.67 538.786 577.44 527.5 556.352C520.299 542.895 514.595 522.594 497.622 525.667Z" fill="white"/>
<path d="M497.622 525.667C497.202 525.743 496.899 525.912 496.65 526.078C496.402 526.245 496.209 526.409 496.007 526.475C462.218 537.647 430.451 549.791 398.689 562.356C366.927 574.922 335.17 587.909 301.4 600.765C294.428 603.419 279.992 607.284 267.047 612.287C254.103 617.29 242.65 623.433 241.645 630.642C240.412 639.485 249.009 656.969 252.142 666.172C260.911 691.925 267.125 707.904 276.367 734.81C279.514 743.971 283.489 763.259 291.71 766.302C302.233 770.198 318.79 759.918 328.855 755.805C401.277 726.209 468.994 698.874 541.227 670.21C552.456 665.754 571.188 661.679 572.72 651.637C574.252 641.599 563.552 627.749 558.992 618.53C548.182 596.67 538.786 577.44 527.5 556.352C520.299 542.895 514.595 522.594 497.622 525.667Z" stroke="#89E219" stroke-width="7.2675" stroke-linejoin="round"/>
<path d="M278.79 626.605C275.167 626.911 263.899 630.335 262.64 635.487C261.071 641.907 268.604 654.651 271.523 662.942C278.843 683.736 283.422 696.965 290.903 717.852C294.003 726.511 297.378 740.94 303.015 742.885C305.811 743.85 321.601 740.331 324.01 734.81C326.183 729.83 318.809 714.249 315.935 706.547C309.429 689.11 301.033 668.217 294.94 651.637C292.696 645.53 288.685 626.604 282.02 625.797C280.554 625.62 279.304 626.561 278.79 626.605Z" fill="#89E219"/>
<path d="M416.872 588.653C412.88 589.329 408.34 590.84 403.536 592.638C398.731 594.437 393.663 596.521 388.61 598.343C374.329 603.493 359.662 609.551 348.631 618.459C337.601 627.367 330.206 639.125 330.47 655.675C330.682 668.913 336.607 680.074 345.977 687.895C355.347 695.717 368.162 700.201 382.15 700.088C419.5 699.786 432.138 674.9 445.135 647.6C448.658 640.2 459.756 626.041 457.247 617.723C455.834 613.035 449.593 612.285 443.52 611.263C439.643 610.61 427.431 611.003 425.755 608.033C424.66 606.092 433.018 595.247 428.177 589.46C425.868 586.699 420.279 588.075 416.872 588.653Z" fill="#FF9600"/>
<path d="M376.497 634.68C369.554 635.836 363.583 637.873 359.305 641.227C355.027 644.582 352.442 649.252 352.272 655.675C352.166 659.72 353.436 663.116 355.107 665.721C356.779 668.326 358.851 670.139 360.347 671.017C381.196 683.262 400.193 658.661 409.605 648.407C410.403 647.539 419.67 639.638 417.68 636.295C414.663 631.228 377.86 634.453 376.497 634.68Z" fill="#FFC800"/>
<path d="M494.392 544.24C488.395 546.126 488.67 551.33 491.013 557.196C493.356 563.061 497.767 569.587 500.045 574.118C502.233 578.471 504.025 582.067 505.887 585.805C507.749 589.543 509.684 593.422 512.157 598.343C514.543 603.088 518.72 614.373 523.644 624.482C528.568 634.591 534.239 643.523 539.612 643.563C556.903 643.69 542.616 622.064 537.997 612.878C530.555 598.076 521.595 580.802 514.58 566.85C510.119 557.978 504.489 541.065 494.392 544.24Z" fill="#E1E1E1"/>
<path d="M494.392 544.24C489.079 545.912 488.445 549.173 489.659 553.111C490.872 557.049 493.932 561.664 496.007 566.042C498.592 571.497 502.94 582.528 507.697 592.534C512.454 602.541 517.622 611.522 521.847 612.877C538.926 618.354 530.597 599.779 526.692 591.882C523.529 585.485 521.524 581.611 518.617 575.732C513.818 566.029 506.396 540.465 494.392 544.24Z" fill="#81DE3A"/>
</g>
<mask id="mask25_1_294" style="mask-type:luminance" maskUnits="userSpaceOnUse" x="18" y="106" width="954" height="954">
<path d="M18.7749 106.575H971.625V1059.42H18.7749V106.575Z" fill="white"/>
</mask>
<g mask="url(#mask25_1_294)">
<path d="M622.381 544.24C610.851 545.66 603.114 550.778 596.679 557.524C590.243 564.271 585.107 572.645 578.776 580.578C551.491 614.766 524.897 647.966 498.235 681.253C471.572 714.541 444.84 747.916 417.276 782.453C409.117 792.676 393.583 808.802 393.051 818.79C392.698 825.423 396.667 831.4 399.511 838.17C402.145 844.441 403.976 852.267 407.586 855.935C412.145 860.567 424.366 863.715 433.426 867.24C488.933 888.834 541.275 909.525 594.926 930.225C604.483 933.912 614.086 939.205 623.189 939.915C657.255 942.571 663.042 917.915 675.676 896.31C722.574 816.108 767.353 738.227 812.144 660.52C818.341 649.767 832.704 630.211 833.946 620.145C835.091 610.872 832.637 590.862 829.909 586.23C824.103 576.371 798.884 574.753 782.266 571.695C743.855 564.627 712.915 559.004 677.291 552.315C660.533 549.168 638.275 542.284 622.381 544.24Z" fill="#58CC02"/>
<path d="M618.747 548.277C611.447 549.742 605.36 554.898 600.105 560.946C594.85 566.993 590.424 573.932 586.447 578.962C558.806 613.927 532.241 647.277 505.58 680.748C478.92 714.219 452.164 747.812 424.14 783.26C415.846 793.752 399.039 809.583 401.53 820.405C403.528 829.084 416.305 831.444 425.755 834.94C483.163 856.179 538.639 878.128 594.522 898.732C604.1 902.264 615.736 907.334 626.015 906C643.807 903.691 651.214 883.697 659.93 868.855C708.365 786.379 752.348 713.056 801.242 632.257C805.305 625.545 825.133 599.971 823.045 590.267C820.721 579.47 793.419 578.523 778.633 575.732C743.638 569.128 711.648 562.67 678.503 556.352C661.771 553.163 644.612 548.412 627.63 547.47C623.671 547.25 619.04 548.219 618.747 548.277Z" fill="white"/>
<path d="M618.748 548.277C611.447 549.742 605.36 554.898 600.105 560.946C594.85 566.993 590.424 573.932 586.447 578.962C558.806 613.927 532.241 647.277 505.58 680.748C478.92 714.219 452.164 747.812 424.14 783.26C415.846 793.752 399.039 809.583 401.53 820.405C403.528 829.084 416.305 831.444 425.755 834.94C483.163 856.179 538.639 878.128 594.522 898.732C604.1 902.264 615.736 907.334 626.015 906C643.807 903.691 651.214 883.697 659.93 868.855C708.365 786.379 752.348 713.056 801.243 632.257C805.305 625.545 825.133 599.971 823.045 590.267C820.721 579.47 793.419 578.523 778.633 575.732C743.638 569.128 711.648 562.67 678.503 556.352C661.771 553.163 644.612 548.412 627.63 547.47C623.671 547.25 619.04 548.219 618.748 548.277Z" stroke="#89E219" stroke-width="7.2675" stroke-linejoin="round"/>
<path d="M458.055 784.875C454.521 785.364 448.749 789.792 444.021 794.912C439.294 800.032 435.61 805.843 436.252 809.1C437.297 814.392 450.064 816.49 456.44 818.79C495.096 832.73 531.589 845.881 568.682 859.165C578.887 862.82 604.126 875.735 614.71 872.893C621.416 871.092 634.449 853.539 632.475 845.438C630.665 838.006 601.981 832.018 591.292 828.48C559.952 818.108 533.22 808.385 504.082 798.603C491.006 794.212 468.288 783.459 458.055 784.875Z" fill="#89E219"/>
<path d="M658.315 639.525C654.44 640.165 650.587 641.524 646.703 643.152C642.819 644.781 638.902 646.682 634.898 648.408C631.33 649.945 626.988 652.523 622.984 654.638C618.979 656.754 615.312 658.408 613.095 658.098C605.981 657.101 602.514 643.563 592.1 643.563C578.057 643.563 567.496 666.192 561.415 674.248C554.292 683.683 540.318 698.985 534.768 708.97C524.86 726.792 528.103 749.194 539.613 762.265C573.12 800.316 647.886 783.531 676.888 753.383C683.099 746.926 690.882 734.616 693.038 723.505C696.826 703.971 688.352 692.125 683.348 675.863C678.247 659.285 678.135 636.249 658.315 639.525Z" fill="#A6A6A6"/>
<path d="M622.785 694.435C622.297 694.518 622.029 694.655 621.816 694.804C621.603 694.953 621.443 695.112 621.17 695.242C604.205 703.286 572.914 710.777 567.875 730.772C566.167 737.55 568.145 744.819 571.105 748.537C587.144 768.689 635.84 755.422 638.127 730.772C638.733 724.242 636.475 720.315 634.897 712.2C632.982 702.348 634.003 692.515 622.785 694.435Z" fill="#E1E1E1"/>
<path d="M627.63 564.428C623.367 565.574 617.944 569.002 619.555 573.31C621.767 579.224 645.132 581.027 655.085 583C681.047 588.147 707.105 593.701 730.183 598.343C742.167 600.753 756.809 606.519 768.135 605.61C773.92 605.146 780.447 600.446 780.248 596.728C779.866 589.605 757.89 587.461 747.14 585.423C734.763 583.075 721.228 580.285 709.995 578.155C679.371 572.347 658.445 565.489 634.898 563.62C631.191 563.325 627.967 564.337 627.63 564.428Z" fill="#E1E1E1"/>
<path d="M627.63 564.428C624.415 565.292 618.141 568.346 618.748 572.503C619.448 577.3 633.895 579.076 641.358 580.578C660.917 584.512 676.422 587.789 692.23 591.075C702.673 593.246 733.123 601.045 730.99 586.23C730.279 581.292 719.787 580.012 709.995 578.155C684.128 573.249 655.137 565.227 634.898 563.62C631.191 563.325 627.967 564.337 627.63 564.428Z" fill="#81DE3A"/>
</g>
</g>
<mask id="mask26_1_294" style="mask-type:luminance" maskUnits="userSpaceOnUse" x="-62" y="25" width="1115" height="1116">
<path d="M-61.9751 25.825H1052.37V1140.17H-61.9751V25.825Z" fill="white"/>
</mask>
<g mask="url(#mask26_1_294)">
<mask id="mask27_1_294" style="mask-type:luminance" maskUnits="userSpaceOnUse" x="-63" y="22" width="1119" height="1119">
<path d="M-62.7686 23.062L1055.16 22.6716L1055.55 1140.6L-62.3781 1140.99L-62.7686 23.062Z" fill="white"/>
</mask>
<g mask="url(#mask27_1_294)">
<path d="M447.868 608.408C442.019 614.506 442.543 621.555 448.791 624.596" stroke="#FF4B4B" stroke-width="11.8404" stroke-linecap="round"/>
</g>
<path d="M547.977 306.628C547.867 304.994 546.455 303.758 544.821 303.868L319.808 318.972C318.175 319.083 316.939 320.494 317.049 322.128C318.529 344.18 337.607 360.858 359.659 359.378L510.727 349.239C532.779 347.758 549.457 328.68 547.977 306.628Z" fill="#FFB100"/>
<path d="M341.058 225.516C339.186 213.553 345.211 200.981 353.611 195.091C362.012 189.201 370.553 184.749 370.553 184.749C380.135 179.214 391.127 175.907 401.911 173.418C438.068 165.074 466.737 166.328 483.568 167.082C494.888 167.589 504.019 175.873 507.688 186.595C527.33 243.996 536.291 333.92 536.291 333.92C536.291 333.92 309.908 382.77 337.544 317.782C353.428 316.716 346.043 257.383 341.058 225.516Z" fill="#FFB100"/>
<path d="M385.932 197.216C397.277 213.755 419.881 217.965 436.42 206.62C452.959 195.275 457.169 172.671 445.824 156.132C434.479 139.593 411.875 135.383 395.336 146.728C378.797 158.073 374.587 180.677 385.932 197.216Z" fill="#FFB100"/>
<path d="M365.059 176.279C362.894 189.212 369.688 202.613 382.099 209.31C394.51 216.006 409.452 214.329 419.089 205.426C421.094 203.574 420.568 200.28 418.05 198.92C418.05 198.92 384.712 176.107 380.823 176.138C376.934 176.169 373.158 174.873 371.074 173.578C368.99 172.282 365.51 173.587 365.059 176.279Z" fill="#FFB100"/>
<path d="M368.286 176.649L378.394 181.28L384.02 170.005L381.474 169.481C379.544 172.913 376.914 176.594 370.294 173.429C369.258 175.596 368.413 176.382 368.286 176.649Z" fill="#FFB100"/>
<mask id="mask28_1_294" style="mask-type:luminance" maskUnits="userSpaceOnUse" x="-74" y="18" width="1127" height="1127">
<path d="M-53.5083 18.8881L1052.59 38.7357L1032.74 1144.84L-73.3559 1124.99L-53.5083 18.8881Z" fill="white"/>
</mask>
<g mask="url(#mask28_1_294)">
<path d="M521.143 545.443C523.238 532.193 523.78 510.284 521.51 505.062C518.826 498.888 518.218 497.587 518.218 497.587C507.484 500.235 501.203 501.215 492.484 502.21C485.942 502.956 473.174 503.106 467.356 503.931C467.356 503.931 475.062 544.776 472.714 554.701C470.367 564.625 462.484 581.388 459.562 585.119C456.64 588.85 453.942 594.773 456.013 598.429C458.319 602.497 465.5 603.064 470.965 602.182C476.43 601.3 489.912 596.988 499.419 589.992C508.926 582.995 519.048 558.693 521.143 545.443Z" fill="#FFC6B7"/>
</g>
<mask id="mask29_1_294" style="mask-type:luminance" maskUnits="userSpaceOnUse" x="-74" y="18" width="1127" height="1127">
<path d="M-53.5083 18.8881L1052.59 38.7357L1032.74 1144.84L-73.3559 1124.99L-53.5083 18.8881Z" fill="white"/>
</mask>
<g mask="url(#mask29_1_294)">
<path d="M457.692 513.667C456.038 517.778 457.054 543.129 478.817 544.027C499.216 544.329 512.972 539.49 522.748 531.986C543.072 517.126 564.549 482.718 564.549 482.718L494.666 480.348C494.666 480.348 483.979 479.531 479.293 485.74C472.846 494.561 460.287 509.976 457.692 513.667Z" fill="#D22121"/>
</g>
<mask id="mask30_1_294" style="mask-type:luminance" maskUnits="userSpaceOnUse" x="-74" y="18" width="1127" height="1127">
<path d="M-53.5083 18.8887L1052.59 38.7363L1032.74 1144.84L-73.3558 1124.99L-53.5083 18.8887Z" fill="white"/>
</mask>
<g mask="url(#mask30_1_294)">
<path d="M523.706 629.801C545.661 626.744 555.55 611.556 555.55 611.556" stroke="#FF4B4B" stroke-width="29.2064" stroke-linecap="round"/>
</g>
<mask id="mask31_1_294" style="mask-type:luminance" maskUnits="userSpaceOnUse" x="-59" y="16" width="1096" height="1096">
<path d="M-53.3354 16.2916L1036.63 21.1234L1031.79 1111.08L-58.1672 1106.25L-53.3354 16.2916Z" fill="white"/>
</mask>
<g mask="url(#mask31_1_294)">
<path d="M484.897 582.558C484.518 577.839 481.296 558.109 481.205 549.394C462.674 544.374 455.184 535.612 453.062 524.712C451.481 516.338 454.53 509.434 454.91 509.128C464.63 498.706 477.634 489.146 487.45 484.164C497.788 479.175 510.195 476.06 519.692 480.756C529.749 485.763 535.852 496.069 537.367 506.555C540.611 528.715 545.23 575.209 545.709 579.11C550.753 620.59 488.354 625.584 484.897 582.558Z" fill="#FFC6B7"/>
</g>
<path d="M394.478 504.903C395.045 516.344 402.915 535.503 418.655 546.061C432.451 555.582 446.364 561.204 476.389 548.916L481.924 541.378L487.592 534.901C481.621 529.298 453.158 500.231 448.245 495.749C440.664 488.834 429.823 486.68 419.692 487.018C410.584 484.883 396.982 478.131 394.456 483.568C393.626 487.869 394.21 498.762 394.478 504.903Z" fill="#D22121"/>
<path d="M585.489 362.032C588.55 369.914 568.263 386.792 560.381 389.853C552.498 392.913 543.629 389.007 540.569 381.124L540.568 381.123C537.507 373.241 541.414 364.372 549.296 361.312C552.207 360.181 581.643 349.131 584.481 349.751C589.327 350.809 585.489 362.032 585.489 362.032Z" fill="#FFC6B7"/>
<path d="M514.077 498.208C523.94 474.271 482.249 418.121 452.567 415.979C422.886 413.837 397.088 436.162 394.946 465.843C392.804 495.525 420.346 514.752 448.951 519.603C479.931 524.602 505.187 517.603 514.077 498.208Z" fill="#D22121"/>
<path d="M623.604 375.235L611.451 359.76C603.853 352.064 590.361 347.572 579.045 349.586L603.103 321.595C620.075 307.223 645.486 309.332 659.858 326.304C674.23 343.277 672.121 368.688 655.148 383.06L626.169 410.338C632.129 395.846 631.252 388.186 623.604 375.235Z" fill="#FF4B4B"/>
<path d="M522.809 397.724C517.27 394.861 512.51 390.355 509.336 384.448C500.966 368.871 505.5 346.396 522.008 340.11C550.176 329.397 603.212 316.856 619.588 312.858C636.713 308.549 652.914 323.505 654.949 340.947C657.004 358.404 644.344 374.555 626.82 376.542C626.755 376.551 567.843 389.602 552.807 397.683C543.136 402.879 531.875 402.412 522.809 397.724Z" fill="#FF4B4B"/>
<path d="M358.868 440.168C347.249 416.283 364.239 398.152 386.174 391.815C405.075 386.538 423.045 384.058 436.597 382.347L514.296 372.535C549.087 368.141 593.889 399.092 589.533 434.151L589.335 436.072C586.063 468.968 563.433 496.503 530.847 501.103C530.163 501.377 459.536 519.382 459.536 519.382C421.507 518.876 397.654 497.883 373.602 461.354L358.868 440.168Z" fill="#FF4B4B"/>
<path d="M466.103 498.426L441.27 520.883L456.337 536.48L472.527 519.516L466.103 498.426Z" fill="#D22121"/>
<path d="M382.661 332.451C378.349 295.533 371.055 257.281 360.521 232.34L394.103 202.48L508.885 190.726C523.592 232.797 531.043 279.78 535.116 314.644C537.557 335.549 538.975 353.975 539.786 367.22C540.194 373.865 540.451 379.265 540.61 383.087C540.688 384.999 540.745 386.52 540.781 387.61C540.799 388.156 540.81 388.594 540.821 388.919C540.826 389.081 540.828 389.216 540.832 389.322L540.839 389.532C540.838 389.543 540.838 389.551 464.117 391.485C387.396 393.418 387.396 393.426 387.397 393.436L387.394 393.368C387.39 393.242 387.383 393.007 387.372 392.67C387.351 391.995 387.312 390.909 387.251 389.453C387.129 386.535 386.923 382.15 386.582 376.61C385.901 365.484 384.704 349.943 382.661 332.451Z" fill="#FFC6B7"/>
<path d="M362.925 205.521C375.245 203.503 386.867 211.853 388.885 224.173L392.048 243.479C394.066 255.799 385.715 267.421 373.395 269.439C361.075 271.457 349.452 263.107 347.434 250.787L344.272 231.481C342.254 219.161 350.605 207.539 362.925 205.521Z" fill="#FFB100"/>
<path d="M371.432 255.196C379.028 254.034 385.603 259.223 387.117 266.001C388.628 272.765 384.169 280.894 376.853 282.326C369.157 283.831 361.556 277.358 360.483 270.095C359.541 263.72 363.176 256.458 371.432 255.196Z" fill="#FFC6B7"/>
<path d="M340.632 233.998C339.361 235.514 336.566 239.251 336.868 242.694C337.142 245.8 337.214 249.786 337.569 253.403C337.938 257.18 343.26 258.86 345.23 256.797C347.053 254.703 370.061 224.669 370.061 224.669C389.516 206.88 403.481 209.215 428.47 204.707C445.454 202.408 464.754 201.254 482.242 200.205C499.566 199.011 508.474 202.011 513.947 204.958C515.832 205.978 517.743 204.332 517.054 202.282C515.217 196.826 512.49 188.803 511.226 185.256C511.027 184.695 509.621 182.616 509.083 182.287C506.092 180.138 498.03 175.932 481.003 177.179C462.61 178.313 442.607 179.34 425.382 181.644C397.009 186.621 383.135 186.874 361.051 205.744C361.051 205.744 341.826 232.48 340.632 233.998Z" fill="#FF4B4B"/>
<path d="M465.059 231.168C464.093 220.491 472.033 211.046 482.793 210.073C493.554 209.099 503.059 216.966 504.025 227.644L505.089 239.404C506.055 250.081 498.115 259.525 487.355 260.499C476.595 261.472 467.088 253.606 466.123 242.928L465.059 231.168Z" fill="white"/>
<path d="M464.185 247.972C464.501 247.788 470.163 251.115 476.018 254.656C481.844 258.18 482.321 266.711 476.908 269.858C471.495 273.005 464.318 268.368 464.138 261.562C463.958 254.722 463.87 248.155 464.185 247.972Z" fill="#EE9583"/>
<path d="M472.888 230.546C476.791 230.192 479.687 226.933 479.356 223.266C479.315 222.815 479.227 222.379 479.097 221.961C483.734 222.013 487.642 225.343 488.043 229.783L488.978 240.117C489.408 244.872 485.651 249.099 480.588 249.557C475.524 250.015 471.071 246.531 470.641 241.775L469.706 231.441C469.667 231.003 469.662 230.57 469.691 230.143C470.675 230.497 471.762 230.647 472.888 230.546Z" fill="#3D3D3D"/>
<path d="M436.871 214.071C426.14 215.055 418.239 224.554 419.222 235.289L420.305 247.111C420.536 249.622 421.232 251.978 422.3 254.102C425.608 253.059 429.293 253.091 432.824 254.488L440.269 257.432C443.839 258.844 447.467 260.092 451.14 261.172C456.552 257.266 459.82 250.68 459.166 243.55L458.083 231.727C457.1 220.992 447.602 213.088 436.871 214.071Z" fill="white"/>
<path d="M438.505 233.656C442.409 233.302 445.306 230.043 444.974 226.376C444.934 225.925 444.845 225.489 444.716 225.071C449.353 225.123 453.259 228.453 453.661 232.893L454.595 243.226C455.025 247.982 451.27 252.209 446.206 252.667C441.142 253.125 436.689 249.642 436.259 244.886L435.324 234.551C435.284 234.113 435.28 233.68 435.31 233.253C436.294 233.607 437.38 233.757 438.505 233.656Z" fill="#3D3D3D"/>
<path d="M387.063 394.221C387.074 394.559 541.525 390.031 541.526 390.021C541.526 390.021 540.536 373.343 540.128 366.698C539.423 355.187 538.672 349.14 537.14 331.503C535.929 334.221 510.666 349.629 475.681 352.899C417.791 358.215 384.389 346.767 384.263 346.077C384.283 346.297 384.61 350.884 385.144 359.693C385.778 370.133 387.042 393.546 387.063 394.221Z" fill="#FF4B4B"/>
<path d="M387.371 358.475C374.262 359.049 319.791 358.156 303.825 358.605C300.725 368.522 289.618 421.952 289.465 429.88C292.793 427.992 300.299 429.478 300.299 429.478L400.59 455.199C400.59 455.199 400.367 357.935 387.371 358.475Z" fill="#FF4B4B"/>
<path d="M279.693 411.845L284.971 417.516C293.015 426.158 292.531 439.684 283.889 447.728L278.218 453.007C269.576 461.051 256.049 460.566 248.006 451.924L242.727 446.253C234.683 437.611 235.168 424.085 243.81 416.041L249.481 410.763C258.123 402.719 271.649 403.203 279.693 411.845Z" fill="#FFC6B7"/>
<path d="M291.793 450.718C289.039 455.114 283.243 456.447 278.847 453.694C274.45 450.941 273.117 445.145 275.87 440.748C278.623 436.352 284.42 435.019 288.816 437.772C293.213 440.525 294.546 446.321 291.793 450.718Z" fill="#FFC6B7"/>
<path d="M257.764 439.766L257.511 439.487C247.233 430.967 245.436 415.984 251.734 408.259L285.109 367.281C293.733 356.867 309.168 355.415 319.583 364.04C329.998 372.665 331.449 388.099 322.825 398.514L289.7 437.904C281.736 445.729 268.047 448.328 257.764 439.766Z" fill="#FF4B4B"/>
<path d="M616.431 422.787L606.244 430.249C590.72 441.62 568.92 438.255 557.549 422.731L550.087 412.543C538.716 397.02 542.081 375.219 557.605 363.848L567.792 356.388C583.316 345.017 605.116 348.382 616.487 363.906L623.949 374.092C635.319 389.614 631.955 411.416 616.431 422.787Z" fill="#FFC6B7"/>
<path d="M472.999 362.582C471.578 361.579 471.045 359.725 471.719 358.12L475.472 349.191C476.13 347.621 477.776 346.701 479.46 346.964L507.372 351.32C509.751 351.691 511.149 354.197 510.218 356.418L501.493 377.18C500.576 379.363 497.875 380.137 495.941 378.772L472.999 362.582Z" fill="#EBE3E3"/>
<path d="M479.065 353.662C479.065 353.662 494.44 405.371 498.229 426.521C501.607 445.552 509.129 500.339 509.129 500.339" stroke="#EBE3E3" stroke-width="7.67179"/>
<mask id="mask32_1_294" style="mask-type:luminance" maskUnits="userSpaceOnUse" x="-59" y="16" width="1096" height="1096">
<path d="M-53.3354 16.2916L1036.63 21.1234L1031.79 1111.08L-58.1672 1106.25L-53.3354 16.2916Z" fill="white"/>
</mask>
<g mask="url(#mask32_1_294)">
<path d="M484.897 582.558C484.518 577.839 481.296 558.109 481.205 549.394C462.674 544.374 455.184 535.612 453.062 524.712C451.481 516.338 454.53 509.434 454.91 509.128C464.63 498.706 477.634 489.146 487.45 484.164C497.788 479.175 510.195 476.06 519.692 480.756C529.749 485.763 535.852 496.069 537.367 506.555C540.611 528.715 545.23 575.209 545.709 579.11C550.753 620.59 488.354 625.584 484.897 582.558Z" fill="#FFC6B7"/>
</g>
<mask id="mask33_1_294" style="mask-type:luminance" maskUnits="userSpaceOnUse" x="-74" y="19" width="1127" height="1127">
<path d="M-53.3201 19.6936L1052.78 39.5412L1032.93 1145.64L-73.1676 1125.79L-53.3201 19.6936Z" fill="white"/>
</mask>
<g mask="url(#mask33_1_294)">
<path d="M523.894 630.606C545.849 627.549 555.738 612.361 555.738 612.361" stroke="#FF4B4B" stroke-width="29.2064" stroke-linecap="round"/>
</g>
</g>
<mask id="mask34_1_294" style="mask-type:luminance" maskUnits="userSpaceOnUse" x="-144" y="-56" width="1236" height="1236">
<path d="M-43.6689 -55.3485L1091.07 44.4484L991.269 1179.18L-143.466 1079.39L-43.6689 -55.3485Z" fill="white"/>
</mask>
<g mask="url(#mask34_1_294)">
<mask id="mask35_1_294" style="mask-type:luminance" maskUnits="userSpaceOnUse" x="-144" y="-56" width="1236" height="1236">
<path d="M-43.6689 -55.3485L1091.07 44.4484L991.269 1179.18L-143.466 1079.39L-43.6689 -55.3485Z" fill="white"/>
</mask>
<g mask="url(#mask35_1_294)">
<path d="M422.921 268.164C428.852 261.957 438.624 261.899 444.746 268.032C446.666 269.956 448.233 271.219 450.011 272.073C451.648 272.86 454.169 273.636 458.321 273.395C466.825 272.901 474.18 279.563 474.747 288.275C475.313 296.987 468.878 304.449 460.373 304.943C441.17 306.058 429.956 297.209 423.267 290.507C417.145 284.374 416.99 274.371 422.921 268.164Z" fill="#A41414"/>
</g>
<mask id="mask36_1_294" style="mask-type:alpha" maskUnits="userSpaceOnUse" x="418" y="263" width="57" height="43">
<mask id="mask37_1_294" style="mask-type:luminance" maskUnits="userSpaceOnUse" x="-144" y="-56" width="1236" height="1236">
<path d="M-43.6689 -55.3485L1091.07 44.4484L991.269 1179.18L-143.466 1079.39L-43.6689 -55.3485Z" fill="white"/>
</mask>
<g mask="url(#mask37_1_294)">
<path d="M422.921 268.164C428.852 261.957 438.624 261.899 444.746 268.032C446.666 269.956 448.233 271.219 450.011 272.073C451.648 272.86 454.169 273.636 458.321 273.395C466.825 272.901 474.18 279.563 474.747 288.275C475.313 296.987 468.878 304.449 460.373 304.943C441.17 306.058 429.956 297.209 423.267 290.507C417.145 284.374 416.99 274.371 422.921 268.164Z" fill="#A41414"/>
</g>
</mask>
<g mask="url(#mask36_1_294)">
<path d="M459.272 272.599C459.228 272.601 459.184 272.603 459.139 272.606C454.705 272.864 452.013 272.035 450.265 271.196C448.367 270.283 446.693 268.934 444.642 266.879C438.105 260.329 427.671 260.392 421.337 267.02C418.205 270.297 416.662 274.566 416.692 278.835C418.31 281.314 421.198 282.696 424.116 282.104L433.499 280.198C435.97 279.696 437.868 277.898 438.709 275.59C440.383 277.387 442.833 278.303 445.304 277.8L454.687 275.895C456.666 275.493 458.277 274.26 459.272 272.599Z" fill="white"/>
</g>
<mask id="mask38_1_294" style="mask-type:alpha" maskUnits="userSpaceOnUse" x="418" y="263" width="57" height="43">
<mask id="mask39_1_294" style="mask-type:luminance" maskUnits="userSpaceOnUse" x="-144" y="-56" width="1236" height="1236">
<path d="M-43.6689 -55.3485L1091.07 44.4484L991.269 1179.18L-143.466 1079.39L-43.6689 -55.3485Z" fill="white"/>
</mask>
<g mask="url(#mask39_1_294)">
<path d="M422.921 268.164C428.852 261.957 438.624 261.899 444.746 268.032C446.666 269.956 448.233 271.219 450.011 272.073C451.648 272.86 454.169 273.636 458.321 273.395C466.825 272.901 474.18 279.563 474.747 288.275C475.313 296.987 468.878 304.449 460.373 304.943C441.17 306.058 429.956 297.209 423.267 290.507C417.145 284.374 416.99 274.371 422.921 268.164Z" fill="#A41414"/>
</g>
</mask>
<g mask="url(#mask38_1_294)">
<path d="M476.664 288.274C476.67 288.348 476.675 288.423 476.68 288.497C477.285 297.801 470.413 305.77 461.331 306.297C457.059 306.545 453.158 306.332 449.593 305.773C453.136 297.254 460.441 290.686 469.819 288.782C472.118 288.314 474.413 288.154 476.664 288.274Z" fill="#E64340"/>
</g>
</g>
</g>
</g>
</g>
</g>
<defs>
<clipPath id="clip0_1_294">
<rect width="1080" height="1080" fill="white"/>
</clipPath>
<clipPath id="clip1_1_294">
<rect width="1080" height="1080" fill="white"/>
</clipPath>
</defs>
</svg>
