<svg width="1080" height="1080" viewBox="0 0 1080 1080" fill="none" xmlns="http://www.w3.org/2000/svg">
<g clip-path="url(#clip0_1_13617)">
<mask id="mask0_1_13617" style="mask-type:luminance" maskUnits="userSpaceOnUse" x="0" y="0" width="1080" height="1080">
<path d="M1080 0H0V1080H1080V0Z" fill="white"/>
</mask>
<g mask="url(#mask0_1_13617)">
<mask id="mask1_1_13617" style="mask-type:luminance" maskUnits="userSpaceOnUse" x="0" y="0" width="1080" height="1080">
<path d="M0 0H1080V1080H0V0Z" fill="white"/>
</mask>
<g mask="url(#mask1_1_13617)">
<path d="M800.358 417.935C799.992 418.301 749.829 423.486 749.829 423.486L750.217 345.003L798.259 343.997L800.358 417.935Z" fill="#3067E2"/>
<mask id="mask2_1_13617" style="mask-type:luminance" maskUnits="userSpaceOnUse" x="0" y="0" width="1080" height="1080">
<path d="M0 0H1080V1080H0V0Z" fill="white"/>
</mask>
<g mask="url(#mask2_1_13617)">
<path d="M310.446 639.867C320.789 628.076 336.51 611.528 345.405 603.047C360.361 588.785 382.638 586.084 397.325 597.668C413.92 610.757 434.352 636.556 434.352 636.556L310.446 639.867Z" fill="#A56FFF"/>
<path d="M316.24 522.975C344.759 538.038 468.47 536.671 489.242 536.967C487.669 524.363 479.404 446.488 475.637 427.726C468.35 391.434 439.873 370.683 406.729 372.2C372.259 373.779 357.916 385.664 344.314 407.241C329.288 431.076 323.999 481.811 316.24 522.975Z" fill="#A56FFF"/>
<path d="M429.92 510.325C431.852 518.376 441.56 564.215 444.41 582.601C447.26 600.987 453.72 630.098 453.72 630.098L414.007 630.652C414.007 630.652 416.694 597.857 414.203 582.038C407.633 540.308 400.654 522.993 395.332 505.663L429.92 510.325Z" fill="#593F86"/>
<mask id="mask3_1_13617" style="mask-type:luminance" maskUnits="userSpaceOnUse" x="0" y="0" width="1080" height="1080">
<path d="M0 0H1080V1080H0V0Z" fill="white"/>
</mask>
<g mask="url(#mask3_1_13617)">
<path d="M541 615.5C466 619.5 174.75 650 171 653.875C167.25 657.75 165.125 662.625 164.75 667.75C164.375 672.875 161.625 719.5 161.375 724.125C161.125 728.75 162.375 735.125 165 738.625C167.625 742.125 367.318 923.041 372.125 927C382.75 935.75 401.75 936.875 420.5 931.875C442.354 926.047 790 823.25 801.125 819.875C812.25 816.5 814.25 806.125 815.125 798.625C816 791.125 823.027 752.863 823.875 746.5C824.375 742.75 823.875 742.25 821.25 739.625C818.625 737 616 611.5 541 615.5Z" fill="#F38DEE"/>
<path d="M582.625 593.375C569.31 595.199 207.259 644.317 188 646.75C164.25 649.75 163.5 664.5 177.5 678.5C191.5 692.5 363.057 846.706 379.25 862C392.75 874.75 411.75 875.5 426.5 870.5C445.915 863.919 805.034 759.83 814.5 755.75C829 749.5 826.375 739 805.75 724C794.298 715.672 629.834 607.214 618.625 599.25C609.125 592.5 600.875 590.875 582.625 593.375Z" fill="#FFB7E3"/>
<path d="M579.325 600.653C566.524 602.407 218.465 649.627 199.951 651.966C177.119 654.85 175.853 663.398 188.819 676.364C202.278 689.823 371.801 834.942 386.272 847.772C399.5 859.5 409.75 861.5 428.946 855.693C447.81 849.987 793.556 752.034 802.95 748.878C813.75 745.25 814.75 739.5 792.914 726.23C781.281 719.161 621.75 612.5 611.77 605.676C602.522 599.353 596.869 598.25 579.325 600.653Z" fill="white"/>
<path d="M261.75 666.125C256.875 666.75 236.129 670.527 231.5 671.25C223.5 672.5 224.75 677.25 228.875 680.75C234.604 685.611 382.933 810.785 391.75 818.5C397.75 823.75 406 825.5 411 824C416 822.5 436.75 816.75 444 814.25C451.25 811.75 449.75 807.25 443 801C436.25 794.75 288.965 675.418 283.625 671.125C277.25 666 270.5 665.003 261.75 666.125Z" fill="#58CC02"/>
<path d="M443.875 635C439.736 635.362 435.37 635.954 430.375 636.5C422.375 637.375 435.125 649.25 443.625 648.625C449.655 648.182 454.132 647.54 458.375 646.75C465.216 645.477 452.716 634.227 443.875 635Z" fill="#2E67E2"/>
<path d="M473.375 650.25C469.249 650.741 449.082 654.424 444.125 655.25C434.375 656.875 450.125 669.125 462 667.125C469.828 665.807 484.768 662.971 489 662.125C497.75 660.375 483.875 649 473.375 650.25Z" fill="#1FA5F3"/>
<path d="M510.875 663.375C504.25 664.25 453.832 675.049 448.875 675.875C439.125 677.5 454.875 689.75 466.75 687.75C474.578 686.432 520.552 676.525 526.5 675.25C535.25 673.375 521.358 661.99 510.875 663.375Z" fill="#3068E2"/>
<path d="M520.875 684.375C514.25 685.25 494.019 689.485 489.125 690.625C480 692.75 495.125 704.5 507 702.5C514.828 701.182 530.552 697.525 536.5 696.25C545.25 694.375 531.358 682.99 520.875 684.375Z" fill="#1FA5F3"/>
<path d="M561.625 699C555 699.875 500.644 712.11 495.75 713.25C486.625 715.375 501.75 727.125 513.625 725.125C521.453 723.807 571.302 712.15 577.25 710.875C586 709 572.108 697.615 561.625 699Z" fill="#3068E2"/>
<path d="M612.875 713C606.344 714.416 501.644 738.36 496.75 739.5C487.625 741.625 502.75 753.375 514.625 751.375C522.453 750.057 622.633 726.482 628.5 724.875C637.625 722.375 623.25 710.75 612.875 713Z" fill="#1FA5F3"/>
<path d="M597.25 743.625C590.719 745.041 574.269 748.11 569.375 749.25C560.25 751.375 575.375 763.125 587.25 761.125C595.078 759.807 607.008 757.107 612.875 755.5C622 753 607.625 741.375 597.25 743.625Z" fill="#3068E2"/>
<path d="M617.25 765.5C610.709 766.867 613.25 766.375 605.625 768.125C596.493 770.221 611.778 782.758 623.5 780C627.75 779 630.857 778.075 632.875 777.375C642.25 774.125 625.625 763.75 617.25 765.5Z" fill="#3068E2"/>
<path d="M591.857 623.488C589.639 624.681 589.375 627 592.25 629.125C600.782 635.431 695.595 701.421 716.375 714.625C728.375 722.25 734.537 721.473 737.513 719.365C740.5 717.25 739.125 713.625 730 707.5C721.191 701.587 619.875 634 607 625.625C603.1 623.088 596.25 621.125 591.857 623.488ZM591.857 623.488C589.639 624.681 589.375 627 592.25 629.125C600.782 635.431 654.875 673 674.625 686.625C686.328 694.699 692.787 693.473 695.763 691.365C698.75 689.25 697.375 685.625 688.25 679.5C679.441 673.587 619.875 634 607 625.625C603.1 623.088 596.25 621.125 591.857 623.488Z" fill="#D7E8E5"/>
<path d="M591.857 623.488C589.639 624.681 589.375 627 592.25 629.125C600.782 635.431 654.875 673 674.625 686.625C686.328 694.699 692.787 693.473 695.763 691.365C698.75 689.25 697.375 685.625 688.25 679.5C679.441 673.587 619.875 634 607 625.625C603.1 623.088 596.25 621.125 591.857 623.488Z" fill="#58CC02"/>
</g>
<path d="M405.324 528.305C402.472 533.501 383.038 547.314 356.424 548.5C325.505 549.876 269.406 533.535 255.894 493.004C262.046 485.919 271.711 473.038 280.863 465.1C291.891 478.935 317.704 500.786 340.568 509.007C358.776 515.554 372.596 520.871 398.914 513.078C400.188 516.998 405.324 528.305 405.324 528.305Z" fill="#593F86"/>
<path d="M428.54 518.199C435.855 526.823 471.291 581.334 476.098 586.877C480.905 592.42 482.899 607.71 474.443 610.68C465.987 613.65 440.417 622.769 430.515 625.958C420.614 629.147 411.838 635.485 408.128 644.357C405.696 650.17 401.973 650.204 397.422 650.243C393.034 650.282 349.869 646.276 353.213 633.459C355.215 625.788 396.654 609.705 415.814 600.642C434.973 591.58 415.175 527.418 416.205 526.995C417.235 526.572 428.54 518.199 428.54 518.199Z" fill="#593F86"/>
<path d="M440.311 519.498C451.522 519.138 462.718 508.952 462.649 498.527C462.579 488.103 461.92 435.458 461.783 425.985C461.647 416.513 446.675 380.991 412.034 382.007C383.243 382.852 361.713 394.284 360.397 406.162C359.61 413.264 351.177 496.765 350.823 503.157C350.469 509.549 354.148 515.516 362.975 515.831C371.801 516.146 430.041 519.828 440.311 519.498Z" fill="#FFC4B4"/>
<path d="M457.103 411.46C465.317 444.239 455.184 539.941 455.422 545.594C455.66 551.247 459.113 552.049 460.776 552.073C470.531 552.218 481.783 545.453 488.164 540.075C489.614 538.853 490.334 536.98 490.117 535.097C488.176 518.288 478.908 444.259 476.464 432.046C473.866 419.058 472.75 415.135 469.36 409.708C465.969 404.281 457.103 411.46 457.103 411.46Z" fill="#A56FFF"/>
<mask id="mask4_1_13617" style="mask-type:luminance" maskUnits="userSpaceOnUse" x="-22" y="-10" width="1126" height="1125">
<path d="M24.519 -9.86485L1103.56 35.7753L1057.92 1114.81L-21.1211 1069.17L24.519 -9.86485Z" fill="white"/>
</mask>
<g mask="url(#mask4_1_13617)">
<path d="M393.583 466.156C393.819 470.106 397.846 477.166 402.356 476.998C406.866 476.83 417.896 476.24 421.575 476.103C426.085 475.935 431.612 469.692 431.58 464.465C431.558 460.782 431.378 446.312 431.127 439.58C431.058 437.708 428.842 436.333 426.971 436.403C420.957 436.626 411.148 437.055 407.41 437.323C399.731 437.874 393.393 446.001 393.415 451.175C393.431 454.988 393.344 462.152 393.583 466.156Z" fill="#F0F2F8"/>
<path d="M389.168 463.838C389.238 466.855 385.932 475.664 381.384 475.834C376.835 476.004 365.699 476.228 361.989 476.366C357.44 476.536 351.019 470.485 350.814 464.958C350.62 459.771 350.363 445.516 350.097 438.391C350.023 436.41 351.673 435.079 353.56 435.008C359.625 434.782 368.841 434.164 372.62 434.16C379.227 434.153 388.106 442.684 388.326 448.611C388.477 452.643 389.069 459.595 389.168 463.838Z" fill="#F0F2F8"/>
</g>
<mask id="mask5_1_13617" style="mask-type:alpha" maskUnits="userSpaceOnUse" x="350" y="434" width="82" height="44">
<mask id="mask6_1_13617" style="mask-type:luminance" maskUnits="userSpaceOnUse" x="-22" y="-10" width="1126" height="1125">
<path d="M24.519 -9.86485L1103.56 35.7753L1057.92 1114.81L-21.1211 1069.17L24.519 -9.86485Z" fill="white"/>
</mask>
<g mask="url(#mask6_1_13617)">
<path d="M393.583 466.156C393.819 470.106 397.846 477.166 402.356 476.998C406.866 476.83 417.896 476.24 421.575 476.103C426.085 475.935 431.612 469.692 431.58 464.465C431.558 460.782 431.378 446.312 431.127 439.58C431.058 437.708 428.842 436.333 426.971 436.403C420.957 436.626 411.148 437.055 407.41 437.323C399.731 437.874 393.393 446.001 393.415 451.175C393.431 454.988 393.344 462.152 393.583 466.156Z" fill="#F0F2F8"/>
<path d="M389.168 463.838C389.238 466.855 385.932 475.664 381.384 475.834C376.835 476.004 365.699 476.228 361.989 476.366C357.44 476.536 351.019 470.485 350.814 464.958C350.62 459.771 350.363 445.516 350.097 438.391C350.023 436.41 351.673 435.079 353.56 435.008C359.625 434.782 368.841 434.164 372.62 434.16C379.227 434.153 388.106 442.684 388.326 448.611C388.477 452.643 389.069 459.595 389.168 463.838Z" fill="#F0F2F8"/>
</g>
</mask>
<g mask="url(#mask5_1_13617)">
<path d="M402.4 461.582L401.964 450.99L402.4 461.582Z" fill="#F0F2F8"/>
<path d="M402.4 461.582L401.964 450.99" stroke="#3D3D3D" stroke-width="13.52" stroke-linecap="round" stroke-linejoin="round"/>
</g>
<mask id="mask7_1_13617" style="mask-type:alpha" maskUnits="userSpaceOnUse" x="350" y="434" width="82" height="44">
<mask id="mask8_1_13617" style="mask-type:luminance" maskUnits="userSpaceOnUse" x="-22" y="-10" width="1126" height="1125">
<path d="M24.519 -9.86485L1103.56 35.7753L1057.92 1114.81L-21.1211 1069.17L24.519 -9.86485Z" fill="white"/>
</mask>
<g mask="url(#mask8_1_13617)">
<path d="M393.583 466.156C393.819 470.106 397.846 477.166 402.356 476.998C406.866 476.83 417.896 476.24 421.575 476.103C426.085 475.935 431.612 469.692 431.58 464.465C431.558 460.782 431.378 446.312 431.127 439.58C431.058 437.708 428.842 436.333 426.971 436.403C420.957 436.626 411.148 437.055 407.41 437.323C399.731 437.874 393.393 446.001 393.415 451.175C393.431 454.988 393.344 462.152 393.583 466.156Z" fill="#F0F2F8"/>
<path d="M389.168 463.838C389.238 466.855 385.932 475.664 381.384 475.834C376.835 476.004 365.699 476.228 361.989 476.366C357.44 476.536 351.019 470.485 350.814 464.958C350.62 459.771 350.363 445.516 350.097 438.391C350.023 436.41 351.673 435.079 353.56 435.008C359.625 434.782 368.841 434.164 372.62 434.16C379.227 434.153 388.106 442.684 388.326 448.611C388.477 452.643 389.069 459.595 389.168 463.838Z" fill="#F0F2F8"/>
</g>
</mask>
<g mask="url(#mask7_1_13617)">
<path d="M368.427 461.739L368.014 451.146L368.427 461.739Z" fill="#F0F2F8"/>
<path d="M368.427 461.739L368.014 451.146" stroke="#3D3D3D" stroke-width="13.52" stroke-linecap="round" stroke-linejoin="round"/>
</g>
<mask id="mask9_1_13617" style="mask-type:alpha" maskUnits="userSpaceOnUse" x="350" y="434" width="82" height="44">
<mask id="mask10_1_13617" style="mask-type:luminance" maskUnits="userSpaceOnUse" x="-22" y="-10" width="1126" height="1125">
<path d="M24.519 -9.86485L1103.56 35.7753L1057.92 1114.81L-21.1211 1069.17L24.519 -9.86485Z" fill="white"/>
</mask>
<g mask="url(#mask10_1_13617)">
<path d="M393.583 466.156C393.819 470.106 397.846 477.166 402.356 476.998C406.866 476.83 417.896 476.24 421.575 476.103C426.085 475.935 431.612 469.692 431.58 464.465C431.558 460.782 431.378 446.312 431.127 439.58C431.058 437.708 428.842 436.333 426.971 436.403C420.957 436.626 411.148 437.055 407.41 437.323C399.731 437.874 393.393 446.001 393.415 451.175C393.431 454.988 393.344 462.152 393.583 466.156Z" fill="#F0F2F8"/>
<path d="M389.168 463.838C389.238 466.855 385.932 475.664 381.384 475.834C376.835 476.004 365.699 476.228 361.989 476.366C357.44 476.536 351.019 470.485 350.814 464.958C350.62 459.771 350.363 445.516 350.097 438.391C350.023 436.41 351.673 435.079 353.56 435.008C359.625 434.782 368.841 434.164 372.62 434.16C379.227 434.153 388.106 442.684 388.326 448.611C388.477 452.643 389.069 459.595 389.168 463.838Z" fill="#F0F2F8"/>
</g>
</mask>
<g mask="url(#mask9_1_13617)">
<path d="M392.067 463.956L432.921 462.62C432.921 462.62 447.332 432.93 434.397 433.858C421.462 434.785 401.311 436.229 395.416 436.652C389.521 437.074 392.349 464.201 392.067 463.956Z" fill="#A56FFF"/>
</g>
<mask id="mask11_1_13617" style="mask-type:alpha" maskUnits="userSpaceOnUse" x="350" y="434" width="82" height="44">
<mask id="mask12_1_13617" style="mask-type:luminance" maskUnits="userSpaceOnUse" x="-22" y="-10" width="1126" height="1125">
<path d="M24.519 -9.86485L1103.56 35.7753L1057.92 1114.81L-21.1211 1069.17L24.519 -9.86485Z" fill="white"/>
</mask>
<g mask="url(#mask12_1_13617)">
<path d="M393.583 466.156C393.819 470.106 397.846 477.166 402.356 476.998C406.866 476.83 417.896 476.24 421.575 476.103C426.085 475.935 431.612 469.692 431.58 464.465C431.558 460.782 431.378 446.312 431.127 439.58C431.058 437.708 428.842 436.333 426.971 436.403C420.957 436.626 411.148 437.055 407.41 437.323C399.731 437.874 393.393 446.001 393.415 451.175C393.431 454.988 393.344 462.152 393.583 466.156Z" fill="#F0F2F8"/>
<path d="M389.168 463.838C389.238 466.855 385.932 475.664 381.384 475.834C376.835 476.004 365.699 476.228 361.989 476.366C357.44 476.536 351.019 470.485 350.814 464.958C350.62 459.771 350.363 445.516 350.097 438.391C350.023 436.41 351.673 435.079 353.56 435.008C359.625 434.782 368.841 434.164 372.62 434.16C379.227 434.153 388.106 442.684 388.326 448.611C388.477 452.643 389.069 459.595 389.168 463.838Z" fill="#F0F2F8"/>
</g>
</mask>
<g mask="url(#mask11_1_13617)">
<path d="M388.573 463.719C378.863 463.993 357.318 464.522 353.61 464.619C349.901 464.715 351.955 437.407 354.296 433.165C356.637 428.923 366.512 432.087 370.559 431.788C374.606 431.49 390.353 432.715 389.308 444.911C388.262 457.107 388.573 463.719 388.573 463.719Z" fill="#A56FFF"/>
</g>
<path d="M418.71 471.949C412.891 473.737 408.537 476.045 403.82 481.36C399.103 486.674 413.38 495.629 424.362 490.066C435.344 484.502 440.84 474.068 437.949 472.597C433.413 470.288 425.55 469.846 418.71 471.949Z" fill="#FFC4B4"/>
<path d="M413.623 492.581C415.769 487.648 419.35 484.428 426.029 481.945" stroke="#FA907E" stroke-width="4.16001" stroke-linecap="round" stroke-linejoin="round"/>
<path d="M462.75 434.013C462.75 434.013 438.28 445.713 404.092 444.229C379.607 443.167 371.657 420.79 371.408 403.568L370.078 387.976C370.078 387.976 374.627 383.604 403.861 381.373C433.095 379.142 458.466 391.329 462.75 434.013Z" fill="#A56FFF"/>
<path d="M474.061 447.726C474.664 456.146 468.327 463.462 459.907 464.066C451.487 464.669 444.171 458.332 443.567 449.912C442.963 441.492 449.301 434.176 457.721 433.572C466.141 432.969 473.457 439.306 474.061 447.726Z" fill="#FFC4B4"/>
<path d="M389.944 468.407C386.983 470.354 381.546 475.894 381.67 479.091C381.815 482.82 384.812 485.541 388.734 485.26C393.231 484.938 394.919 480.613 394.739 478.102C394.559 475.592 391.697 470.303 389.944 468.407Z" fill="#FA907E"/>
<path d="M373.468 398.072C373.166 418.422 361.861 528.772 361.621 533.31C361.31 539.197 359.9 544.064 354.805 543.549C350.492 543.114 332.196 540.902 317.694 526.337C316.47 525.108 315.809 523.419 315.925 521.688C316.698 510.112 324.838 468.446 328.754 451.411C331.57 439.166 338.513 413.551 350.086 401.013C356.574 393.985 373.681 383.784 373.468 398.072Z" fill="#A56FFF"/>
<mask id="mask13_1_13617" style="mask-type:luminance" maskUnits="userSpaceOnUse" x="-5" y="-6" width="1090" height="1090">
<path d="M-4.94092 3.72657L1075.02 -5.6981L1084.44 1074.26L4.48375 1083.69L-4.94092 3.72657Z" fill="white"/>
</mask>
<g mask="url(#mask13_1_13617)">
<path d="M279.374 465.729C277.157 468.141 273.103 470.529 270.154 471.796" stroke="#F7AFB1" stroke-width="13.52" stroke-linecap="round" stroke-linejoin="round"/>
<path d="M241.983 463.368C243.573 463.83 245.729 464.682 246.622 465.011" stroke="#F7AFB1" stroke-width="11.44" stroke-linecap="round" stroke-linejoin="round"/>
<path d="M242.643 476.471C244.297 476.551 246.144 476.715 247.089 476.828" stroke="#F7AFB1" stroke-width="11.44" stroke-linecap="round" stroke-linejoin="round"/>
<path d="M241.342 486.809C240.387 487.065 237.231 488.325 235.761 488.629" stroke="#F7AFB1" stroke-width="11.44" stroke-linecap="round" stroke-linejoin="round"/>
<path d="M262.327 447.342C269.978 447.667 278.295 449.091 278.037 458.067C277.787 466.797 277.72 482.48 277.608 485.11C277.497 487.74 278.449 493.527 280.135 496.114C281.821 498.7 288.096 506.031 295.035 511.833C301.973 517.635 305.14 524.835 304.856 531.529C304.694 535.354 300.185 545.553 280.071 548.438C265.253 550.564 253.155 550.649 238.643 548.358C226.072 546.372 216.217 539.982 216.443 532.568C216.749 522.522 220.971 516.328 229.405 509.289C236.233 503.591 240.491 499.652 242.856 497.047C245.997 493.588 246.273 489.888 246.527 483.911C246.745 478.772 245.315 458.835 245.416 456.444C245.776 447.958 255.275 447.043 262.327 447.342Z" fill="#E4F5FF"/>
<mask id="mask14_1_13617" style="mask-type:luminance" maskUnits="userSpaceOnUse" x="-47" y="-29" width="1167" height="1166">
<path d="M43.1553 -28.9737L1119.43 60.666L1029.79 1136.94L-46.4844 1047.3L43.1553 -28.9737Z" fill="white"/>
</mask>
<g mask="url(#mask14_1_13617)">
<path d="M278.433 511.902C270.884 509.369 252.264 509.416 245.548 510.073C239.585 510.662 235.575 511.709 230.712 515.233C221.947 521.586 223.294 533.43 232.793 537.543C241.442 541.287 269.091 542.531 281.361 540.742C296.128 538.589 297.608 527.013 292.683 521.475C289.26 517.625 284.395 513.901 278.433 511.902Z" fill="#4AAF22"/>
</g>
<mask id="mask15_1_13617" style="mask-type:alpha" maskUnits="userSpaceOnUse" x="224" y="509" width="72" height="33">
<mask id="mask16_1_13617" style="mask-type:luminance" maskUnits="userSpaceOnUse" x="-47" y="-29" width="1167" height="1166">
<path d="M43.1553 -28.9737L1119.43 60.666L1029.79 1136.94L-46.4844 1047.3L43.1553 -28.9737Z" fill="white"/>
</mask>
<g mask="url(#mask16_1_13617)">
<path d="M278.433 511.902C270.884 509.369 252.264 509.416 245.548 510.073C239.585 510.662 235.575 511.709 230.712 515.233C221.947 521.586 223.294 533.43 232.793 537.543C241.442 541.287 269.091 542.531 281.361 540.742C296.128 538.589 297.608 527.013 292.683 521.475C289.26 517.625 284.395 513.901 278.433 511.902Z" fill="#4AAF22"/>
</g>
</mask>
<g mask="url(#mask15_1_13617)">
<path d="M252.818 482.092C239.236 480.89 243.697 495.145 240.207 499.741C234.814 506.842 230.321 510.643 236.147 516.535C241.617 522.065 265.753 522.642 272.48 521.755C281.166 520.593 288.989 519.038 289.407 501.599C289.612 493.006 266.399 483.293 252.818 482.092Z" fill="#58CC02"/>
</g>
<mask id="mask17_1_13617" style="mask-type:alpha" maskUnits="userSpaceOnUse" x="227" y="461" width="71" height="82">
<path d="M262.086 461.577C268.243 461.838 274.938 462.984 274.73 470.209C274.529 477.236 274.474 489.859 274.385 491.976C274.295 494.092 275.061 498.752 276.419 500.833C277.776 502.914 282.443 509.317 288.412 513.485C294.218 517.539 298.042 523.794 297.814 529.182C297.683 532.26 292.526 539.125 276.336 541.448C264.409 543.159 254.553 543.48 242.873 541.636C232.755 540.037 227.333 535.467 227.515 529.499C227.761 521.415 229.162 517.367 235.951 511.702C241.446 507.117 244.51 503.681 246.413 501.584C248.941 498.799 249.164 495.821 249.368 491.011C249.544 486.875 248.393 470.827 248.475 468.902C248.765 462.072 256.409 461.336 262.086 461.577Z" fill="#E4F5FF"/>
</mask>
<g mask="url(#mask17_1_13617)">
<mask id="mask18_1_13617" style="mask-type:luminance" maskUnits="userSpaceOnUse" x="-28" y="-23" width="1125" height="1126">
<path d="M17.9468 -22.1621L1096.99 23.3273L1051.5 1102.37L-27.5427 1056.88L17.9468 -22.1621Z" fill="white"/>
</mask>
<g mask="url(#mask18_1_13617)">
<mask id="mask19_1_13617" style="mask-type:luminance" maskUnits="userSpaceOnUse" x="-28" y="-22" width="1125" height="1126">
<path d="M17.9048 -21.163L1096.95 24.3264L1051.46 1103.37L-27.5847 1057.88L17.9048 -21.163Z" fill="white"/>
</mask>
<g mask="url(#mask19_1_13617)">
<path d="M278.285 509.787C281.076 509.905 283.243 512.287 283.124 515.107C281.065 515.059 276.018 514.846 273.017 514.681C273.136 511.861 275.494 509.67 278.285 509.787Z" fill="#58CC02"/>
<path d="M240.513 515.478C243.461 515.602 245.751 518.073 245.628 520.996C243.453 520.945 238.121 520.72 234.951 520.545C235.074 517.623 237.564 515.354 240.513 515.478Z" fill="#4AAF22"/>
<path d="M260.085 526.035C263.25 526.169 265.769 527.372 265.712 528.723C263.379 528.644 257.656 528.403 254.252 528.24C254.309 526.889 256.92 525.902 260.085 526.035Z" fill="#4AAF22"/>
<mask id="mask20_1_13617" style="mask-type:luminance" maskUnits="userSpaceOnUse" x="211" y="465" width="92" height="72">
<path d="M214.579 465.553L302.501 469.26L299.679 536.201L211.757 532.494L214.579 465.553Z" fill="white"/>
</mask>
<g mask="url(#mask20_1_13617)">
<path d="M256.204 499.09C258.579 499.19 260.426 501.2 260.326 503.575C260.226 505.951 258.216 507.798 255.841 507.698C253.466 507.597 251.618 505.588 251.718 503.212C251.819 500.837 253.828 498.99 256.204 499.09Z" fill="#4AAF22"/>
</g>
<mask id="mask21_1_13617" style="mask-type:luminance" maskUnits="userSpaceOnUse" x="217" y="483" width="73" height="58">
<path d="M219.607 483.982L289.945 486.947L287.687 540.499L217.35 537.534L219.607 483.982Z" fill="white"/>
</mask>
<g mask="url(#mask21_1_13617)">
<path d="M253.243 502.828C255.156 502.908 256.644 504.527 256.564 506.44C256.483 508.353 254.864 509.841 252.951 509.761C251.038 509.68 249.55 508.061 249.631 506.148C249.711 504.235 251.33 502.747 253.243 502.828Z" fill="#58CC02"/>
</g>
</g>
</g>
</g>
</g>
</g>
<mask id="mask22_1_13617" style="mask-type:luminance" maskUnits="userSpaceOnUse" x="0" y="0" width="1080" height="1080">
<path d="M0 0H1080V1080H0V0Z" fill="white"/>
</mask>
<g mask="url(#mask22_1_13617)">
<mask id="mask23_1_13617" style="mask-type:luminance" maskUnits="userSpaceOnUse" x="0" y="0" width="1080" height="1080">
<path d="M0 -7.62939e-06H1080V1080H0V-7.62939e-06Z" fill="white"/>
</mask>
<g mask="url(#mask23_1_13617)">
<path d="M594.54 337.328C582.212 349.261 569.316 374.915 563.973 380.283C563.344 383.298 563.01 391.23 575.45 404.466C586.681 416.415 599.18 421.978 603.666 421.225C607.067 418.028 677.384 351.938 677.384 351.938L636.088 308.001C636.088 308.001 594.264 337.587 594.54 337.328Z" fill="#F38DEE"/>
<path d="M564.072 438.852C558.698 433.512 558.963 423.15 561.407 418.629" stroke="#FF86D0" stroke-width="27.04" stroke-linecap="round" stroke-linejoin="round"/>
</g>
<path d="M798 310L726 318L695.5 428L788.5 387L798 310Z" fill="#F38DEE"/>
<path d="M670.478 635.935C672.89 638.346 729.425 674.488 729.425 674.488L836.705 449.872L758.48 459.929C758.48 459.929 672.992 622.804 671.037 626.435C669.081 630.067 669.081 634.538 670.478 635.935Z" fill="#9CD9FF"/>
<path d="M766.836 700.158C769.851 699.555 771.661 698.048 774.374 693.827C777.087 689.605 873.268 501.465 881.409 476.741C889.55 452.017 882.704 432.659 874.41 423.072C865.726 413.034 853.644 404.246 839.745 403.748C831.26 403.443 704.121 414.901 704.121 414.901L696.92 474.497C696.92 474.497 818.396 456.603 824.934 455.543C829.914 454.52 832.066 456.956 830.744 460.428C819.964 489.062 731.85 661.668 729.752 666.39C727.34 671.816 727.642 676.641 729.45 677.244C731.259 677.847 766.836 700.158 766.836 700.158Z" fill="#55AFF9"/>
<path d="M793.237 569.077C804.614 546.026 824.625 519.051 845.224 512.969C855.033 510.223 862.488 512.773 866.804 514.342C871.12 515.912 898.193 526.702 902.117 528.467C906.041 530.233 834.826 692.082 827.371 689.532C819.917 686.982 789.705 672.465 784.997 669.13C780.289 665.794 774.311 659.317 774.01 649.511C773.421 630.286 778.131 599.681 793.237 569.077Z" fill="#088DE3"/>
<path d="M823.756 589.717C802.794 630.899 796.352 675.928 823.115 687.945C847 698.669 880.466 673.098 899.725 629.075C918.535 586.082 927.837 540.66 905.167 529.755C876.888 516.151 847.449 543.168 823.756 589.717Z" fill="#264AA0"/>
<mask id="mask24_1_13617" style="mask-type:luminance" maskUnits="userSpaceOnUse" x="0" y="0" width="1080" height="1080">
<path d="M0 -7.62939e-06H1080V1080H0V-7.62939e-06Z" fill="white"/>
</mask>
<g mask="url(#mask24_1_13617)">
<path d="M684.53 487.393L708.252 500.936" stroke="#FF86D0" stroke-width="27.04" stroke-linecap="round" stroke-linejoin="round"/>
<path d="M797.755 323.35C797.646 329.349 794.556 334.449 791.484 338.393C788.412 342.338 746.135 384.575 739 391.946C731.864 399.318 727.562 414.657 741.945 429.573C751.188 439.159 762.806 437.062 770.432 430.2C778.059 423.338 816.141 384.695 816.141 384.695C816.141 384.695 797.864 317.351 797.755 323.35Z" fill="#F38DEE"/>
<path d="M744.905 387.973C738.634 390.632 735.42 392.701 731.573 400.132C729.074 404.963 701.9 458.151 700.039 463.327C698.177 468.502 697.896 473.715 703.759 476.62C709.621 479.526 733.024 489.803 738.115 491.9C743.206 493.997 748.022 490.947 750.185 486.412C752.348 481.876 780.606 415.706 782.468 410.531C784.329 405.355 782.975 395.38 775.595 392.485C767.996 389.505 752.095 384.923 744.905 387.973Z" fill="#F38DEE"/>
</g>
<path d="M750.13 266.076C750.13 260.992 750.129 257.729 750.129 257.729C750.129 257.729 800.353 223.573 800.719 223.207L798.222 319.268C798.222 319.268 782.39 327.378 750.131 322.247C750.131 313.079 750.13 281.352 750.13 266.076Z" fill="#3067E2"/>
<path d="M791.608 337.983C791.608 337.983 805.189 299.593 793.46 297.718C779.083 295.419 756.842 275.456 756.842 275.456L748.106 312.357L791.608 337.983Z" fill="#C2E2F6"/>
<path d="M800.372 245.74C797.828 253.182 797.65 259.699 795.962 278.88C791.624 328.156 785.837 417.084 785.837 433.717C816.008 440.248 847.907 419.498 851.624 396.398C848.8 362.506 836.58 275.837 834.587 257.787C833.807 250.709 823.712 244.368 819.7 243.263C815.687 242.159 805.269 242.047 800.372 245.74Z" fill="#C2E2F6"/>
<mask id="mask25_1_13617" style="mask-type:luminance" maskUnits="userSpaceOnUse" x="-36" y="-33" width="1127" height="1127">
<path d="M11.8374 -32.6602L1090.82 14.3547L1043.8 1093.33L-35.1775 1046.32L11.8374 -32.6602Z" fill="white"/>
</mask>
<g mask="url(#mask25_1_13617)">
<path d="M837.207 189.205C835.354 231.668 799.428 264.589 756.965 262.736C714.501 260.883 681.58 224.957 683.433 182.493C685.287 140.03 721.213 107.109 763.676 108.962C806.139 110.815 839.061 146.741 837.207 189.205Z" fill="#E37BDC"/>
</g>
<mask id="mask26_1_13617" style="mask-type:alpha" maskUnits="userSpaceOnUse" x="683" y="108" width="155" height="155">
<mask id="mask27_1_13617" style="mask-type:luminance" maskUnits="userSpaceOnUse" x="-36" y="-33" width="1127" height="1127">
<path d="M11.8379 -32.6602L1090.82 14.3547L1043.8 1093.33L-35.177 1046.32L11.8379 -32.6602Z" fill="white"/>
</mask>
<g mask="url(#mask27_1_13617)">
<path d="M837.208 189.205C835.355 231.668 799.429 264.589 756.965 262.736C714.502 260.883 681.581 224.957 683.434 182.493C685.287 140.03 721.213 107.109 763.676 108.962C806.14 110.815 839.061 146.741 837.208 189.205Z" fill="#E37BDC"/>
</g>
</mask>
<g mask="url(#mask26_1_13617)">
<path d="M816.539 121.01C821.64 147.258 814.722 186.513 806.814 200.742C798.45 215.789 765.064 250.97 678.418 256.557C591.772 262.144 642.736 126.022 693.965 102.128C757.234 72.6183 811.632 95.754 816.539 121.01Z" fill="#FFB7E3"/>
</g>
<mask id="mask28_1_13617" style="mask-type:luminance" maskUnits="userSpaceOnUse" x="-28" y="-75" width="1333" height="1334">
<path d="M-27.9048 218.986L1011.53 -74.2431L1304.76 965.19L265.324 1258.42L-27.9048 218.986Z" fill="white"/>
</mask>
<g mask="url(#mask28_1_13617)">
<path d="M779.847 172.846C801.563 201.027 800.893 230.948 786.07 244.96C765.623 264.289 730.799 255.375 708.431 230.707C686.545 206.57 686.02 171.36 710.209 156.474C728.39 145.285 758.132 144.665 779.847 172.846Z" fill="#E08E70"/>
</g>
<mask id="mask29_1_13617" style="mask-type:alpha" maskUnits="userSpaceOnUse" x="692" y="149" width="105" height="107">
<mask id="mask30_1_13617" style="mask-type:luminance" maskUnits="userSpaceOnUse" x="-28" y="-75" width="1333" height="1334">
<path d="M-27.9048 218.986L1011.53 -74.2431L1304.76 965.19L265.324 1258.42L-27.9048 218.986Z" fill="white"/>
</mask>
<g mask="url(#mask30_1_13617)">
<path d="M779.847 172.846C801.563 201.027 800.893 230.948 786.07 244.96C765.623 264.289 730.799 255.375 708.431 230.707C686.545 206.57 686.02 171.36 710.209 156.474C728.39 145.285 758.132 144.665 779.847 172.846Z" fill="#E08E70"/>
</g>
</mask>
<g mask="url(#mask29_1_13617)">
<mask id="mask31_1_13617" style="mask-type:luminance" maskUnits="userSpaceOnUse" x="-76" y="-90" width="1183" height="1184">
<path d="M32.3931 -89.0219L1106.97 19.1064L998.84 1093.68L-75.7352 985.553L32.3931 -89.0219Z" fill="white"/>
</mask>
<g mask="url(#mask31_1_13617)">
<path d="M718.735 196.952C712.027 198.427 705.439 201.749 703.594 206.463C701.771 211.121 704.241 219.042 709.185 221.26C712.322 222.667 714.677 219.128 720.997 217.621C726.653 216.272 734.3 218.415 737.477 214.621C741.969 209.256 739.887 201.586 731.338 197.947C727.227 196.198 723.53 195.897 718.735 196.952Z" fill="#F0F2F8"/>
<path d="M752.002 184.397C747.941 187.382 743.902 191.981 742.765 199.927C741.985 205.375 745.798 212.417 751.739 212.938C755.509 213.268 759.078 206.917 765.251 203.309C770.918 199.996 776.821 200.911 778.753 195.82C781.485 188.621 776.564 181.342 766.357 180.72C759.711 180.314 756.356 181.197 752.002 184.397Z" fill="#F0F2F8"/>
</g>
</g>
<mask id="mask32_1_13617" style="mask-type:alpha" maskUnits="userSpaceOnUse" x="702" y="180" width="78" height="42">
<mask id="mask33_1_13617" style="mask-type:luminance" maskUnits="userSpaceOnUse" x="-76" y="-90" width="1183" height="1184">
<path d="M32.3931 -89.0219L1106.97 19.1064L998.84 1093.68L-75.7352 985.553L32.3931 -89.0219Z" fill="white"/>
</mask>
<g mask="url(#mask33_1_13617)">
<path d="M718.735 196.952C712.027 198.427 705.439 201.749 703.594 206.463C701.771 211.121 704.241 219.042 709.185 221.26C712.322 222.667 714.677 219.128 720.997 217.621C726.653 216.272 734.3 218.415 737.477 214.621C741.969 209.256 739.887 201.586 731.338 197.947C727.227 196.198 723.53 195.897 718.735 196.952Z" fill="#F0F2F8"/>
<path d="M752.002 184.397C747.941 187.382 743.902 191.981 742.765 199.927C741.985 205.375 745.798 212.417 751.739 212.938C755.509 213.268 759.078 206.917 765.251 203.309C770.918 199.996 776.821 200.911 778.753 195.82C781.485 188.621 776.564 181.342 766.357 180.72C759.711 180.314 756.356 181.197 752.002 184.397Z" fill="#F0F2F8"/>
</g>
</mask>
<g mask="url(#mask32_1_13617)">
<path d="M749.564 206.838L747.91 201.592C746.815 198.119 748.742 194.417 752.214 193.322C755.687 192.227 759.389 194.154 760.484 197.627L762.138 202.873C763.233 206.345 761.306 210.048 757.834 211.143C754.361 212.238 750.659 210.31 749.564 206.838Z" fill="#10021B"/>
<path d="M747.418 199.288L746.831 197.422C746.441 196.187 747.126 194.871 748.361 194.481C749.597 194.092 750.913 194.777 751.302 196.012L751.891 197.878C752.281 199.113 751.595 200.43 750.36 200.819C749.125 201.209 747.808 200.523 747.418 199.288Z" fill="#F0F2F8"/>
</g>
<mask id="mask34_1_13617" style="mask-type:alpha" maskUnits="userSpaceOnUse" x="692" y="149" width="105" height="107">
<mask id="mask35_1_13617" style="mask-type:luminance" maskUnits="userSpaceOnUse" x="-28" y="-75" width="1333" height="1334">
<path d="M-27.9048 218.986L1011.53 -74.2431L1304.76 965.19L265.324 1258.42L-27.9048 218.986Z" fill="white"/>
</mask>
<g mask="url(#mask35_1_13617)">
<path d="M779.847 172.846C801.563 201.027 800.893 230.948 786.07 244.96C765.623 264.289 730.799 255.375 708.431 230.707C686.545 206.57 686.02 171.36 710.209 156.474C728.39 145.285 758.132 144.665 779.847 172.846Z" fill="#E08E70"/>
</g>
</mask>
<g mask="url(#mask34_1_13617)">
<path d="M776.089 189.453C770.796 188.155 764.089 189.088 756.707 193.904C752.88 196.4 744.705 202.292 744.811 207.935C744.917 213.577 753.238 225.243 753.238 225.243L785.845 217.309C785.845 217.309 781.382 190.752 776.089 189.453Z" fill="#E08E70"/>
<path d="M781.84 196.486C778.206 192.703 764.396 190.889 757.384 195.141C751.022 198.997 744.059 206.85 743.721 213.119C743.416 218.754 736.093 179.725 736.093 179.725L775.832 167.556C775.832 167.556 788.79 203.719 781.84 196.486Z" fill="#E08E70"/>
</g>
<path d="M750.136 203.87C754.186 195.573 759.545 189.276 768.429 186.723" stroke="#9E4D31" stroke-width="3.12" stroke-linecap="round" stroke-linejoin="round"/>
<mask id="mask36_1_13617" style="mask-type:alpha" maskUnits="userSpaceOnUse" x="702" y="180" width="78" height="42">
<mask id="mask37_1_13617" style="mask-type:luminance" maskUnits="userSpaceOnUse" x="-76" y="-90" width="1183" height="1184">
<path d="M32.3931 -89.0219L1106.97 19.1064L998.84 1093.68L-75.7352 985.553L32.3931 -89.0219Z" fill="white"/>
</mask>
<g mask="url(#mask37_1_13617)">
<path d="M718.735 196.952C712.027 198.427 705.439 201.749 703.594 206.463C701.771 211.121 704.241 219.042 709.185 221.26C712.322 222.667 714.677 219.128 720.997 217.621C726.653 216.272 734.3 218.415 737.477 214.621C741.969 209.256 739.887 201.586 731.338 197.947C727.227 196.198 723.53 195.897 718.735 196.952Z" fill="#F0F2F8"/>
<path d="M752.002 184.397C747.941 187.382 743.902 191.981 742.765 199.927C741.985 205.375 745.798 212.417 751.739 212.938C755.509 213.268 759.078 206.917 765.251 203.309C770.918 199.996 776.821 200.911 778.753 195.82C781.485 188.621 776.564 181.342 766.357 180.72C759.711 180.314 756.356 181.197 752.002 184.397Z" fill="#F0F2F8"/>
</g>
</mask>
<g mask="url(#mask36_1_13617)">
<path d="M711.654 220.719L708.17 214.587C705.864 210.529 707.285 205.37 711.344 203.064C715.403 200.758 720.562 202.179 722.868 206.238L726.351 212.37C728.657 216.429 727.236 221.587 723.177 223.893C719.118 226.199 713.96 224.778 711.654 220.719Z" fill="#10021B"/>
<path d="M705.956 211.107L704.635 208.782C703.76 207.243 704.299 205.285 705.839 204.411C707.379 203.536 709.335 204.075 710.21 205.614L711.531 207.941C712.406 209.48 711.867 211.437 710.327 212.311C708.788 213.186 706.831 212.647 705.956 211.107Z" fill="#F0F2F8"/>
</g>
<mask id="mask38_1_13617" style="mask-type:alpha" maskUnits="userSpaceOnUse" x="692" y="149" width="105" height="107">
<mask id="mask39_1_13617" style="mask-type:luminance" maskUnits="userSpaceOnUse" x="-28" y="-75" width="1333" height="1334">
<path d="M-27.9048 218.986L1011.53 -74.2431L1304.76 965.19L265.324 1258.42L-27.9048 218.986Z" fill="white"/>
</mask>
<g mask="url(#mask39_1_13617)">
<path d="M779.847 172.846C801.563 201.027 800.893 230.948 786.07 244.96C765.623 264.289 730.799 255.375 708.431 230.707C686.545 206.57 686.02 171.36 710.209 156.474C728.39 145.285 758.132 144.665 779.847 172.846Z" fill="#E08E70"/>
</g>
</mask>
<g mask="url(#mask38_1_13617)">
<path d="M745.625 223.512C740.181 223.248 732.536 226.225 724.689 230.578C720.577 232.86 712.835 238.796 713.213 242.508C713.783 248.123 727.777 262.899 727.777 262.899L758.27 248.889C758.27 248.889 751.068 223.777 745.625 223.512Z" fill="#E08E70"/>
<path d="M731.492 187.288C726.247 184.003 716.538 184.128 707.335 189.467C700.358 193.515 697.609 202.639 698.472 208.858C699.249 214.448 683.494 178.397 683.494 178.397L720.181 158.87C720.181 158.87 739.992 192.613 731.492 187.288Z" fill="#E08E70"/>
</g>
<path d="M741.805 211.482C743.181 213.269 747.123 216.726 749.338 219.523C750.607 221.125 748.825 225.478 746.127 226.267C743.39 227.067 739.643 225.183 739.741 222.771C739.858 219.871 741.371 213.568 741.805 211.482Z" fill="#9E4D31"/>
<path d="M663.597 170.416C662.422 174.687 665.978 187.926 678.541 193.618C690.835 198.599 705.182 199.651 724.785 193.47C737.539 189.45 758.578 173.819 765.61 158.522C759.21 153.523 740.292 143.619 723.849 147.671C706.746 151.885 695.43 164.389 690.879 167.222C686.88 169.711 677.08 170.954 671.598 166.431C668.389 163.782 664.363 167.632 663.597 170.416Z" fill="#10021B"/>
<path d="M767.315 230.386C773.568 228.347 777.709 224.248 776.598 216.703" stroke="#9E4D31" stroke-width="4" stroke-linecap="round" stroke-linejoin="round"/>
<path d="M671.689 257.805C673.937 253.083 680.662 238.28 684.058 232.169C685.745 229.134 689.82 225.747 693.952 224.523C700.024 222.724 716.94 222.571 729.146 226.547C743.988 231.382 752.983 239.254 758.38 251.397C760.516 256.794 758.827 263.829 757.406 266.514C755.065 270.936 741.9 289.633 740.888 291.096C739.877 292.558 671.689 257.805 671.689 257.805Z" fill="#264AA0"/>
<path d="M730.335 258.809C734.918 256.098 744.579 254.308 750.542 260.987C755.608 266.662 758.509 270.552 761.872 278.4C764.734 285.079 765.927 292.711 762.769 296.758C759.15 301.394 747.126 301.362 741.785 295.114C741.785 295.114 735.17 288.406 730.095 281.197C725.02 273.987 724.97 261.982 730.335 258.809Z" fill="#F09172"/>
<path d="M626.108 273.152C629.818 265.394 634.899 256.522 648.372 255.273C664.862 253.745 686.674 255.183 705.043 263.37C737.554 277.86 750.752 288.102 762.726 306.547C768.777 315.868 768.096 323.442 764.081 333.289C759.281 345.064 673.325 529.179 668.274 539.305C662.683 550.514 657.434 554.124 640.783 553.959C624.2 553.796 599.553 546.957 579.709 537.414C561.935 528.866 542.127 509.809 533.343 501.187C526.438 494.408 526.766 486.123 531.656 475.886C536.988 464.723 626.108 273.152 626.108 273.152Z" fill="#55AFF9"/>
<path d="M662.884 546.905C657.127 559.445 615.745 556.17 579.565 537.465C546.749 520.5 523.088 497.906 528.844 485.367C534.601 472.827 569.274 476.438 606.288 493.432C643.302 510.425 668.64 534.366 662.884 546.905Z" fill="#9CD9FF"/>
<mask id="mask40_1_13617" style="mask-type:alpha" maskUnits="userSpaceOnUse" x="459" y="494" width="195" height="147">
<path d="M549.75 608.25C542.87 604.59 405.5 575 482.992 507.732C506.211 487.576 549.617 496.137 551.375 495.875C569 493.25 583.5 498.25 601.125 506.125C618.75 514 636.625 529 639.625 540.75C638.375 544 653.6 563.651 653.75 601.5C654 664.5 608.5 639.5 549.75 608.25Z" fill="#F28CED"/>
</mask>
<g mask="url(#mask40_1_13617)">
<path d="M539.215 519.932L630.497 562.037C630.497 562.037 656.601 508.012 658.255 503.732C660.413 498.146 648.099 482.025 620.172 467.935C595.591 455.532 572.697 454.607 569.396 459.176C565.574 464.469 539.215 519.932 539.215 519.932Z" fill="#264AA0"/>
<path d="M630.407 562.24C622.942 577.955 581.636 565.894 570.919 558.084C555.925 547.158 535.968 525.794 538.917 520.345C541.63 515.334 567.411 518.337 590.987 529.921C623.497 545.894 632.958 556.869 630.407 562.24Z" fill="#088DE3"/>
<path d="M543.237 525.453C542.614 531.89 545.071 538.055 557.078 548.842C569.814 560.283 580.369 562.254 592.535 565.012C578.9 559.267 555.586 545.386 552.541 525.314C550.045 525.246 545.063 525.359 543.237 525.453Z" fill="#C2E2F6"/>
<path d="M589.862 535.499C609.044 544.572 617.896 554.537 621.119 558.21C624.342 561.883 622.191 563.024 621.152 563.957C617.91 566.868 598.929 568.142 590.848 564.354C571.659 555.36 564.477 548.447 559.305 540.951C554.133 533.455 552.643 528.491 552.539 525.313C558.177 525.406 573.22 527.628 589.862 535.499Z" fill="white"/>
</g>
<mask id="mask41_1_13617" style="mask-type:alpha" maskUnits="userSpaceOnUse" x="558" y="340" width="211" height="216">
<mask id="mask42_1_13617" style="mask-type:luminance" maskUnits="userSpaceOnUse" x="558" y="340" width="295" height="250">
<path d="M712.644 343.327L558.619 378.172L681.334 589.767L852.529 443.822C852.529 443.822 809.099 368.829 812.785 357.403C816.413 346.158 755.773 340.744 755.773 340.744L712.644 343.327Z" fill="white"/>
</mask>
<g mask="url(#mask42_1_13617)">
<path d="M625.892 271.77C629.64 263.934 634.771 254.974 648.379 253.713C665.034 252.169 687.064 253.622 705.617 261.89C738.453 276.525 751.783 286.87 763.877 305.5C769.988 314.913 769.3 322.563 765.246 332.509C760.397 344.401 673.581 530.358 668.481 540.584C662.834 551.906 657.532 555.552 640.714 555.386C623.966 555.221 541.071 510.794 532.2 502.085C525.226 495.239 525.557 486.871 530.496 476.532C535.881 465.257 625.892 271.77 625.892 271.77Z" fill="#55AFF9"/>
</g>
</mask>
<g mask="url(#mask41_1_13617)">
<mask id="mask43_1_13617" style="mask-type:luminance" maskUnits="userSpaceOnUse" x="0" y="0" width="1080" height="1080">
<path d="M0 0H1080V1080H0V0Z" fill="white"/>
</mask>
<g mask="url(#mask43_1_13617)">
<path d="M684.53 487.393L708.252 500.936" stroke="#FF86D0" stroke-width="27.04" stroke-linecap="round" stroke-linejoin="round"/>
<path d="M797.755 323.35C797.646 329.349 794.556 334.449 791.484 338.393C788.412 342.338 746.135 384.575 739 391.946C731.864 399.318 727.562 414.657 741.945 429.573C751.188 439.159 762.806 437.062 770.432 430.2C778.059 423.338 816.141 384.695 816.141 384.695C816.141 384.695 797.864 317.351 797.755 323.35Z" fill="#F38DEE"/>
<path d="M744.905 387.973C738.634 390.632 735.42 392.701 731.573 400.132C729.074 404.963 701.9 458.151 700.039 463.327C698.177 468.502 697.896 473.715 703.759 476.62C709.621 479.526 733.024 489.803 738.115 491.9C743.206 493.997 748.022 490.947 750.185 486.412C752.348 481.876 780.606 415.706 782.468 410.531C784.329 405.355 782.975 395.38 775.595 392.485C767.996 389.505 752.095 384.923 744.905 387.973Z" fill="#F38DEE"/>
</g>
</g>
</g>
</g>
</g>
</g>
<defs>
<clipPath id="clip0_1_13617">
<rect width="1080" height="1080" fill="white"/>
</clipPath>
</defs>
</svg>
