<svg width="1080" height="1080" viewBox="0 0 1080 1080" fill="none" xmlns="http://www.w3.org/2000/svg">
<g clip-path="url(#clip0_1_12060)">
<mask id="mask0_1_12060" style="mask-type:luminance" maskUnits="userSpaceOnUse" x="0" y="0" width="1080" height="1080">
<path d="M1080 0H0V1080H1080V0Z" fill="white"/>
</mask>
<g mask="url(#mask0_1_12060)">
<mask id="mask1_1_12060" style="mask-type:luminance" maskUnits="userSpaceOnUse" x="0" y="0" width="1080" height="1080">
<path d="M0 0H1080V1080H0V0Z" fill="white"/>
</mask>
<g mask="url(#mask1_1_12060)">
<path d="M721 157.266V722.734C721 743.706 703.972 760.734 683 760.734H377C356.028 760.734 339 743.706 339 722.734V157.266C339 136.294 356.028 119.266 377 119.266H683C703.972 119.266 721 136.294 721 157.266Z" fill="white"/>
<path d="M721 157.266V722.734C721 743.706 703.972 760.734 683 760.734H377C356.028 760.734 339 743.706 339 722.734V157.266C339 136.294 356.028 119.266 377 119.266H683C703.972 119.266 721 136.294 721 157.266Z" stroke="#F3C35B" stroke-width="15" stroke-linecap="round" stroke-linejoin="round"/>
<path d="M390 197H668.5" stroke="#E5E5E5" stroke-width="26" stroke-linecap="round" stroke-linejoin="round"/>
<path d="M390 197C390 197 425.3 197 470.765 197" stroke="#89E219" stroke-width="26" stroke-linecap="round" stroke-linejoin="round"/>
<path d="M633 788.091V841.908C633 844.668 630.759 846.908 628 846.908H435C432.241 846.908 430 844.668 430 841.908V788.091C430 785.332 432.241 783.091 435 783.091H628C630.759 783.091 633 785.332 633 788.091Z" fill="#FDE371"/>
<path d="M633 788.091V841.908C633 844.668 630.759 846.908 628 846.908H435C432.241 846.908 430 844.668 430 841.908V788.091C430 785.332 432.241 783.091 435 783.091H628C630.759 783.091 633 785.332 633 788.091Z" stroke="#F8C55A" stroke-width="10"/>
<path d="M546.266 829.234C546.266 831.782 547.872 833.332 550.143 833.332C552.359 833.332 554.021 831.782 554.021 829.234V799.711C554.021 796.886 552.359 795.003 549.7 795.003C547.928 795.003 546.432 795.723 544.992 796.72L539.066 800.819C537.737 801.705 537.127 802.924 537.127 804.087C537.127 805.97 538.568 807.355 540.34 807.355C541.115 807.355 541.946 807.134 542.666 806.635L546.155 804.253H546.266V829.234Z" fill="white"/>
<path d="M514.298 816.716L515.073 811.066H520.889L520.114 816.716H514.298ZM506.488 829.787C506.211 831.892 507.541 833.332 509.424 833.332C511.03 833.332 512.193 832.28 512.415 830.563L513.522 822.199H519.394L518.341 829.787C518.064 831.892 519.394 833.332 521.277 833.332C522.883 833.332 524.046 832.28 524.268 830.563L525.376 822.199H527.758C529.697 822.199 530.804 821.092 530.804 819.43C530.804 817.768 529.697 816.716 527.758 816.716H526.151L526.927 811.066H529.198C531.137 811.066 532.244 809.958 532.244 808.296C532.244 806.634 531.137 805.582 529.198 805.582H527.647L528.644 798.548C528.921 796.443 527.591 795.003 525.708 795.003C524.102 795.003 522.939 796.055 522.717 797.772L521.609 805.582H515.793L516.79 798.548C517.067 796.443 515.738 795.003 513.855 795.003C512.249 795.003 511.086 796.055 510.864 797.772L509.756 805.582H507.54C505.601 805.582 504.494 806.634 504.494 808.296C504.494 809.958 505.601 811.066 507.54 811.066H509.036L508.26 816.716H506.1C504.161 816.716 503.054 817.768 503.054 819.43C503.054 821.092 504.161 822.199 506.1 822.199H507.54L506.488 829.787Z" fill="white"/>
<path d="M718.75 800.75C718.75 800.75 677.5 905 531.5 905C385.5 905 350.5 800.5 350.5 800.5" stroke="#FDE371" stroke-width="25" stroke-linecap="round" stroke-linejoin="round"/>
<path d="M707.89 820.339C687.834 850.533 637.031 905 531.5 905C426.466 905 378.88 850.915 360.445 820.565" stroke="#EB6C6C" stroke-width="25" stroke-linejoin="round"/>
<path d="M800.25 940.75C800.25 947.925 794.425 953.75 787.25 953.75H722.25C715.075 953.75 709.25 947.925 709.25 940.75C709.25 933.575 715.075 927.75 722.25 927.75H787.25C794.425 927.75 800.25 933.575 800.25 940.75Z" fill="#FEE472"/>
<path d="M767.25 809.75V931.75H742.25V809.75H767.25Z" fill="#FEE472"/>
<path d="M775.75 807.75C775.75 811.889 772.389 815.25 768.25 815.25H741.25C737.111 815.25 733.75 811.889 733.75 807.75C733.75 803.611 737.111 800.25 741.25 800.25H768.25C772.389 800.25 775.75 803.611 775.75 807.75Z" fill="#FEE472"/>
<path d="M771.75 788.75C771.75 798.132 764.132 805.75 754.75 805.75C745.368 805.75 737.75 798.132 737.75 788.75C737.75 779.368 745.368 771.75 754.75 771.75C764.132 771.75 771.75 779.368 771.75 788.75Z" fill="#FEE472"/>
<path d="M800.25 940.75C800.25 947.93 794.43 953.75 787.25 953.75H722.25C715.07 953.75 709.25 947.93 709.25 940.75C725.438 940.812 781.75 940.812 800.25 940.75Z" fill="#F8C55A"/>
<path d="M767.25 815.5V824.875H742.25V815.5H767.25Z" fill="#F8C55A"/>
<path d="M771.75 788.75C771.75 792.982 770.125 797.087 767.566 800.063C760 800.187 748.688 800.25 742.086 800.091C739.39 797.082 737.75 793.108 737.75 788.75C737.688 788.812 741.75 796.25 755.25 796.375C767.438 796.488 771.875 788.75 771.75 788.75Z" fill="#F8C55A"/>
<path d="M359.75 940.75C359.75 947.925 353.925 953.75 346.75 953.75H281.75C274.575 953.75 268.75 947.925 268.75 940.75C268.75 933.575 274.575 927.75 281.75 927.75H346.75C353.925 927.75 359.75 933.575 359.75 940.75Z" fill="#FEE472"/>
<path d="M326.75 809.75V931.75H301.75V809.75H326.75Z" fill="#FEE472"/>
<path d="M335.25 807.75C335.25 811.889 331.889 815.25 327.75 815.25H300.75C296.611 815.25 293.25 811.889 293.25 807.75C293.25 803.611 296.611 800.25 300.75 800.25H327.75C331.889 800.25 335.25 803.611 335.25 807.75Z" fill="#FEE472"/>
<path d="M331.25 788.75C331.25 798.132 323.632 805.75 314.25 805.75C304.868 805.75 297.25 798.132 297.25 788.75C297.25 779.368 304.868 771.75 314.25 771.75C323.632 771.75 331.25 779.368 331.25 788.75Z" fill="#FEE472"/>
<path d="M359.75 940.75C359.75 947.93 353.93 953.75 346.75 953.75H281.75C274.57 953.75 268.75 947.93 268.75 940.75C284.938 940.812 341.25 940.812 359.75 940.75Z" fill="#F8C55A"/>
<path d="M326.75 815.5V824.875H301.75V815.5H326.75Z" fill="#F8C55A"/>
<path d="M331.25 788.75C331.25 792.982 329.625 797.087 327.066 800.063C319.5 800.187 308.188 800.25 301.586 800.091C298.89 797.082 297.25 793.108 297.25 788.75C297.188 788.812 301.25 796.25 314.75 796.375C326.938 796.488 331.375 788.75 331.25 788.75Z" fill="#F8C55A"/>
<mask id="mask2_1_12060" style="mask-type:luminance" maskUnits="userSpaceOnUse" x="352" y="296" width="183" height="188">
<path d="M352.5 296.75H534.5V483.75H352.5V296.75Z" fill="white"/>
</mask>
<g mask="url(#mask2_1_12060)">
<path d="M521.25 332.75V447.75C521.25 458.788 512.288 467.75 501.25 467.75H385.75C374.712 467.75 365.75 458.788 365.75 447.75V332.75C365.75 321.712 374.712 312.75 385.75 312.75H501.25C512.288 312.75 521.25 321.712 521.25 332.75Z" fill="#F1F1F1"/>
<path d="M443.635 352.501C478.885 352.731 503.705 382.127 504.14 411.139C504.385 427.501 489.135 428.001 489.135 428.001H398.135C398.135 428.001 382.635 427.876 382.86 409.961C383.166 385.627 405.26 352.251 443.635 352.501Z" fill="#1EB0F6"/>
<path d="M472.375 402.126C472.375 410.198 465.822 416.751 457.75 416.751H429.25C421.178 416.751 414.625 410.198 414.625 402.126C414.625 394.054 421.178 387.501 429.25 387.501H457.75C465.822 387.501 472.375 394.054 472.375 402.126Z" fill="white"/>
<path d="M396.635 353.376L400.51 379.001L416.26 366.626L396.635 353.376Z" fill="#1EB0F6"/>
<path d="M396.635 353.376L400.51 379.001L416.26 366.626L396.635 353.376Z" stroke="#1EB0F6" stroke-width="13" stroke-linecap="round" stroke-linejoin="round"/>
<path d="M490.385 353.376L486.51 379.001L470.76 366.626L490.385 353.376Z" fill="#1EB0F6"/>
<path d="M490.385 353.376L486.51 379.001L470.76 366.626L490.385 353.376Z" stroke="#1EB0F6" stroke-width="13" stroke-linecap="round" stroke-linejoin="round"/>
<mask id="mask3_1_12060" style="mask-type:alpha" maskUnits="userSpaceOnUse" x="382" y="352" width="123" height="77">
<path d="M443.635 352.501C478.885 352.731 503.705 382.127 504.14 411.139C504.385 427.501 489.135 428.001 489.135 428.001H398.135C398.135 428.001 382.635 427.876 382.86 409.961C383.166 385.627 405.26 352.251 443.635 352.501Z" fill="#1EB0F6"/>
</mask>
<g mask="url(#mask3_1_12060)">
<path d="M396.885 408.751H373.01V391.001H404.01" stroke="#0498DE" stroke-width="14" stroke-linecap="round" stroke-linejoin="round"/>
<path d="M490.103 408.751H513.978V391.001H482.978" stroke="#0498DE" stroke-width="14" stroke-linecap="round" stroke-linejoin="round"/>
</g>
<mask id="mask4_1_12060" style="mask-type:alpha" maskUnits="userSpaceOnUse" x="414" y="387" width="59" height="30">
<path d="M472.375 402.126C472.375 410.198 465.822 416.751 457.75 416.751H429.25C421.178 416.751 414.625 410.198 414.625 402.126C414.625 394.054 421.178 387.501 429.25 387.501H457.75C465.822 387.501 472.375 394.054 472.375 402.126Z" fill="white"/>
</mask>
<g mask="url(#mask4_1_12060)">
<path d="M443.5 380.751V392.251" stroke="#FFC5DF" stroke-width="12" stroke-linecap="round" stroke-linejoin="round"/>
</g>
</g>
<mask id="mask5_1_12060" style="mask-type:luminance" maskUnits="userSpaceOnUse" x="352" y="468" width="183" height="188">
<path d="M352.5 468.25H534.5V655.25H352.5V468.25Z" fill="white"/>
</mask>
<g mask="url(#mask5_1_12060)">
<path d="M521.25 504.25V619.25C521.25 630.288 512.288 639.25 501.25 639.25H385.75C374.712 639.25 365.75 630.288 365.75 619.25V504.25C365.75 493.212 374.712 484.25 385.75 484.25H501.25C512.288 484.25 521.25 493.212 521.25 504.25Z" fill="#F1F1F1"/>
<path d="M449.009 508.182C465.438 508.285 461.321 515.176 469.417 519.075C477.513 522.974 482.747 520.498 489.515 527.531C496.152 534.428 492.47 539.163 494.47 547.924C496.47 556.685 503.295 554.713 503.22 568.308C503.14 582.815 496.452 582.422 491.529 589.939C486.437 597.714 491.809 605.417 478.739 611.711C475.901 613.078 471.629 614.901 466.409 614.869C452.509 614.785 435.651 614.856 421.537 614.726C415.776 614.673 411.051 612.755 407.993 611.282C394.923 604.988 400.235 596.108 394.632 589.082C389.029 582.056 382.437 579.856 383.798 566.451C384.953 555.068 391.12 557.114 393.12 548.353C395.12 539.592 390.067 537.296 396.788 528.245C403.866 518.714 408.647 522.979 416.743 519.08C424.542 515.324 422.563 508.752 435.876 508.148C436.384 508.125 448.476 508.179 449.009 508.182Z" fill="#F48F00"/>
<path d="M471.866 554.625L471.884 576.446C471.884 592.117 459.162 597.25 443.491 597.25C427.82 597.25 415.134 592.117 415.134 576.446L415.116 554.625C415.116 538.954 427.82 526.25 443.491 526.25C459.162 526.25 471.866 538.954 471.866 554.625Z" fill="#FFD2A6"/>
<path d="M413.732 553.859C419.009 553.859 423.294 558.143 423.294 563.421C423.294 568.699 419.009 572.984 413.732 572.984C408.454 572.984 404.169 568.699 404.169 563.421C404.169 558.143 408.454 553.859 413.732 553.859Z" fill="#FFD2A6"/>
<path d="M472.018 553.859C477.296 553.859 481.581 558.143 481.581 563.421C481.581 568.699 477.296 572.984 472.018 572.984C466.741 572.984 462.456 568.699 462.456 563.421C462.456 558.143 466.741 553.859 472.018 553.859Z" fill="#FFD2A6"/>
<path d="M490.203 549.216C485.533 552.414 479.882 554.285 473.795 554.285C457.739 554.285 444.724 541.27 444.724 525.214C444.724 521.1 445.579 517.185 447.12 513.638C451.594 503.343 497.85 543.979 490.203 549.216Z" fill="#F48F00"/>
</g>
<path d="M694.75 332.75V447.75C694.75 458.788 685.788 467.75 674.75 467.75H559.25C548.212 467.75 539.25 458.788 539.25 447.75V332.75C539.25 321.712 548.212 312.75 559.25 312.75H674.75C685.788 312.75 694.75 321.712 694.75 332.75Z" fill="#F1F1F1"/>
<mask id="mask6_1_12060" style="mask-type:luminance" maskUnits="userSpaceOnUse" x="526" y="468" width="182" height="188">
<path d="M526 468.25H708V655.25H526V468.25Z" fill="white"/>
</mask>
<g mask="url(#mask6_1_12060)">
<path d="M694.75 504.25V619.25C694.75 630.288 685.788 639.25 674.75 639.25H559.25C548.212 639.25 539.25 630.288 539.25 619.25V504.25C539.25 493.212 548.212 484.25 559.25 484.25H674.75C685.788 484.25 694.75 493.212 694.75 504.25Z" fill="#F1F1F1"/>
<path d="M655 541.875V587.875C655 598.913 646.038 607.875 635 607.875H602.25C591.212 607.875 582.25 598.913 582.25 587.875V541.875C582.25 530.837 591.212 521.875 602.25 521.875H635C646.038 521.875 655 530.837 655 541.875Z" fill="#E4976D"/>
<path d="M582.438 559.25C587.716 559.25 592 563.534 592 568.812C592 574.09 587.716 578.375 582.438 578.375C577.16 578.375 572.875 574.09 572.875 568.812C572.875 563.534 577.16 559.25 582.438 559.25Z" fill="#E4976D"/>
<path d="M654.438 559.25C659.716 559.25 664 563.534 664 568.812C664 574.09 659.716 578.375 654.438 578.375C649.16 578.375 644.875 574.09 644.875 568.812C644.875 563.534 649.16 559.25 654.438 559.25Z" fill="#E4976D"/>
<path d="M658.5 532.75V559.5C658.438 561.875 654.108 561.506 654.147 559.619C654.375 548.563 656.313 534.5 646.313 534.875H598.75C587.704 534.875 578.75 532.75 578.75 532.75C578.75 521.704 587.704 512.75 598.75 512.75H638.5C649.546 512.75 658.5 521.704 658.5 532.75Z" fill="#824E33"/>
<path d="M595.188 504.25C607.088 504.25 616.75 513.913 616.75 525.813C616.75 537.713 607.088 547.375 595.188 547.375C583.288 547.375 573.625 537.713 573.625 525.813C573.625 513.913 583.288 504.25 595.188 504.25Z" fill="#824E33"/>
<path d="M585.072 564.858C576.499 563.759 569.874 556.435 569.874 547.563C569.874 538.691 576.499 531.367 585.072 530.268C585.03 530.375 585.062 564.876 585.072 564.858Z" fill="#824E33"/>
<path d="M606.25 583.219L619.25 576.875L632.25 583.219" stroke="#824E33" stroke-width="15" stroke-linecap="round" stroke-linejoin="round"/>
<path d="M619.25 557.375C619.25 557.375 607.25 574.562 619.25 574.562C631.25 574.562 619.25 557.375 619.25 557.375Z" fill="#CC7D52"/>
<path d="M619.25 557.375C619.25 557.375 607.25 574.562 619.25 574.562C631.25 574.562 619.25 557.375 619.25 557.375Z" stroke="#CC7D52" stroke-width="5" stroke-linecap="round" stroke-linejoin="round"/>
</g>
<mask id="mask7_1_12060" style="mask-type:luminance" maskUnits="userSpaceOnUse" x="36" y="0" width="1080" height="1080">
<path d="M36 0H1116V1080H36V0Z" fill="white"/>
</mask>
<g mask="url(#mask7_1_12060)">
<path d="M236.912 714.371C251.364 719.8 258.613 736.149 253.088 750.857C247.564 765.565 231.344 773.1 216.892 767.672C202.439 762.243 195.191 745.894 200.715 731.186C206.24 716.477 222.459 708.943 236.912 714.371Z" fill="#3D3D3D"/>
<path d="M325.704 740.652C340.156 746.081 347.405 762.43 341.88 777.138C336.356 791.847 320.136 799.381 305.684 793.953C291.231 788.524 283.983 772.175 289.507 757.467C295.032 742.758 311.251 735.224 325.704 740.652Z" fill="#3D3D3D"/>
<path d="M286.041 681.633C305.093 688.789 314.648 710.341 307.366 729.73C300.083 749.12 278.701 759.052 259.649 751.896C240.597 744.74 231.042 723.187 238.324 703.798C245.607 684.409 266.989 674.477 286.041 681.633Z" fill="#3D3D3D"/>
<path d="M309.812 717.827C309.812 717.827 285.96 705.373 275.988 727.704C266.015 750.036 306.929 770.511 311.627 770.663C316.325 770.814 345.24 747.4 319.427 738.644C304.666 733.637 309.812 717.827 309.812 717.827Z" fill="#3D3D3D"/>
<path d="M381.367 773.377L384.283 755.216" stroke="#DA8E74" stroke-width="12" stroke-linecap="round" stroke-linejoin="round"/>
<path d="M391.718 761.467C391.773 761.467 407.923 761.338 407.978 761.339C416.064 761.428 422.592 768.011 422.592 776.118C422.592 784.225 416.064 790.808 407.978 790.897C407.923 790.898 391.773 791.026 391.718 791.026C383.555 791.026 376.938 784.409 376.938 776.247C376.938 768.085 383.555 761.467 391.718 761.467Z" fill="#DA8E74"/>
<path d="M309.881 836.892C329.288 824.822 346.446 814.022 356.1 806.232C365.044 798.974 386.202 780.216 386.202 780.216" stroke="#FFAADE" stroke-width="30"/>
<mask id="mask8_1_12060" style="mask-type:luminance" maskUnits="userSpaceOnUse" x="36" y="0" width="1080" height="1080">
<path d="M36 0H1116V1080H36V0Z" fill="white"/>
</mask>
<g mask="url(#mask8_1_12060)">
<path d="M259.595 783.194C256.071 819.254 259.846 856.229 279.317 890.806" stroke="#DA8E74" stroke-width="122.6" stroke-linecap="round" stroke-linejoin="round"/>
</g>
<mask id="mask9_1_12060" style="mask-type:alpha" maskUnits="userSpaceOnUse" x="197" y="721" width="145" height="232">
<mask id="mask10_1_12060" style="mask-type:luminance" maskUnits="userSpaceOnUse" x="36" y="0" width="1080" height="1080">
<path d="M36 0H1116V1080H36V0Z" fill="white"/>
</mask>
<g mask="url(#mask10_1_12060)">
<path d="M261.367 783.711C257.4 820.878 259.78 853.732 279.022 890.289" stroke="#DA8E74" stroke-width="125" stroke-linecap="round" stroke-linejoin="round"/>
</g>
</mask>
<g mask="url(#mask9_1_12060)">
<path d="M371.944 754.041L368.105 781.359C366.569 792.29 356.447 799.917 345.516 798.381L314.613 794.038C303.682 792.501 296.055 782.379 297.591 771.449L301.43 744.131C302.967 733.201 313.089 725.573 324.019 727.109L354.923 731.453C365.853 732.989 373.481 743.111 371.944 754.041Z" fill="#3D3D3D"/>
</g>
<path d="M204.387 872.171L184.006 899.592L172.9 872.373" stroke="#FFAADE" stroke-width="30" stroke-linecap="round" stroke-linejoin="round"/>
<path d="M179.177 846.655C179.203 846.598 183.199 866.363 183.199 866.363L179.177 846.655Z" fill="#3D3D3D"/>
<path d="M179.177 846.655C179.203 846.598 183.199 866.363 183.199 866.363" stroke="#DA8E74" stroke-width="12" stroke-linecap="round"/>
<path d="M173.856 855.806C183.713 855.806 191.716 863.809 191.716 873.666C191.716 883.522 183.713 891.526 173.856 891.526C163.999 891.526 155.996 883.522 155.996 873.666C155.996 863.809 163.999 855.806 173.856 855.806Z" fill="#DA8E74"/>
<path d="M243.062 968.125C253.912 968.125 266.646 967.218 274.494 966.069" stroke="#1CB0F6" stroke-width="19" stroke-linecap="round" stroke-linejoin="round"/>
<path d="M322.713 961.962C330.338 956.487 340.364 949.242 345.407 945.566" stroke="#1CB0F6" stroke-width="19" stroke-linecap="round" stroke-linejoin="round"/>
<path d="M223.548 759.069C229.067 759.069 233.548 763.55 233.548 769.069C233.548 774.588 229.067 779.069 223.548 779.069C218.029 779.069 213.548 774.588 213.548 769.069C213.548 763.55 218.029 759.069 223.548 759.069Z" fill="#DA8E74"/>
<path d="M316.703 789.369C322.226 789.369 326.703 793.846 326.703 799.369C326.703 804.892 322.226 809.369 316.703 809.369C311.18 809.369 306.453 805.033 306.453 798.744C306.453 792.455 311.18 789.369 316.703 789.369Z" fill="#DA8E74"/>
<mask id="mask11_1_12060" style="mask-type:alpha" maskUnits="userSpaceOnUse" x="197" y="721" width="145" height="232">
<mask id="mask12_1_12060" style="mask-type:luminance" maskUnits="userSpaceOnUse" x="36" y="0" width="1080" height="1080">
<path d="M36 0H1116V1080H36V0Z" fill="white"/>
</mask>
<g mask="url(#mask12_1_12060)">
<path d="M261.367 783.711C257.4 820.878 259.78 853.732 279.022 890.289" stroke="#DA8E74" stroke-width="125" stroke-linecap="round" stroke-linejoin="round"/>
</g>
</mask>
<g mask="url(#mask11_1_12060)">
<mask id="mask13_1_12060" style="mask-type:luminance" maskUnits="userSpaceOnUse" x="199" y="750" width="39" height="29">
<path d="M203.53 750.603L199.224 768.541C199.224 768.541 204.167 772.333 214.873 775.753C222.957 778.335 232.187 778.543 232.187 778.543L237.524 757.676C237.524 757.676 231.782 754.669 221.591 752.543C211.766 750.493 203.53 750.603 203.53 750.603Z" fill="white"/>
</mask>
<g mask="url(#mask13_1_12060)">
<path d="M235.857 758.457L232.233 769.706C229.888 776.987 222.071 780.995 214.789 778.65C207.508 776.304 203.5 768.487 205.845 761.206L209.469 749.957C211.814 742.675 219.631 738.667 226.913 741.013C234.194 743.358 238.202 751.175 235.857 758.457Z" fill="white"/>
</g>
</g>
<mask id="mask14_1_12060" style="mask-type:alpha" maskUnits="userSpaceOnUse" x="197" y="721" width="145" height="232">
<mask id="mask15_1_12060" style="mask-type:luminance" maskUnits="userSpaceOnUse" x="36" y="0" width="1080" height="1080">
<path d="M36 0H1116V1080H36V0Z" fill="white"/>
</mask>
<g mask="url(#mask15_1_12060)">
<path d="M261.367 783.711C257.4 820.878 259.78 853.732 279.022 890.289" stroke="#DA8E74" stroke-width="125" stroke-linecap="round" stroke-linejoin="round"/>
</g>
</mask>
<g mask="url(#mask14_1_12060)">
<mask id="mask16_1_12060" style="mask-type:luminance" maskUnits="userSpaceOnUse" x="231" y="757" width="41" height="33">
<path d="M271.383 772.322L264.137 789.286C264.137 789.286 257.907 789.38 247.275 785.736C239.247 782.986 231.715 777.645 231.715 777.645L239.883 757.715C239.883 757.715 246.286 758.728 255.731 763.102C264.839 767.319 271.383 772.322 271.383 772.322Z" fill="white"/>
</mask>
<g mask="url(#mask16_1_12060)">
<path d="M241.035 759.453L237.232 770.643C234.769 777.886 238.651 785.766 245.894 788.228C253.137 790.69 261.017 786.809 263.48 779.565L267.283 768.376C269.745 761.133 265.864 753.253 258.621 750.791C251.378 748.329 243.498 752.21 241.035 759.453Z" fill="white"/>
</g>
</g>
<mask id="mask17_1_12060" style="mask-type:alpha" maskUnits="userSpaceOnUse" x="205" y="750" width="32" height="29">
<mask id="mask18_1_12060" style="mask-type:luminance" maskUnits="userSpaceOnUse" x="199" y="750" width="39" height="29">
<path d="M203.53 750.603L199.224 768.541C199.224 768.541 204.167 772.333 214.873 775.753C222.957 778.335 232.187 778.543 232.187 778.543L237.524 757.676C237.524 757.676 231.782 754.669 221.591 752.543C211.766 750.493 203.53 750.603 203.53 750.603Z" fill="white"/>
</mask>
<g mask="url(#mask18_1_12060)">
<path d="M235.857 758.457L232.233 769.705C229.888 776.987 222.071 780.995 214.789 778.649C207.508 776.304 203.5 768.487 205.845 761.206L209.469 749.957C211.814 742.675 219.631 738.667 226.913 741.013C234.194 743.358 238.202 751.175 235.857 758.457Z" fill="white"/>
</g>
</mask>
<g mask="url(#mask17_1_12060)">
<path d="M216.31 753.827L215.215 759.135C214.583 762.197 211.583 764.171 208.521 763.539C205.458 762.907 203.485 759.908 204.116 756.845L205.211 751.537C205.843 748.475 208.843 746.501 211.905 747.133C214.968 747.764 216.941 750.764 216.31 753.827Z" fill="#3D3D3D"/>
</g>
<mask id="mask19_1_12060" style="mask-type:alpha" maskUnits="userSpaceOnUse" x="236" y="757" width="33" height="32">
<mask id="mask20_1_12060" style="mask-type:luminance" maskUnits="userSpaceOnUse" x="231" y="757" width="41" height="33">
<path d="M271.383 772.322L264.137 789.286C264.137 789.286 257.907 789.38 247.275 785.736C239.247 782.986 231.715 777.645 231.715 777.645L239.883 757.715C239.883 757.715 246.286 758.728 255.731 763.102C264.839 767.319 271.383 772.322 271.383 772.322Z" fill="white"/>
</mask>
<g mask="url(#mask20_1_12060)">
<path d="M241.035 759.454L237.232 770.643C234.769 777.886 238.651 785.766 245.894 788.228C253.137 790.69 261.017 786.809 263.48 779.566L267.283 768.376C269.745 761.133 265.864 753.253 258.621 750.791C251.378 748.329 243.498 752.21 241.035 759.454Z" fill="white"/>
</g>
</mask>
<g mask="url(#mask19_1_12060)">
<path d="M249.001 762.032L247.906 767.34C247.275 770.403 244.275 772.376 241.213 771.745C238.15 771.113 236.176 768.113 236.808 765.051L237.903 759.743C238.535 756.68 241.534 754.706 244.597 755.338C247.66 755.97 249.633 758.969 249.001 762.032Z" fill="#3D3D3D"/>
</g>
<path d="M198.639 784.717C198.639 784.717 226.21 791.098 229.691 791.904C233.888 792.876 254.67 806.039 254.67 806.039" stroke="#3D3D3D" stroke-width="32" stroke-linecap="round" stroke-linejoin="round"/>
<path d="M229.512 771.365C234.063 771.365 237.757 775.059 237.757 779.61C237.757 784.16 234.063 787.855 229.512 787.855C224.962 787.855 221.267 784.16 221.267 779.61C221.267 775.059 224.962 771.365 229.512 771.365Z" fill="#DA8E74"/>
<path d="M210.704 740.51C210.704 740.51 213.919 737.134 220.136 736.646C226.736 736.124 231.374 739.097 231.374 739.097" stroke="#3D3D3D" stroke-width="14" stroke-linecap="round"/>
<path d="M248.633 743.823C248.633 743.823 253.01 742.252 258.751 744.918C264.91 747.778 267.306 752.799 267.306 752.799" stroke="#3D3D3D" stroke-width="14" stroke-linecap="round"/>
</g>
</g>
<path d="M563.764 352.64C563.764 340.11 577.035 331.891 588.586 336.746C599.358 341.273 610.889 345.418 616.999 345.418C623.111 345.418 634.642 341.273 645.413 336.746C656.965 331.891 670.236 340.11 670.236 352.64L670.235 391.933C670.235 421.334 646.401 445.168 616.999 445.168C587.598 445.168 563.764 421.334 563.764 391.933V352.64Z" fill="#57CC02"/>
<path d="M605.501 360.283C611.347 366.226 621.655 366.226 628.166 360.283C634.676 354.341 627.187 394.893 627.187 394.789C627.187 394.739 623.707 394.725 616.747 394.746C614.881 394.752 611.52 394.766 606.662 394.789C601.991 367.824 601.604 356.321 605.501 360.283Z" fill="#88E118"/>
<path d="M642.013 344.975L626.24 362.536C625.394 363.477 625.708 364.97 626.861 365.484C632.398 367.954 639.005 366.56 643.172 361.921C647.34 357.281 648.032 350.549 645.002 345.287C644.372 344.192 642.859 344.034 642.013 344.975Z" fill="#8EDF00"/>
<path d="M651.199 349.164L635.426 366.725C634.58 367.666 634.895 369.159 636.048 369.673C641.585 372.143 648.191 370.749 652.358 366.11C656.526 361.47 657.218 354.738 654.189 349.476C653.558 348.381 652.045 348.223 651.199 349.164Z" fill="#8EDF00"/>
<path d="M591.883 344.927L607.172 362.115C607.991 363.037 607.672 364.484 606.543 364.972C601.118 367.322 594.676 365.911 590.637 361.37C586.598 356.829 585.967 350.287 588.961 345.204C589.584 344.146 591.063 344.006 591.883 344.927Z" fill="#88E118"/>
<path d="M582.525 349.18L596.906 365.349C597.677 366.216 597.38 367.576 596.318 368.036C591.214 370.247 585.152 368.921 581.352 364.649C577.553 360.377 576.961 354.222 579.777 349.441C580.363 348.445 581.754 348.313 582.525 349.18Z" fill="#88E118"/>
<path d="M569.026 375.44C569.026 363.646 578.588 354.084 590.382 354.084C602.177 354.084 611.738 363.646 611.738 375.44V385.963C611.738 397.758 602.177 407.32 590.382 407.32C578.588 407.32 569.026 397.758 569.026 385.963V375.44Z" fill="#88E118"/>
<path d="M621.952 375.44C621.952 363.646 631.514 354.084 643.308 354.084C655.102 354.084 664.666 363.646 664.666 375.44V385.963C664.666 397.758 655.102 407.32 643.308 407.32C631.514 407.32 621.952 397.758 621.952 385.963V375.44Z" fill="#88E118"/>
<path d="M642.69 361.512C650.895 361.512 657.546 368.164 657.546 376.369V384.726C657.546 392.931 650.895 399.582 642.69 399.582C634.485 399.582 627.834 392.931 627.834 384.726V376.369C627.834 368.164 634.485 361.512 642.69 361.512Z" fill="white"/>
<path d="M591.002 361.512C599.207 361.512 605.86 368.164 605.86 376.369V384.726C605.86 392.931 599.207 399.582 591.002 399.582C582.797 399.582 576.146 392.931 576.146 384.726V376.369C576.146 368.164 582.797 361.512 591.002 361.512Z" fill="white"/>
<path d="M616.845 386.273C620.863 386.273 624.118 389.529 624.118 393.546V396.023C624.118 400.04 620.863 403.295 616.845 403.295C612.828 403.295 609.572 400.04 609.572 396.023V393.546C609.572 389.529 612.828 386.273 616.845 386.273Z" fill="#F49000"/>
<path d="M627.32 394.327C627.405 394.661 627.178 394.989 626.839 395.049L616.967 396.797L607.096 395.049C606.756 394.989 606.529 394.661 606.614 394.327C607.783 389.699 611.975 386.273 616.967 386.273C621.959 386.273 626.15 389.699 627.32 394.327Z" fill="#FFC200"/>
<path d="M614.812 389.187C615.505 388.888 617.41 388.674 618.837 389.187" stroke="#FFDE00" stroke-width="3.095" stroke-linecap="round" stroke-linejoin="round"/>
<path d="M631.238 378.536C634.315 378.536 636.809 376.041 636.809 372.965C636.809 371.958 636.543 371.015 636.076 370.2C636.746 369.985 637.461 369.869 638.202 369.869C642.048 369.869 645.166 372.987 645.166 376.833V384.262C645.166 388.107 642.048 391.225 638.202 391.225C634.356 391.225 631.238 388.107 631.238 384.262V378.536Z" fill="#4A4A4A"/>
<path d="M588.531 378.536C591.608 378.536 594.102 376.041 594.102 372.965C594.102 371.958 593.836 371.015 593.369 370.2C594.039 369.985 594.754 369.869 595.495 369.869C599.341 369.869 602.459 372.987 602.459 376.833V384.262C602.459 388.107 599.341 391.225 595.495 391.225C591.649 391.225 588.531 388.107 588.531 384.262V378.536Z" fill="#4A4A4A"/>
<path d="M575.16 386.778C575.16 386.778 574.639 403.583 587.417 403.583C594.107 403.583 601.167 401.917 603.945 399.139C576.501 408.5 575.16 386.778 575.16 386.778Z" fill="#89E219"/>
<path d="M658.841 386.778C658.841 386.778 657 403.583 646.697 403.583C640.073 403.583 633.084 401.917 630.334 399.139C656.001 408.5 658.841 386.778 658.841 386.778Z" fill="#89E219"/>
</g>
</g>
<defs>
<clipPath id="clip0_1_12060">
<rect width="1080" height="1080" fill="white"/>
</clipPath>
</defs>
</svg>
